<svg width="95" height="261" viewBox="0 0 95 261" fill="none" xmlns="http://www.w3.org/2000/svg"><path d="M9.208 15.914c.71 34.862 1.419 69.724 1.925 92.788.507 23.065.811 34.332.963 40.167.153 5.836.153 6.242.304 6.647.152.407.456.811 1.217 1.217.76.406 1.976.81 6.892 1.115 4.915.304 13.529.507 23.056.557 9.525.051 19.964-.051 25.64-.102 5.675-.051 6.587-.051 7.517-.187.93-.136 1.878-.409 2.62-.854.743-.447 1.28-1.065 1.668-1.992.387-.927.625-2.162.743-3.439.118-1.276.119-2.594-.033-6.606-.152-4.013-.456-10.721-.66-14.074-.202-3.354-.304-3.354-.405-3.354" stroke="#C5C6D1" stroke-width=".5" stroke-miterlimit="22.926"/><path d="M11.201 112.281c1.464.205 2.928.412 3.863.921.934.508 1.34 1.319 2.96 3.396 1.622 2.079 4.46 5.423 6.335 7.602 1.875 2.179 2.787 3.192 3.547 3.749.76.558 1.368.66 8.462.71 7.094.051 20.674.051 27.92.051 7.246 0 8.158 0 9.83-.151 1.673-.153 4.106-.456 5.93-.66 1.823-.202 3.04-.303 4.51-.658 1.468-.354 3.191-.963 4.459-2.077 1.267-1.115 2.077-2.736 2.686-4.561.607-1.824 1.013-3.852 1.165-8.006.152-4.155.052-10.438-.05-20.573-.102-10.134-.203-24.12-.255-32.38-.05-8.259-.05-10.792-.405-12.971-.355-2.18-1.064-4.003-1.875-5.625-.81-1.622-1.723-3.04-3.192-4.409-1.47-1.368-3.497-2.686-4.51-3.446-1.013-.76-1.013-.963-.86-4.966.15-4.004.454-11.807.607-15.91.152-4.106.152-4.511.101-5.018-.051-.507-.152-1.114-2.787-1.774-2.635-.659-7.803-1.368-10.59-1.722-2.787-.356-3.193-.356-3.491-.583-.299-.228-.488-.684-2.21-1.14-1.724-.456-4.98-.913-9.698-1.039-4.718-.127-10.901.076-14.954.126-4.054.051-5.98-.051-9.172.253s-7.652 1.014-9.932 1.47c-2.28.456-2.382.66-2.787.71-.405.05-1.114-.051-1.723-.09-.608-.037-1.115-.012-1.926-.012-.81 0-1.925-.025-2.99.114-1.063.14-2.077.444-2.583.95-.507.507-.507 1.216-.504 1.792.002.576.006 1.018.027 1.293.02.274.058.382.178.562.12.18.321.43.605.46.283.03.648-.163 1.032-.159.386.005.79.207.993.309.203.1.203.1-.146.526-.35.424-1.047 1.272-1.2 2.439-.151 1.165.243 2.647.637 4.13" stroke="#C5C6D1" stroke-width=".5" stroke-miterlimit="22.926"/><path d="M27.145 4.131c-1.849.33-3.698.659-4.94 1.077-1.241.417-1.875.924-1.875 1.406 0 .481.634.937 1.673 1.318 1.038.38 2.482.684 4.636.95 2.154.266 5.017.494 8.146.62 3.129.127 6.524.152 10.134.177 3.611.026 7.436.051 10.73-.025 3.293-.075 6.055-.253 8.386-.556 2.33-.305 4.232-.735 5.422-1.065 1.19-.33 1.672-.557 1.977-.848.304-.292.43-.647.228-.938-.203-.291-.735-.52-1.508-.735a19.71 19.71 0 00-2.71-.531c-.925-.114-1.762-.14-2.597-.165" stroke="#C5C6D1" stroke-width=".5" stroke-miterlimit="22.926"/><path d="M62.065 9.315l-.09-2.609c-.017-.573-.017-.7.071-.813.09-.114.267-.215.748-.392.481-.178 1.267-.43 1.66-.557.393-.127.393-.127.512-.394.12-.265.358-.797.596-1.33M30.104 9.226c.028-1.166.054-2.332.005-2.915-.049-.583-.176-.583-.53-.66-.355-.076-.938-.227-1.381-.493-.443-.267-.748-.646-.9-.837-.152-.19-.152-.19-.19-.38-.038-.19-.113-.57 0-.898.114-.33.419-.608.853-.87.435-.262 1.001-.506 1.567-.752" stroke="#C5C6D1" stroke-width=".5" stroke-miterlimit="22.926"/><path d="M8.571 11.784c.757.463 1.513.928 2.525 1.211 1.012.283 2.278.384 4.128.435 1.85.05 4.282.05 12.946.126 8.665.076 23.563.228 31.797.305 8.234.076 9.806.076 11.022.025 1.216-.05 2.077-.152 3.14-.253 1.065-.102 2.332-.203 3.194-.305.861-.101 1.317-.202 1.672-.354.354-.153.607-.355 1.163-1.31.556-.954 1.414-2.66 2.272-4.365M78.336 31.57l-.164-18.365" stroke="#C5C6D1" stroke-width=".5" stroke-miterlimit="22.926"/><path d="M9.208 15.914c.899.505 1.797 1.012 3.463 1.317 1.666.304 4.098.405 13.422.455 9.323.051 25.539.051 34.508 0 8.969-.05 10.692-.152 11.932-.202 1.241-.05 2.002-.05 2.685-.05.685 0 1.293 0 1.778-.126.484-.126.845-.378 1.3-.631.457-.254 1.008-.509 1.41-.863.403-.356.657-.812 1.068-1.412.412-.6.983-1.342 1.554-2.085M9.416 26.104c1.437.708 2.875 1.414 13.526 1.666 10.65.253 30.514.05 40.75-.052 10.236-.102 10.844-.102 11.673-.151.83-.051 1.882-.152 3.004-.761 1.124-.61 2.318-1.728 3.514-2.848" stroke="#C5C6D1" stroke-width=".5" stroke-miterlimit="22.926"/><path d="M9.348 22.753c1.41.557 2.819 1.114 4.157 1.394 1.338.279 2.605.279 12.359.304 9.755.025 27.997.076 37.346.102 9.348.025 9.805.025 10.387.025.584 0 1.293 0 2.092-.052.8-.051 1.691-.154 2.762-.872 1.07-.717 2.323-2.05 3.574-3.383" stroke="#C5C6D1" stroke-width=".5" stroke-miterlimit="22.926"/><path d="M9.28 19.413c1.482.505 2.965 1.01 4.34 1.264 1.376.252 2.643.252 13.03.252h40.016c10.119 0 10.847 0 11.455-.229.609-.228 1.096-.683 1.748-1.342.652-.66 1.468-1.52 2.284-2.382m-70.125 10.01c.01 1.578.018 3.157.834 3.972.815.814 2.438.865 12.496.942 10.058.075 28.554.177 38.309.203 9.754.025 10.767-.026 11.4-.102.633-.075.887-.177 1.367-.456s1.186-.736 1.891-1.192m3.322.517c-3.536 1.095-7.072 2.19-8.916 2.839-1.843.649-1.995.85-2.198 1.18-.204.33-.457.786-.684 1.216-.23.43-.432.837-.483 1.622-.05.785.051 1.95.051 2.787 0 .836-.1 1.343.305 1.621.405.28 1.317.33 2.204.685.887.354 1.749 1.013 2.458 1.672.709.659 1.266 1.317 1.723 2.736.455 1.419.81 3.598 1.038 14.442.228 10.844.33 30.353.406 40.563.076 10.21.126 11.123.126 11.908 0 .786-.05 1.444-.202 2.179-.152.735-.406 1.545-.786 2.229-.38.684-.886 1.241-1.545 1.521-.66.279-1.47.279-3.852.126-2.382-.152-6.333-.456-8.386-.556-2.052-.101-2.205 0-2.179 1.013.026 1.013.23 2.939.33 3.927.101.988.101 1.039.279 1.165.177.127.531.329 2.482.481 1.952.153 5.5.253 7.678.229 2.179-.025 2.99-.178 3.901-.431.913-.253 1.926-.608 2.787-1.292.862-.684 1.57-1.697 2.128-2.812.558-1.114.963-2.331 1.166-4.181.202-1.849.202-4.332.126-15.302-.077-10.97-.228-30.429-.279-40.487-.05-10.059 0-10.718 0-11.68 0-.963-.05-2.23-.33-3.395-.278-1.166-.784-2.23-1.291-3.192a45.774 45.774 0 00-1.495-2.61c-.482-.785-.938-1.494-1.774-2.128-.836-.633-2.052-1.19-3.015-1.52a9.01 9.01 0 00-2.255-.481c-.583-.051-1.039-.051-1.495-.051" stroke="#C5C6D1" stroke-width=".5" stroke-miterlimit="22.926"/><path d="M77.18 32.26c1.6 1.392 3.204 2.783 4.56 4.392 1.36 1.607 2.474 3.432 3.31 5.18.837 1.748 1.394 3.42 1.698 6.866.304 3.446.355 8.665.43 19.788.076 11.122.178 28.148.255 37.345.075 9.198.125 10.566.025 11.63-.102 1.064-.355 1.825-.71 2.939-.354 1.115-.81 2.585-1.833 3.881-1.022 1.297-2.61 2.421-4.198 3.545m-68.758 17.607c-.981.354-1.962.707-3.542 2.277-1.58 1.57-3.76 4.357-5.076 6.486-1.318 2.128-1.774 3.598-1.976 5.574-.202 1.977-.152 4.46-.076 5.93.077 1.469.178 1.925.507 2.33.33.406.887.761 1.242 1.014.354.254.507.406.177 12.11-.33 11.706-1.14 34.964-1.604 48.356-.464 13.392-.58 16.918-.606 19.376-.025 2.458.04 3.847.175 4.794.135.949.337 1.455 1.58 2.367 1.24.913 3.52 2.23 5.27 2.888 1.748.658 2.963.659 4.686.709 1.723.052 3.953.152 5.22.152 1.266 0 1.57-.1 1.747-.709.178-.608.228-1.723.456-2.559a4.44 4.44 0 01.963-1.775c.33-.378.582-.582.937-.683.354-.101.81-.101 8.209-.101 7.398 0 21.738 0 29.415.076s8.69.228 9.476.406c.785.177 1.344.379 1.698.759.355.381.507.938.583 1.546.076.609.076 1.268.177 1.775.102.506.305.861 1.925 1.139 1.622.279 4.662.482 6.942.558 2.28.075 3.8.025 5.524-.71 1.723-.735 3.648-2.154 4.737-3.141 1.09-.988 1.344-1.546 1.672-2.306.33-.761.735-1.723.938-2.509.202-.784.202-1.393.229-2.356.024-.962.075-2.28.253-5.37.177-3.092.481-7.956.152-21.409-.33-13.454-1.293-35.496-1.748-46.771-.456-11.275-.406-11.781-.152-12.592.253-.81.709-1.926.912-3.092.203-1.165.152-2.381 0-3.623-.152-1.241-.405-2.507-.66-3.674-.252-1.165-.506-2.229-.81-3.116a13.32 13.32 0 00-1.013-2.229c-.355-.635-.71-1.191-1.546-1.623-.836-.43-2.154-.735-3.45-.908-1.298-.173-2.575-.216-3.852-.258" stroke="#C5C6D1" stroke-width=".5" stroke-miterlimit="22.926"/><path d="M3.34 154.197c-.447.887-.894 1.776-.758 2.746.135.972.853 2.026 2.022 2.782 1.17.755 2.791 1.21 4.665 1.591 1.876.38 4.004.685 15.203.836 11.198.153 31.467.153 42.54 0 11.07-.151 12.946-.455 14.568-.836 1.621-.38 2.99-.836 4.079-1.344 1.09-.506 1.9-1.063 2.508-1.773.608-.709 1.013-1.571 1.393-2.483.38-.912.735-1.875.98-3.1.245-1.224.38-2.71.517-4.196" stroke="#C5C6D1" stroke-width=".5" stroke-miterlimit="22.926"/><path d="M1.223 162.734c.824.516 1.648 1.031 2.72 1.517 1.07.486 2.387.943 4.972 1.17 2.584.229 6.435.229 16.671.229s26.856 0 37.168-.026c10.311-.025 14.316-.076 16.848-.228 2.534-.152 3.6-.406 4.763-.709 1.166-.305 2.433-.659 3.421-1.14.99-.482 1.698-1.09 2.23-1.596s.886-.912 1.351-1.829c.465-.915 1.039-2.343 1.613-3.771M3.037 169.044c2.5.592 5 1.182 7.085 1.453 2.086.27 3.758.22 4.645.195.887-.025.988-.025 1.09.279.1.304.201.912.252 2.153.051 1.241.051 3.116.076 4.408.025 1.292.076 2.002.355 2.508.278.507.784.811 1.469 1.039.684.229 1.545.38 10.007.38s24.526-.152 33.013-.228c8.488-.076 9.4-.076 10.084-.253.685-.179 1.14-.532 1.394-.913.254-.38.304-.785.33-1.216.024-.431.024-.887.024-1.951v-3.801c0-1.063 0-1.52.102-1.849.1-.33.305-.532.632-.659.33-.126.786-.178 1.597-.203.81-.025 1.976-.025 3.344-.05 1.368-.026 2.939-.077 4.256-.203a27.884 27.884 0 003.217-.506c.838-.178 1.445-.33 2.027-.584.583-.253 1.14-.608 1.776-1.165.636-.558 1.351-1.317 2.066-2.076" stroke="#C5C6D1" stroke-width=".5" stroke-miterlimit="22.926"/><path d="M36.835 169.298h15.81c.795 0 1.444.649 1.444 1.444v6.688c0 .795-.65 1.444-1.444 1.444h-15.81a1.448 1.448 0 01-1.444-1.444v-6.688c0-.795.65-1.444 1.444-1.444zm21.282-.077H69.29c.795 0 1.445.65 1.445 1.444v6.689c0 .795-.65 1.444-1.445 1.444H58.117a1.448 1.448 0 01-1.444-1.444v-6.689c0-.794.65-1.444 1.444-1.444zm-38.004-.228h11.174c.794 0 1.444.65 1.444 1.444v6.689c0 .794-.65 1.444-1.445 1.444H20.114c-.795 0-1.444-.65-1.444-1.444v-6.689c0-.794.65-1.444 1.444-1.444zM1 250.322c.34.329.682.659 1.346 1.076.664.418 1.652.924 2.945 1.344 1.292.417 2.888.747 4.762.937 1.875.19 4.029.241 5.22.304 1.19.064 1.419.14 1.698-.063.279-.203.608-.684.963-1.254s.735-1.229 1.09-1.748a6.985 6.985 0 011.025-1.216c.342-.317.697-.57 6.955-.633 6.257-.063 18.42.063 26.489.126 8.07.064 12.047.064 14.163.064 2.116 0 2.369 0 2.685.138.317.14.698.419 1.102.925.404.507.837 1.241 1.191 1.837.355.595.633 1.052.862 1.394.228.341.405.57.582.697.177.126.355.152 1.102.164.748.013 2.065.013 3.484 0 1.42-.012 2.939-.038 4.46-.228 1.52-.191 3.04-.545 4.244-.887 1.204-.341 2.09-.671 2.825-1.014.734-.341 1.317-.697 1.853-1.211.536-.515 1.026-1.191 1.516-1.867m-48.628-21.535c7.157 0 12.96-5.802 12.96-12.96 0-7.157-5.803-12.959-12.96-12.959-7.158 0-12.96 5.802-12.96 12.959 0 7.158 5.802 12.96 12.96 12.96z" stroke="#C5C6D1" stroke-width=".5" stroke-miterlimit="22.926"/><path d="M45.121 231.7c10.787 0 19.532-8.744 19.532-19.531 0-10.788-8.745-19.532-19.532-19.532s-19.532 8.744-19.532 19.532c0 10.787 8.745 19.531 19.532 19.531z" stroke="#C5C6D1" stroke-width=".5" stroke-miterlimit="22.926"/><path d="M44.763 227.712c8.029 0 14.537-6.509 14.537-14.537 0-8.029-6.508-14.537-14.537-14.537-8.028 0-14.537 6.508-14.537 14.537 0 8.028 6.509 14.537 14.537 14.537z" stroke="#C5C6D1" stroke-width=".5" stroke-miterlimit="22.926"/></svg>