<svg width="235" height="69" viewBox="0 0 235 69" fill="none" xmlns="http://www.w3.org/2000/svg"><path d="M220.437 25.04l-1.13-9.417 3.183-4.868h11.987L230.53 25.04h-10.093zm-215.583 0L.531 10.755H12.51l3.184 4.87-.941 9.415H4.854zm6.362 32.744l3.209-28.743h206.154l3.743 28.558c.766 5.838-3.779 11.017-9.667 11.017H184.7a4.954 4.954 0 01-4.711-3.424 5.452 5.452 0 00-5.186-3.769H59.093a5.818 5.818 0 00-5.44 3.758 5.318 5.318 0 01-4.974 3.435H20.905c-5.813 0-10.334-5.055-9.69-10.832z" stroke="#C5C6D1" stroke-width=".5"/><rect x="55.498" y="34.099" width="124.781" height="19.343" rx="9.671" stroke="#C5C6D1" stroke-width=".5"/><circle cx="71.006" cy="44.549" r="6.559" stroke="#C5C6D1" stroke-width=".5"/><circle cx="71.006" cy="35.989" r=".973" fill="#C5C6D1"/><circle cx="89.681" cy="44.549" r="6.559" stroke="#C5C6D1" stroke-width=".5"/><circle cx="89.681" cy="35.989" r=".973" fill="#C5C6D1"/><circle cx="108.357" cy="44.549" r="6.559" stroke="#C5C6D1" stroke-width=".5"/><circle cx="108.357" cy="35.989" r=".973" fill="#C5C6D1"/><circle cx="127.032" cy="44.549" r="6.559" stroke="#C5C6D1" stroke-width=".5"/><circle cx="127.032" cy="35.989" r=".973" fill="#C5C6D1"/><circle cx="145.708" cy="44.549" r="6.559" stroke="#C5C6D1" stroke-width=".5"/><circle cx="145.708" cy="35.989" r=".973" fill="#C5C6D1"/><circle cx="164.383" cy="44.549" r="6.559" stroke="#C5C6D1" stroke-width=".5"/><circle cx="164.383" cy="35.989" r=".973" fill="#C5C6D1"/><path stroke="#C5C6D1" d="M12.95.5h209.099v9.505H12.95z"/><path stroke="#C5C6D1" stroke-width=".5" d="M222.411.25h12.339v10.394h-12.339zM.25.25h12.339v10.394H.25zm14.424 27.124l1.503-13.895h202.647l1.502 13.895H14.674z"/></svg>