<svg width="203" height="183" viewBox="0 0 203 183" fill="none" xmlns="http://www.w3.org/2000/svg"><path d="M30.72 147.764l-.002.004c-1.354 1.625-2.708 3.25-3.143 4.381-.189.492-.194.88-.024 1.224.187.378.582.737 1.17 1.136.672.456 1.584.954 2.714 1.423.965.399 2.086.777 3.349 1.087 1.38.34 2.933.6 5.094.793 2.176.194 4.972.319 8.832.387 5.508.097 13.173.079 20.996.061 3.468-.008 6.984-.016 9.44-.016l3.577.003c9.205.01 17.201.017 22.384-.55 5.737-.627 8-1.965 9.971-3.129l.307-.182c1.892-1.117 3.547-2.093 5.181-3.47a25.735 25.735 0 002.548-2.484 28.546 28.546 0 002.285-2.892 27.141 27.141 0 001.874-3.161 30.46 30.46 0 001.471-3.437 37.12 37.12 0 001.812-7.431c.235-1.776.297-3.44.498-8.853.071-1.925.16-4.32.278-7.319.163-4.103.382-9.383.616-15.016.428-10.277.904-21.73 1.17-29.337.204-5.875.285-9.49.285-11.902 0-2.38-.079-3.534-.192-4.525-.112-.99-.258-1.817-.479-2.582-.222-.762-.52-1.47-.942-2.225a17.718 17.718 0 00-1.612-2.37 18.388 18.388 0 00-1.975-2.115 15.317 15.317 0 00-2.113-1.592 28.218 28.218 0 00-2.204-1.237c-.742-.382-1.496-.754-2.415-1.079-.919-.324-2.006-.605-3.421-.807-1.431-.204-3.193-.33-5.408-.414-2.236-.086-4.921-.132-8.186-.178a2906.449 2906.449 0 00-23.617-.23c-4.096-.022-8.02-.033-11.784-.016-3.76.017-7.363.063-10.82.155-6.7.177-12.866.53-16.675.746l-.317.018a388.42 388.42 0 01-4.053.219c-.913.04-1.489.053-2.022.047-.55-.008-1.053-.036-1.602-.181-.553-.148-1.142-.41-1.853-.885-.602-.402-1.293-.955-1.96-1.53a37.993 37.993 0 01-2.222-2.082c-1.015-1.043-1.021-1.239-1.115-4.296l-.002-.056c-.045-1.48-.114-3.66-.195-6.055-.08-2.373-.17-4.95-.263-7.238-.181-4.519-.365-7.864-.457-9.545v-.016c-.103-1.872-.103-1.873 1.411-2.95a65.81 65.81 0 012.851-1.942c1.16-.737 2.46-1.486 3.695-2.01 1.251-.532 2.426-.832 5.027-1.022C41.03.906 44.999.825 51.86.734A6413.18 6413.18 0 0181.416.428C92.246.336 104.393.25 116.704.185c11.272-.06 22.681-.103 33.079-.132C163.678.015 175.389 0 182.691 0c6.707 0 10.108.012 11.985.136 1.972.13 2.321.391 2.919.888a96.6 96.6 0 011.875 1.61c.831.728 1.664 1.472 2.212 1.97.537.49.833.775 1.013 1.054.203.313.246.573.273 1.003.024.381.035.93.031 1.597-.004.615-.02 1.323-.053 2.08a86.934 86.934 0 01-.172 2.784 321.14 321.14 0 01-.379 4.443 601.5 601.5 0 01-.739 7.646c-.344 3.367-.808 7.681-1.458 13.395a3721.088 3721.088 0 01-1.967 16.86c-.938 7.92-1.89 15.815-2.543 21.183-.797 6.554-1.165 9.448-1.348 10.887-.057.451-.091.716-.139 1.129-.056.472-.085.775-.077 2.161.009 1.41.055 3.935.146 8.845.245 13.016.484 26.034.735 39.05.179 9.57.182 9.714.822 11.433.2.54.523 1.39.87 2.304.633 1.672 1.356 3.577 1.787 4.796.641 1.814.676 2.205.914 4.878l.043.476c.269 3.012.82 8.839 1.371 14.669l.002.023-.726.066-.002-.021c-.546-5.782-1.093-11.56-1.372-14.674l-.042-.476c-.23-2.585-.264-2.963-.877-4.698-.438-1.237-1.154-3.125-1.782-4.781-.319-.839-.613-1.615-.871-2.308-.682-1.836-.685-1.98-.867-11.675-.251-13.016-.49-26.033-.735-39.05-.092-4.908-.138-7.432-.146-8.854-.009-1.445.021-1.76.079-2.25l.142-1.134c.166-1.302.498-3.914 1.345-10.882.653-5.368 1.604-13.262 2.543-21.182.712-6 1.412-11.983 1.967-16.855.654-5.752 1.117-10.057 1.458-13.389.347-3.377.569-5.757.739-7.637.167-1.851.287-3.256.376-4.432.087-1.141.138-1.99.172-2.761.033-.761.05-1.458.053-2.053.004-.638-.007-1.17-.031-1.548-.018-.303-.045-.479-.156-.651-.134-.207-.4-.462-.893-.91a161.932 161.932 0 00-2.201-1.963c-.68-.595-1.356-1.178-1.86-1.596-.477-.397-.759-.606-2.499-.721-1.837-.122-5.234-.133-11.939-.133a13246.932 13246.932 0 00-65.984.181c-12.305.066-24.453.151-35.285.243-11.986.102-22.361.21-29.554.307-6.826.09-10.777.171-13.333.357-2.503.182-3.618.465-4.792.964-1.19.505-2.455 1.234-3.59 1.955a64.268 64.268 0 00-2.819 1.92c-1.187.845-1.186.845-1.106 2.314v.017c.092 1.67.275 4.995.459 9.556.09 2.266.183 4.852.263 7.244.08 2.371.148 4.563.194 6.058l.002.056c.086 2.787.091 2.965.91 3.805a36.817 36.817 0 002.176 2.04c.646.558 1.313 1.091 1.885 1.473.64.426 1.158.66 1.635.787.48.127.93.151 1.425.158a33.44 33.44 0 001.982-.047c.892-.04 2.148-.11 4.045-.218l.318-.019c3.8-.216 9.954-.567 16.698-.746 3.454-.092 7.063-.138 10.833-.154 3.766-.017 7.692-.006 11.79.016a3029.23 3029.23 0 0123.623.23c3.281.046 5.975.091 8.203.177 2.247.086 4.034.214 5.485.421 1.469.21 2.603.502 3.561.84.957.34 1.738.724 2.506 1.12a29.19 29.19 0 012.259 1.268 16.138 16.138 0 012.212 1.669c.716.646 1.42 1.406 2.055 2.2a18.387 18.387 0 011.682 2.47 11.04 11.04 0 011.004 2.377c.236.813.388 1.68.505 2.705.115 1.022.197 2.202.197 4.606 0 2.372-.079 5.99-.287 11.924-.267 7.645-.743 19.081-1.17 29.343-.234 5.633-.453 10.914-.616 15.017-.12 3.043-.208 5.412-.278 7.316-.202 5.438-.264 7.111-.503 8.921a36.42 36.42 0 01-.723 3.816 37.601 37.601 0 01-1.127 3.767c-.441 1.23-.938 2.4-1.505 3.521a27.814 27.814 0 01-1.925 3.248 29.714 29.714 0 01-2.342 2.967 26.436 26.436 0 01-2.622 2.551c-1.691 1.424-3.364 2.412-5.278 3.542l-.307.182c-2.035 1.203-4.369 2.582-10.266 3.227-5.212.57-13.23.562-22.463.553l-3.577-.001c-3.712 0-6.578.007-9.44.014-7.827.018-15.498.037-21.007-.061-3.876-.069-6.688-.195-8.883-.39-2.21-.197-3.795-.463-5.206-.809a24.056 24.056 0 01-3.454-1.123c-1.174-.487-2.13-1.01-2.843-1.494-.692-.47-1.168-.912-1.416-1.416-.265-.536-.27-1.11-.002-1.808.48-1.246 1.87-2.915 3.26-4.585l.003-.003.565.463z" fill="#C5C6D1"/><path d="M28.017 144.677l-.008.016c-1.725 3.362-3.451 6.723-4.699 9.402a75.318 75.318 0 00-1.555 3.571 146.385 146.385 0 00-1.319 3.407c-.457 1.212-.96 2.551-1.385 3.862-.423 1.31-.773 2.606-.93 3.748-.152 1.113-.121 2.08.18 2.971.3.891.874 1.722 1.809 2.57.901.818 2.137 1.65 3.494 2.422a37.818 37.818 0 004.77 2.269c1.443.564 2.75.958 4.477 1.25 1.743.295 3.917.489 7.08.648 3.187.16 7.36.287 12.665.395 5.318.108 11.771.2 19.503.291 8.469.101 18.47.201 29.221.279 8.901.064 18.32.112 27.811.134 13.857.03 27.873 0 39.023-.023 6.088-.013 11.389-.024 14.488-.024 3.944 0 6.921.014 8.93.023 3.064.015 3.699.017 4.246-.065.427-.064.809-.18 1.147-.323.337-.141.639-.315.901-.489.256-.171.465-.337.646-.531.183-.195.349-.429.518-.737.353-.64.714-1.586.894-2.059l.183-.482.684.26-.183.481c-.186.489-.558 1.465-.936 2.151a4.305 4.305 0 01-.627.883c-.23.247-.479.447-.772.642a6.142 6.142 0 01-1.023.553 5.54 5.54 0 01-1.325.375c-.588.087-1.234.085-4.355.071-1.76-.009-4.376-.021-8.926-.021-4.504 0-9.137.01-14.489.021-11.15.024-25.166.053-39.022.023-9.495-.02-18.913-.069-27.814-.134a6471.169 6471.169 0 01-29.228-.278c-7.74-.092-14.196-.183-19.508-.292-5.326-.108-9.508-.235-12.685-.395-3.198-.161-5.397-.356-7.167-.656a22.021 22.021 0 01-4.622-1.29 38.496 38.496 0 01-4.865-2.314c-1.398-.794-2.677-1.659-3.624-2.517-1.033-.937-1.672-1.869-2.013-2.879-.34-1.007-.378-2.079-.21-3.3.164-1.191.524-2.528.959-3.874.433-1.343.938-2.683 1.396-3.896.462-1.225.878-2.322 1.325-3.425a76.02 76.02 0 011.568-3.605c1.22-2.621 2.967-6.022 4.714-9.424l.008-.016.65.331z" fill="#C5C6D1"/><path d="M18.283 171.651c.3.42.6.84 1.078 1.252.487.417 1.165.838 2.227 1.265 1.024.411 2.406.828 3.967 1.225 1.76.448 3.73.867 5.66 1.222 1.827.337 3.629.62 6.16.84 2.542.223 5.798.384 10.511.474 6.243.12 15.216.121 27.49.121 5.762 0 12.298 0 20.89.016 10.62.021 22.899.07 34.806.13 14.481.072 28.416.162 38.162.236 11.117.086 16.778.155 20.142.195 2.017.024 3.208.039 4.245.041a67.094 67.094 0 003.393-.06c.87-.046 1.512-.117 1.958-.222.745-.173.851-.441.958-.707l.338.135h.367v.066l-.027.069c-.177.444-.354.891-1.469 1.151-.485.113-1.169.19-2.088.237-.895.046-2.027.064-3.43.061-1.047-.002-2.239-.017-4.253-.041-3.368-.041-9.037-.109-20.137-.195a14851.245 14851.245 0 00-72.966-.366c-7.088-.014-14.423-.014-20.889-.014-12.194 0-21.109 0-27.502-.124-4.76-.091-8.03-.253-10.563-.474a61.566 61.566 0 01-6.227-.851 89.29 89.29 0 01-5.71-1.232c-1.582-.403-2.994-.83-4.058-1.257-1.15-.462-1.892-.925-2.43-1.387-.545-.47-.87-.927-1.197-1.384l.594-.422zm4.201-15.796v.074l-.029.069c-.182.433-.364.867.147 1.699.32.521.884 1.184 1.696 1.853.66.544 1.483 1.091 2.47 1.568 1.116.54 2.443.991 3.892 1.398 1.466.411 3.05.776 4.666 1.14 1.616.364 3.266.728 5.425 1.042 2.16.313 4.828.575 8.473.735 5.995.262 14.62.248 23.172.235l5.651-.008c1.704 0 4.326.006 6.888.012 7.436.015 13.959.028 18.505-.147 2.931-.114 5.03-.307 6.749-.657a15.985 15.985 0 004.447-1.59c1.425-.747 2.932-1.733 4.423-2.822a76.423 76.423 0 004.345-3.451 71.265 71.265 0 003.785-3.433 47.901 47.901 0 003.266-3.525 34.957 34.957 0 002.842-3.897 26.077 26.077 0 002.224-4.424c.609-1.579 1.073-3.276 1.441-5.184.371-1.923.645-4.051.871-6.482.228-2.439.411-5.192.576-8.744.167-3.559.316-7.906.475-13.526.262-9.22.555-21.848.778-31.473l.168-7.205c.205-8.725.275-11.672-.029-14.232a22.283 22.283 0 00-.765-3.734 25.757 25.757 0 00-1.309-3.434 38.6 38.6 0 00-1.638-3.152 41.482 41.482 0 00-1.945-3.062c-.582-.827-1.117-1.508-1.781-2.128-.664-.62-1.465-1.186-2.579-1.788-1.168-.63-2.676-1.298-4.301-1.898-1.52-.56-3.14-1.06-4.671-1.41-1.581-.361-3.075-.564-5.867-.678-2.791-.112-6.924-.136-13.782-.136-13.11 0-34.905.079-48.175.125l-4.01.015c-11.898.042-13.159.046-15.021.206-1.93.165-4.452.49-6.974.815l-.02.002-.093-.723.019-.003c2.56-.33 5.118-.659 7.008-.82 1.86-.16 3.126-.165 15.08-.206l4.01-.015c13.579-.048 35.881-.128 48.176-.128 6.83 0 10.959.023 13.811.138 2.85.116 4.378.325 6 .695 1.566.358 3.215.867 4.76 1.436 1.656.61 3.197 1.293 4.395 1.94 1.175.634 2.023 1.235 2.732 1.896.709.662 1.273 1.378 1.88 2.244.63.897 1.315 1.965 1.98 3.118a39.675 39.675 0 011.669 3.21c.534 1.158.986 2.32 1.346 3.535a22.89 22.89 0 01.791 3.854c.309 2.597.239 5.56.032 14.335l-.168 7.202c-.223 9.638-.515 22.284-.778 31.478-.16 5.641-.309 9.993-.474 13.538-.166 3.555-.35 6.319-.579 8.777-.23 2.467-.507 4.62-.88 6.553-.376 1.948-.85 3.685-1.478 5.31a26.715 26.715 0 01-2.285 4.548 35.69 35.69 0 01-2.902 3.977 48.454 48.454 0 01-3.314 3.58 71.547 71.547 0 01-3.826 3.469 75.428 75.428 0 01-4.387 3.483c-1.518 1.109-3.056 2.115-4.514 2.879-1.473.771-2.863 1.297-4.639 1.66-1.76.358-3.896.555-6.87.67-4.546.176-11.08.163-18.53.148-1.886-.005-3.876-.009-6.888-.009-2.886 0-4.212.003-5.651.005-8.566.014-17.208.027-23.204-.235-3.679-.161-6.367-.425-8.544-.741-2.179-.317-3.847-.685-5.482-1.054-1.633-.367-3.231-.736-4.703-1.148-1.487-.417-2.854-.883-4.013-1.444a13.016 13.016 0 01-2.616-1.663c-.882-.726-1.5-1.456-1.855-2.036-.707-1.152-.453-1.758-.199-2.363l.337.141h.367v.001z" fill="#C5C6D1"/><path d="M126.579 64.527c.069 4.771.111 10.596-.012 16.09-.179 7.969-.705 15.21-1.113 20.825l-.165 2.269c-.34 4.696-.587 8.12-.875 11.082-.161 1.653-.333 3.148-.547 4.496-.534 3.376-1.333 5.992-3.417 8.736-1.465 1.932-2.985 3.255-5.196 4.262-.77.35-1.481.604-1.988.765-.925.291-2.171.326-2.474.326v-.733c.247 0 1.438-.034 2.253-.291 1.209-.382 2.461-.92 3.529-1.606 1.917-1.232 3.618-3.318 4.681-5.318 1.055-1.984 1.542-4.048 1.891-6.252.21-1.329.382-2.811.54-4.453.282-2.895.531-6.34.873-11.065l.165-2.268c.408-5.622.934-12.874 1.113-20.788.121-5.424.08-11.174.014-15.911.291-.007.532-.066.728-.166zM91.688 41.7l.01.001c7.784.183 15.568.366 19.584.413 1.163.013 2.01.015 2.647.016 1.625.003 1.932.003 2.534.181 1.122.33 2.369.961 3.348 1.6 1.166.762 2.233 1.72 3.216 2.703a25.47 25.47 0 012.044 2.276c.569.724.941 1.341 1.124 2.26.167.831.186 1.934.251 5.7l.091 5.061a1.202 1.202 0 00-.733-.199l-.087-4.85c-.065-3.702-.083-4.785-.24-5.569-.163-.812-.478-1.311-.981-1.951a24.974 24.974 0 00-1.984-2.21c-1.422-1.423-2.858-2.623-4.686-3.497a11.07 11.07 0 00-1.568-.623c-.506-.15-.796-.15-2.329-.153a291.73 291.73 0 01-2.652-.016c-4.038-.046-11.812-.23-19.587-.412h-.01l.007-.731zm-69.36 114.438l5.119-3.837-.438-.584-5.119 3.837.438.584zm3.859-139.434h.008c2.96-.549 5.923-1.097 10.475-1.463 2.264-.182 4.939-.319 8.462-.421 3.5-.103 7.841-.172 13.455-.217 5.607-.046 12.486-.07 20.333-.08 8.843-.013 17.174-.014 26.133-.014h87.431c5.218 0 5.405 0 6.258.492l3.848.34-.172.776c-.175.01-3.899-.403-4.039-.483-.68-.393-.86-.393-5.895-.393h-87.431c-9.993 0-19.286 0-26.133.01-7.843.012-14.72.035-20.327.08-5.6.047-9.936.115-13.441.218-3.482.102-6.147.24-8.425.422-4.524.363-7.461.907-10.395 1.45h-.006l-.14-.717zm.179 5.784l.015-.005c1.885-.552 3.77-1.105 6.422-1.426 1.32-.16 2.831-.264 7.431-.333 4.573-.068 12.22-.103 25.818-.125 13.531-.023 32.955-.034 52.244-.046 19.475-.011 38.811-.024 51.804-.046 12.761-.023 19.404-.057 22.989-.075 3.704-.018 4.164-.021 4.709.022 1.08.085 2.499.347 3.919.61l.014.002-.059.323-.056.398-.016-.003c-1.399-.258-2.798-.517-3.859-.6-.542-.043-.994-.04-4.648-.022-3.584.017-10.227.052-22.992.074-12.993.023-32.33.035-51.804.046-19.29.011-38.713.023-52.244.047-13.592.022-21.235.057-25.81.125-4.547.068-6.044.17-7.353.33-2.602.315-4.453.858-6.304 1.4l-.087-.3-.133-.396z" fill="#C5C6D1"/><path d="M195.992.434l.012.024c.858 1.73 1.716 3.458 2.233 4.455l.209.4c.385.732.538 1.022.626 1.588.049.32.075.72-.077 2.63-.147 1.855-.468 5.22-1.112 11.516-.694 6.8-1.762 16.98-2.819 26.848a3627.888 3627.888 0 01-2.445 22.318c-1.107 9.71-1.52 12.306-1.714 13.521-.05.322-.085.542-.117.81-.067.555-.101 1.22-.101 3.138 0 2.03.035 5.202.102 10.73.09 7.353.24 18.859.37 28.944l.194 15.027c.123 9.633.131 10.254.339 11.004.109.391.275.834.482 1.315.215.499.462 1.017.728 1.549.184.367.374.737.564 1.108.396.769.798 1.553 1.136 2.291.256.557.477 1.093.664 1.613.19.53.344 1.035.459 1.521.117.491.199.975.259 1.515.058.525.093 1.108.116 1.808.017.521.028 1.122.041 1.788.018 1.049.041 2.261.099 3.637.093 2.194.282 4.818.471 7.441l-.318.022-.41.045-.002-.015c-.187-2.607-.376-5.213-.471-7.464-.058-1.362-.08-2.591-.099-3.654-.013-.652-.023-1.242-.041-1.777a23.28 23.28 0 00-.113-1.751 11.34 11.34 0 00-.245-1.426 13.745 13.745 0 00-.433-1.443 19.915 19.915 0 00-.641-1.557 58.468 58.468 0 00-1.122-2.263c-.194-.379-.387-.755-.566-1.113a31.197 31.197 0 01-.748-1.587 11.239 11.239 0 01-.513-1.409c-.232-.838-.241-1.465-.365-11.19l-.194-15.027c-.13-10.085-.28-21.591-.37-28.944-.069-5.687-.104-8.9-.104-10.739 0-1.949.035-2.636.106-3.224.028-.235.067-.48.124-.838.191-1.202.599-3.77 1.707-13.487.654-5.736 1.547-13.926 2.445-22.315a6095.407 6095.407 0 002.819-26.845c.638-6.246.96-9.61 1.109-11.498.146-1.831.125-2.188.083-2.462-.069-.448-.204-.707-.547-1.359l-.212-.404c-.524-1.008-1.381-2.737-2.24-4.468l-.012-.022.654-.325z" fill="#C5C6D1"/><path d="M119.382 160.305c18.925-.066 37.849-.135 56.774-.196 10.154-.033 11.716-.038 13.26-.139a50.17 50.17 0 002.306-.212c.728-.082 1.31-.161 1.698-.212.72-.097.72-.097 1.298-.459l3.226-2.022.386.618-3.223 2.022c-.712.447-.713.447-1.593.565-.414.055-1.034.137-1.713.215-.707.08-1.52.162-2.34.215-1.542.101-3.111.107-13.306.139-18.925.062-37.85.13-56.775.197v-.731h.002zm6.877-78.219c.96.29 1.919.579 2.848 1.157.448.28.884.626 1.289 1.006a10.692 10.692 0 011.913 2.404c.273.461.478.88.609 1.176l.035.081c.123.283.16.367 1.037.465 1.143.126 3.434.243 4.589.301l.013.001c1.154.059 1.16.059 8.397.093 7.259.035 21.778.103 30.211.138 7.889.032 10.453.034 12.181.036l4.395.007v.73l-4.395-.008a3546.31 3546.31 0 01-12.184-.036c-8.434-.034-22.952-.103-30.211-.137-7.277-.035-7.277-.035-8.432-.093l-.014-.001c-1.165-.06-3.475-.177-4.63-.305-1.3-.143-1.376-.318-1.628-.901l-.033-.079a10.613 10.613 0 00-.569-1.095 9.956 9.956 0 00-1.784-2.245 7.677 7.677 0 00-1.175-.916c-.846-.528-1.758-.803-2.67-1.078l.208-.7z" fill="#C5C6D1"/><path d="M194.637 84.052c.331.335.662.67.955.992.303.334.577.665.786.988.218.334.366.656.456.978.092.324.124.647.111.982a4.98 4.98 0 01-.147.983c-.078.318-.18.63-.288.916-.11.294-.228.565-.371.812-.151.26-.332.496-.564.706-.44.401-1.043.69-1.645.978l-.102-.211-.221-.442.008-.005c.551-.264 1.103-.529 1.468-.861.172-.157.309-.335.424-.533.122-.21.224-.444.319-.7.098-.26.192-.545.261-.833.07-.282.118-.567.128-.837.01-.26-.016-.51-.085-.76a2.828 2.828 0 00-.365-.777 7.432 7.432 0 00-.715-.894c-.295-.323-.615-.648-.934-.972l.521-.51zm-30.663 21.254c-4.547 2.535-9.111 5.051-13.628 7.641-4.901 2.81-5.938 3.601-6.474 4.011-.602.455-1.024.72-1.804.748-.656.024-1.405-.11-1.972-.452-.603-.363-1.006-.957-1.392-1.529l.606-.409c.315.465.675 1.017 1.165 1.311.552.334 1.555.471 2.166.238.293-.112.54-.301.788-.488.551-.421 1.616-1.235 6.554-4.066 4.453-2.552 8.954-5.033 13.438-7.533.161.199.347.377.553.528zm-24.079-39.068l.001-.01c.026-1.263.054-2.525.65-3.37.608-.863 1.744-1.205 2.748-1.297.512-.047.983-.033 2.126.496 1.077.5 2.795 1.479 5.83 3.364 2.739 1.701 6.585 4.163 10.54 6.723 4.737 3.067 9.603 6.26 12.906 8.457 3.05 2.029 4.795 3.23 5.858 4.054 1.102.855 1.49 1.321 1.809 1.868a7.005 7.005 0 01.918 3.667c-.043 1.083-.39 2.075-.888 3.027-.494.945-1.012 1.5-1.828 2.182-.501.42-1.158.92-2.439 1.744-1.275.819-3.164 1.956-6.128 3.649l-1.252.713a3.708 3.708 0 00-.185-.736l1.074-.612c2.965-1.694 4.841-2.823 6.095-3.63 1.247-.8 1.883-1.284 2.366-1.689.734-.614 1.206-1.11 1.651-1.96.761-1.457 1.024-2.782.618-4.405a6.083 6.083 0 00-.634-1.581c-.274-.471-.62-.882-1.623-1.66-1.043-.809-2.776-2-5.815-4.022a1335.05 1335.05 0 00-12.9-8.455c-3.931-2.545-7.767-5-10.528-6.714-3.007-1.869-4.7-2.835-5.75-3.321-.984-.456-1.358-.47-1.755-.434-.769.07-1.746.325-2.216.991-.516.733-.492 2.097-.518 2.965l-.731-.004zM37.12 39.862c.046 2.191.092 4.383.155 6.313.062 1.912.142 3.551.256 4.643.194 1.867.521 1.887 3.16 2.047l1.354.084c3.17.196 8.096.502 13.012.7 2.714.11 5.425.188 8.077.24 2.844.054 5.684.079 8.434.079 2.71 0 5.257-.025 7.507-.075 2.15-.048 4.085-.122 5.701-.222a62.518 62.518 0 003.967-.36 40.383 40.383 0 002.24-.344c.38-.07.588-.11.658-.263.12-.259.139-.808.139-1.896a329.397 329.397 0 00-.058-4.832c-.035-1.979-.08-4.25-.126-6.52l.73-.014c.046 2.263.09 4.527.125 6.522.036 2.037.06 3.756.06 4.844-.002 1.2-.029 1.82-.206 2.202-.227.489-.57.563-1.195.676a40.62 40.62 0 01-2.275.349 63.77 63.77 0 01-4.016.366c-1.606.1-3.552.173-5.73.222-2.338.053-4.884.077-7.52.077-2.663 0-5.498-.026-8.446-.082a388.15 388.15 0 01-8.094-.24c-4.957-.2-9.868-.504-13.027-.7l-1.352-.083c-3.19-.194-3.586-.218-3.846-2.702-.115-1.105-.196-2.762-.259-4.695a575.22 575.22 0 01-.154-6.321l.729-.015z" fill="#C5C6D1"/><path d="M55.402 53.947l.001.007c.407 2.115.812 4.23 1.053 5.315.11.499.181.775.3.908.107.119.323.177.733.253.524.098 1.31.21 2.262.309.808.084 1.737.16 2.726.212a84.09 84.09 0 003.413.1c1.06.013 2.314.014 3.526.014h6.547c2.124 0 4.18 0 5.487-.021a24.107 24.107 0 001.67-.07 5.325 5.325 0 001.092-.191c.274-.082.533-.192.764-.31.307-.155.567-.325.749-.458.114-.083.185-.145.22-.245.055-.157.08-.422.091-.903.026-1.037-.015-2.986-.056-4.933l.73-.015c.04 1.957.081 3.914.056 4.965-.014.563-.049.89-.132 1.126-.102.292-.249.426-.478.594a6.277 6.277 0 01-.852.522 5.346 5.346 0 01-.884.358c-.37.11-.76.178-1.237.22-.45.04-1.005.057-1.723.069-1.485.024-3.458.024-5.499.024h-6.546c-1.1 0-2.237 0-3.535-.015a86.666 86.666 0 01-3.441-.1 54.456 54.456 0 01-2.764-.216 31.61 31.61 0 01-2.32-.316c-.574-.107-.896-.21-1.143-.486-.235-.261-.333-.615-.47-1.237-.255-1.154-.657-3.245-1.058-5.336l-.002-.008.72-.136zM27.104 5.996a403.15 403.15 0 016.17-.263c2.355-.08 5.169-.148 8.897-.194 3.721-.045 8.353-.069 13.87-.08 6.215-.012 12.282-.013 19.166-.013 14.045 0 31.415 0 53.556.03 10.552.016 21.894.038 32.12.08 10.228.043 19.342.105 25.432.2 9.005.14 11.425.352 12.334.431.303.027.426.038.563.026.594-.052 1.747-.478 2.898-.903l.252.687c-1.199.443-2.397.886-3.087.946-.199.018-.342.005-.689-.025-.912-.08-3.34-.292-12.282-.432-6.092-.095-15.202-.158-25.424-.2a12008.05 12008.05 0 00-32.116-.079c-20.062-.028-38.581-.028-53.557-.028-7.628 0-14.354 0-19.166.01-5.51.012-10.139.034-13.86.08a402.59 402.59 0 00-8.884.194c-2.338.079-4.248.171-6.16.263l-.034-.73zM189.34 31.034h-38.275c-.782 0-1.494.321-2.009.837a2.837 2.837 0 00-.838 2.01v4.699c0 .783.321 1.495.835 2.01a2.841 2.841 0 002.012.836h38.275a2.84 2.84 0 002.01-.837 2.837 2.837 0 00.837-2.01v-4.698c0-.783-.321-1.495-.836-2.01a2.84 2.84 0 00-2.011-.837zm-38.275-.732h38.275c.983 0 1.878.403 2.526 1.051a3.568 3.568 0 011.053 2.528v4.699c0 .984-.403 1.88-1.051 2.527a3.57 3.57 0 01-2.528 1.051h-38.275a3.565 3.565 0 01-2.526-1.05 3.57 3.57 0 01-1.053-2.528v-4.7c0-.984.403-1.88 1.052-2.528a3.566 3.566 0 012.527-1.051zm32.823 89.72H148.31c-.847 0-1.617.347-2.174.903a3.068 3.068 0 00-.904 2.176v29.021c0 .846.346 1.617.904 2.175a3.066 3.066 0 002.174.904h35.578c.847 0 1.618-.346 2.176-.904a3.067 3.067 0 00.903-2.175v-29.021c0-.846-.346-1.616-.903-2.174a3.075 3.075 0 00-2.176-.905zm-35.579-.732h35.579c1.048 0 2.001.429 2.692 1.119a3.798 3.798 0 011.119 2.692v29.021c0 1.048-.428 2-1.119 2.691a3.801 3.801 0 01-2.692 1.121h-35.579a3.804 3.804 0 01-2.692-1.12 3.8 3.8 0 01-1.119-2.692v-29.021c0-1.046.429-1.999 1.119-2.691a3.81 3.81 0 012.692-1.12z" fill="#C5C6D1"/><path d="M182.105 121.499h-32.361c-.761 0-1.453.312-1.955.813a2.753 2.753 0 00-.813 1.954v26.397c0 .761.312 1.453.812 1.954a2.768 2.768 0 001.956.813h32.361a2.76 2.76 0 001.954-.812 2.76 2.76 0 00.813-1.955v-26.397c0-.76-.312-1.453-.813-1.954a2.753 2.753 0 00-1.954-.813zm-32.361-.733h32.361c.962 0 1.837.394 2.471 1.029a3.485 3.485 0 011.028 2.471v26.397c0 .961-.394 1.836-1.027 2.47a3.493 3.493 0 01-2.472 1.029h-32.361a3.495 3.495 0 01-2.473-1.028 3.496 3.496 0 01-1.027-2.471v-26.397c0-.962.394-1.837 1.028-2.471a3.488 3.488 0 012.472-1.029z" fill="#C5C6D1"/><path d="M175.8 133.33c-2.002-1.918-4.771-3.105-7.83-3.105s-5.828 1.187-7.83 3.105c-1.999 1.915-3.236 4.561-3.236 7.481 0 2.921 1.236 5.566 3.236 7.481 2.002 1.919 4.771 3.104 7.83 3.104s5.828-1.185 7.83-3.104c1.999-1.915 3.236-4.56 3.236-7.481 0-2.92-1.237-5.566-3.236-7.481zm-7.831-3.837c3.254 0 6.202 1.266 8.337 3.311 2.139 2.049 3.463 4.88 3.463 8.008 0 3.128-1.324 5.959-3.463 8.008-2.135 2.045-5.083 3.311-8.337 3.311-3.254 0-6.202-1.266-8.337-3.311-2.138-2.049-3.462-4.88-3.462-8.008 0-3.128 1.324-5.959 3.462-8.008 2.135-2.045 5.083-3.311 8.337-3.311z" fill="#C5C6D1"/><path d="M166.25 125.786c7.802 0 13.987 6.798 12.803 14.577.005-.638-.024-1.296-.033-1.982-.012-.869-.305-1.569-.76-2.089-1.081-5.735-6.204-9.775-12.01-9.775-6.639 0-12.213 5.248-12.213 11.96 0 4.711 2.803 8.898 7.048 10.84.283.52.708.964 1.243 1.258-5.295-1.65-9.023-6.495-9.023-12.098 0-7.111 5.904-12.691 12.945-12.691zm-17.947-34.373c2.838 0 5.436 1.643 6.596 4.23-.405-.565-.148-.467-.796-.68-1.373-1.215-3.874-2.819-5.8-2.819-3.523 0-6.472 2.788-6.472 6.346 0 3.558 2.949 6.346 6.472 6.346.848 0 2.13-.35 2.872-.64.536.098.649.265 1.264.09a7.264 7.264 0 01-4.136 1.282c-3.923 0-7.204-3.119-7.204-7.078s3.279-7.077 7.204-7.077zm18.355 6.334c2.477 0 4.548 1.971 4.548 4.47 0 2.499-2.071 4.471-4.548 4.471a4.566 4.566 0 01-3.744-1.934c.345.051.596.199.943.222.931.471 1.745.98 2.801.98 2.076 0 3.816-1.64 3.816-3.739 0-2.635-2.114-4.013-5.078-3.585-.396-.118-.837-.092-1.246-.143a4.583 4.583 0 012.508-.742z" fill="#C5C6D1"/><path d="M153.279 93.376l.011.008c.865.692 1.729 1.385 2.535 1.987.394.295.77.566 1.162.812.385.242.785.46 1.227.652.419.178.874.337 1.325.47.529.157 1.054.28 1.505.364.411.076.763.12 1.099.149.355.029.663.04.993.051l2.281.067-.02.73-2.283-.068c-.364-.012-.7-.024-1.031-.05-.349-.03-.724-.077-1.172-.161a16.065 16.065 0 01-1.578-.381 12.555 12.555 0 01-1.407-.501 9.79 9.79 0 01-1.328-.705c-.408-.256-.8-.538-1.21-.845-.795-.595-1.674-1.298-2.553-2.001l-.013-.01.457-.568zm-2.133 10.827l.029-.007c.985-.227 1.969-.455 2.874-.643.443-.091.865-.173 1.278-.237.412-.064.802-.108 1.18-.126.383-.018.752-.01 1.118.015.372.026.734.066 1.107.112.367.045.755.097 1.146.163.388.066.763.143 1.094.237.598.171 1.054.394 1.524.624l.18.087c.517.251 1.065.497 1.613.744l.029.012-.301.667-.027-.013c-.561-.253-1.123-.505-1.632-.751l-.182-.088c-.442-.215-.87-.424-1.403-.577a9.518 9.518 0 00-1.015-.221 29.137 29.137 0 00-2.181-.265 8.944 8.944 0 00-1.036-.016c-.355.016-.719.058-1.102.117-.381.06-.794.14-1.242.232-.859.178-1.859.409-2.858.64l-.03.007-.163-.713zM3.265 64.756l.004.037c1.83 17.109 3.66 34.213 4.984 43.897.661 4.835 1.196 7.82 1.804 10.005.602 2.166 1.278 3.553 2.224 5.197.972 1.689 2.23 3.653 3.66 5.714a113.545 113.545 0 004.516 6.062 131.618 131.618 0 004.923 5.788 179.68 179.68 0 004.474 4.793c1.321 1.367 2.43 2.477 3.504 3.409 1.069.929 2.106 1.686 3.288 2.353 1.165.657 2.484 1.233 3.919 1.725 1.477.506 3.073.922 4.748 1.243a53.53 53.53 0 005.2.711c1.804.165 3.675.268 5.593.336a141.1 141.1 0 005.914.091 134.83 134.83 0 006.323-.183 141.63 141.63 0 006.878-.525 107.75 107.75 0 006.22-.798 70.952 70.952 0 005.06-.997 47.813 47.813 0 004.356-1.232c1.12-.381 2.016-.749 2.96-1.328.951-.581 1.964-1.381 3.319-2.623 1.468-1.345 3.337-3.211 5.247-5.286 1.632-1.774 3.288-3.694 4.736-5.563a62.808 62.808 0 004.069-5.917 73.818 73.818 0 003.08-5.649 108.837 108.837 0 002.457-5.354c.72-1.685 1.349-3.262 1.877-4.64.525-1.369.947-2.531 1.28-3.6.333-1.065.581-2.046.761-3.062.309-1.738.421-3.586.73-8.662l.181-2.969c.23-3.732.551-8.74.916-14.387.366-5.664.778-11.982 1.19-18.298l.73.046c-.413 6.317-.824 12.634-1.191 18.298-.367 5.684-.687 10.7-.915 14.384l-.181 2.969c-.311 5.113-.424 6.975-.739 8.745a25.14 25.14 0 01-.784 3.153c-.341 1.094-.767 2.268-1.295 3.644a131.598 131.598 0 01-1.888 4.665 107.71 107.71 0 01-2.475 5.391 74.214 74.214 0 01-3.111 5.703 62.999 62.999 0 01-4.114 5.986c-1.465 1.89-3.134 3.827-4.776 5.611-1.912 2.079-3.8 3.961-5.29 5.328-1.39 1.276-2.439 2.102-3.434 2.71-1 .612-1.938.999-3.105 1.396a48.916 48.916 0 01-4.424 1.252 71.759 71.759 0 01-5.112 1.005c-1.948.314-4.08.584-6.264.804-2.3.233-4.655.411-6.913.528a135.16 135.16 0 01-6.357.183c-2.045.012-4.018-.022-5.942-.091a102.04 102.04 0 01-5.633-.339 54.752 54.752 0 01-5.272-.719 35.812 35.812 0 01-4.848-1.268c-1.466-.503-2.825-1.098-4.039-1.784-1.232-.695-2.306-1.478-3.408-2.435-1.097-.953-2.22-2.075-3.553-3.455a181.642 181.642 0 01-4.49-4.81 133.309 133.309 0 01-4.953-5.823 115.322 115.322 0 01-4.544-6.101c-1.438-2.072-2.707-4.054-3.692-5.766-.976-1.696-1.673-3.127-2.295-5.366-.617-2.218-1.158-5.232-1.824-10.102-1.328-9.71-3.157-26.811-4.987-43.917l-.003-.037.726-.076zm.718-4.308l.034-.002c8.59-.41 17.178-.822 25.356-1.05 7.34-.206 14.34-.264 18.865-.302l1.429-.011c4.36-.038 5.391-.07 6.414-.1h.008l.02.73h-.007c-1.02.03-2.049.06-6.43.1l-1.428.01c-4.517.038-11.504.096-18.85.302-8.143.228-16.742.64-25.342 1.051l-.035.002-.034-.73z" fill="#C5C6D1"/><path d="M86.356 59.297l.183.005c5.27.153 10.537.306 15.33.427l2.605.065c3.835.094 7.312.18 10.206.31 1.745.078 3.275.172 4.579.277 1.393.111 2.558.236 3.483.368a18.34 18.34 0 012.108.406c.539.142.941.293 1.301.45.364.157.686.32.94.492.288.194.504.405.618.637.121.245.128.495.063.73-.07.248-.223.474-.401.653-.177.177-.373.3-.573.426-.114.072-.23.145-.336.226-.076.059-.153.126-.23.193-.238.21-.482.423-.819.527-.228.07-.45.076-.907.089-.412.01-1.036.028-2.101.108-.911.07-2.041.177-3.38.303-1.965.186-4.367.414-6.942.613-2.218.17-4.63.325-7.272.471a759.14 759.14 0 01-8.556.42c-3.081.138-6.422.275-9.823.387-3.385.11-6.82.197-10.102.232a375.62 375.62 0 01-9.51-.029c-3.129-.046-6.251-.12-9.543-.2l-7.57-.186c-4.357-.107-8.809-.217-13.052-.318l-.836-.02c-6.441-.152-12.394-.292-17.695-.643-2.4-.16-4.675-.361-6.717-.573a168.13 168.13 0 01-6.552-.803c-1.435-.208-2.37-.37-3.004-.529-.685-.17-1.046-.344-1.301-.564a1.502 1.502 0 01-.487-.815C0 63.167 0 62.915 0 62.689c0-.539 0-.96.812-1.358.33-.162.807-.313 1.278-.44.446-.122.914-.228 1.226-.298l.605-.138.16.713-.605.138c-.294.066-.736.166-1.197.291-.438.118-.871.254-1.147.389-.399.196-.4.417-.4.702 0 .186 0 .393.044.574a.784.784 0 00.252.432c.168.146.441.27.997.408.608.15 1.52.309 2.933.513a180.004 180.004 0 0013.211 1.37c5.317.351 11.247.492 17.666.644l.836.02c4.243.1 8.695.21 13.053.318l7.569.186c3.299.08 6.425.155 9.534.2 3.117.045 6.228.062 9.497.029a451.92 451.92 0 0010.086-.233c3.374-.11 6.717-.248 9.814-.386 3.077-.137 5.912-.273 8.547-.42 2.606-.145 5.012-.3 7.257-.472 2.663-.205 5.01-.427 6.927-.609 1.393-.132 2.567-.243 3.396-.306 1.044-.08 1.703-.097 2.137-.109.386-.01.575-.015.711-.057.187-.058.372-.22.553-.378.087-.076.174-.152.264-.222.134-.102.265-.184.393-.265.164-.101.322-.2.447-.326a.8.8 0 00.212-.33.299.299 0 00-.014-.21c-.053-.11-.184-.23-.369-.354a5.279 5.279 0 00-.823-.43 8.246 8.246 0 00-1.199-.413 17.573 17.573 0 00-2.025-.389 57.866 57.866 0 00-3.437-.362 133.13 133.13 0 00-4.553-.277c-2.911-.132-6.372-.217-10.192-.31l-2.604-.064c-4.817-.123-10.073-.275-15.335-.427l-.182-.005.021-.73z" fill="#C5C6D1"/><path d="M2.295 60.907c.599.23 1.198.458 1.919.673a21.89 21.89 0 002.7.616c1.121.19 2.516.361 4.321.517 1.82.157 4.03.296 6.766.419 4.555.202 10.567.363 17.26.54l7.577.204c7.535.207 15.472.425 22.574.485 7.137.06 13.447-.038 19.003-.125l6.642-.097c4.225-.057 7.98-.109 11.489-.212a352.37 352.37 0 006.601-.26 443.058 443.058 0 009.752-.587 204.76 204.76 0 003.217-.252c.792-.07 1.336-.126 1.744-.18.42-.056.725-.111 1.023-.177a22.977 22.977 0 001.775-.497l.214.698c-.597.185-1.196.37-1.831.512-.319.07-.643.13-1.086.189-.456.06-1.01.118-1.776.186-.806.07-1.881.156-3.228.252a457.168 457.168 0 01-9.768.586c-2.048.1-4.269.191-6.617.26-3.498.103-7.264.155-11.5.213l-6.642.096c-5.558.087-11.87.186-19.018.126-7.122-.061-15.056-.279-22.586-.485l-7.576-.205c-6.712-.178-12.741-.339-17.274-.54-2.78-.124-5-.263-6.797-.418-1.813-.156-3.227-.332-4.38-.527a22.791 22.791 0 01-2.788-.635 26.406 26.406 0 01-1.97-.69l.26-.685z" fill="#C5C6D1"/><path d="M74.29 61.425l.07 3.296.729-.015-.07-3.296-.73.016zm8.655-.056l.074 3.252-.73.014-.074-3.252.73-.014zm-20.281.017l.004.013c.074.307.149.615.249.803a.445.445 0 00.124.153c.06.043.143.078.256.11.147.038.328.069.519.093.205.027.42.048.62.066l.56.045c.179.014.334.022.457.026.126.003.242.002.353-.006.1-.007.192-.02.279-.041a1.686 1.686 0 00.46-.194.182.182 0 00.05-.042.415.415 0 00.04-.117 8.54 8.54 0 00.12-.78v-.009l.727.09v.008c-.043.324-.085.647-.137.863a1.07 1.07 0 01-.137.34.837.837 0 01-.258.255 2.433 2.433 0 01-.69.294 2.493 2.493 0 01-.402.063c-.126.009-.265.01-.425.006a10.33 10.33 0 01-.489-.026l-.574-.048a16.79 16.79 0 01-.647-.07 4.848 4.848 0 01-.613-.111 1.497 1.497 0 01-.5-.227 1.143 1.143 0 01-.335-.395c-.145-.269-.23-.624-.316-.978l.275-.067.43-.117zm96.389 79.279a.68.68 0 00-.475-.189.68.68 0 00-.475.189.61.61 0 000 .881.68.68 0 00.475.189.679.679 0 00.475-.189.612.612 0 000-.881zm-.475-.922c.382 0 .729.151.982.394a1.339 1.339 0 010 1.934 1.41 1.41 0 01-.982.395 1.41 1.41 0 01-.982-.395 1.34 1.34 0 01-.414-.966c0-.378.159-.72.414-.968.252-.243.599-.394.982-.394zm22.067-2.227a.747.747 0 00-.316.08.538.538 0 00-.226.202.5.5 0 00-.072.271.45.45 0 00.175.347c.112.094.263.138.451.133.181-.006.322-.058.424-.157a.475.475 0 00.146-.371.498.498 0 00-.168-.365.56.56 0 00-.414-.14zm1.17 1.285l-.035-.319a.6.6 0 00.271-.13.422.422 0 00.129-.327.449.449 0 00-.094-.271.731.731 0 00-.33-.23c-.143-.054-.346-.079-.608-.074a.747.747 0 01.367.627.733.733 0 01-.221.557.851.851 0 01-.606.244 1.014 1.014 0 01-.462-.092.782.782 0 01-.333-.284.8.8 0 01-.125-.419.824.824 0 01.277-.665c.192-.175.514-.268.966-.282.507-.016.878.068 1.114.249a.808.808 0 01.32.652.74.74 0 01-.158.513.738.738 0 01-.472.251zm-4.011-8.563l.207.267a.605.605 0 00-.215.349.478.478 0 00.078.345.512.512 0 00.363.233.663.663 0 00.475-.122.603.603 0 00.28-.366.538.538 0 00-.088-.426.557.557 0 00-.476-.257l-.13-.278 1.265-.529.715 1.086-.258.169-.572-.872-.668.272c.178.07.315.178.409.321a.786.786 0 01.119.614.834.834 0 01-.382.533.948.948 0 01-.627.165.826.826 0 01-.644-.4.842.842 0 01-.153-.597.776.776 0 01.302-.507zm-4.785-4.353l.527-1.055-1.263.688.736.367zm-.412.826l.28-.56-1.02-.508.133-.266 1.83-.986.236.117-.758 1.521.318.159-.133.265-.318-.159-.279.561-.289-.144zm-7.922-2.201l.32-.053c.043.181.108.312.199.389a.47.47 0 00.329.112.53.53 0 00.525-.563.495.495 0 00-.528-.495.913.913 0 00-.227.043l.028-.283.051.002a.677.677 0 00.369-.118.366.366 0 00.155-.334.39.39 0 00-.129-.29.428.428 0 00-.312-.107.439.439 0 00-.311.128.605.605 0 00-.151.362l-.323-.05a.825.825 0 01.254-.509.775.775 0 01.515-.194.859.859 0 01.398.081.654.654 0 01.389.577.564.564 0 01-.081.311.643.643 0 01-.264.229.611.611 0 01.368.212.678.678 0 01.139.419.781.781 0 01-.232.591.889.889 0 01-.627.257.823.823 0 01-.578-.191.79.79 0 01-.276-.526zm-5.298 2.105l.165.259-1.466.929a.559.559 0 01-.088-.209 1.19 1.19 0 01-.005-.41c.021-.148.069-.335.143-.559.114-.35.179-.609.191-.779a.654.654 0 00-.08-.409.427.427 0 00-.288-.199.502.502 0 00-.374.08.515.515 0 00-.241.318.525.525 0 00.087.401l-.296.148c-.113-.22-.141-.424-.086-.613.056-.189.189-.35.4-.483.213-.135.418-.182.617-.143a.69.69 0 01.464.321.757.757 0 01.111.296c.018.108.015.237-.009.385a5.132 5.132 0 01-.172.656 5.63 5.63 0 00-.138.478 1.082 1.082 0 00-.021.22l1.086-.687zm-5.113 5.601l-.148.286-1.822-.943c.031.103.049.228.057.373.008.146.005.272-.009.378l-.276-.142a1.942 1.942 0 00-.056-.562 1.217 1.217 0 00-.179-.415l.095-.185 2.338 1.21zm-2.899 6.68c.431.013.719-.028.864-.125.145-.097.219-.219.225-.366.004-.148-.064-.275-.203-.38-.139-.105-.424-.164-.854-.176-.432-.013-.719.029-.865.125-.145.096-.22.22-.224.371a.412.412 0 00.177.359c.156.115.45.179.88.192zm-.011.329c-.31-.009-.559-.047-.747-.117a.922.922 0 01-.428-.297.722.722 0 01-.139-.478.79.79 0 01.096-.368.703.703 0 01.254-.254 1.29 1.29 0 01.394-.15c.154-.036.361-.048.621-.042.307.01.555.049.742.118a.914.914 0 01.43.295.73.73 0 01.14.479.723.723 0 01-.288.587c-.225.167-.583.243-1.075.227zm2.352 7.291l-.344-.583c-.114-.194-.231-.31-.351-.348a.447.447 0 00-.376.058.46.46 0 00-.199.214.386.386 0 00-.022.267c.016.058.065.156.144.29l.341.578.807-.476zm1.363-.4l-2.258 1.333-.504-.853a2.437 2.437 0 01-.181-.357.794.794 0 01-.059-.34.646.646 0 01.11-.31.79.79 0 01.266-.25.804.804 0 01.595-.104c.205.044.402.226.591.544l.342.58.922-.544.176.301z" fill="#C5C6D1"/></svg>