<svg width="194" height="288" viewBox="0 0 194 288" fill="none" xmlns="http://www.w3.org/2000/svg"><path d="M59.962 216.534l.589.305c21.47-41.49 47.205-91.118 68.714-132.587l.294.151-68.714 132.589 8.731 4.526 68.72-132.598.293.151c-21.494 41.483-47.233 91.113-68.72 132.599l1.187.614c-1.598 3.086-4.962 9.658-6.788 13.193a1.118 1.118 0 00-.272-.17c1.824-3.545 5.142-10.043 6.615-12.882-8.449-4.374 5.363 2.847-10.235-5.248l.023-.045-.296-.153c-.912 1.759-1.763 3.398-2.554 4.917a1.087 1.087 0 00-.27-.177c.82-1.588 1.714-3.315 2.684-5.185z" stroke="#C5C6D1"/><path d="M137.236 73.791c1.217.32 2.668-.074 4.105-1.02 1.73-1.137 3.434-3.068 4.703-5.522.232-.448.441-.898.628-1.347.103.066.225.12.362.152a18.28 18.28 0 01-.641 1.375c-1.3 2.514-3.053 4.497-4.836 5.67-1.583 1.04-3.195 1.448-4.553 1.034a1.09 1.09 0 00.232-.342zm-1.301-11.77c.058-.111.333-.611.392-.721a1.2 1.2 0 00.363.156c-1.194 2.187-2.28 5.264-2.193 7.777.026.756.141 1.453.343 2.064-.08.069-.153.15-.218.25l-.072.106c-.265-.704-.414-1.518-.445-2.407-.074-2.132.53-4.71 1.83-7.224z" fill="#C5C6D1"/><path d="M132.397 75.805l3.261-6.308 2.944 1.523-3.26 6.308a1.842 1.842 0 01-1.008.89 1.597 1.597 0 01-1.279-.074 1.597 1.597 0 01-.801-1.001 1.832 1.832 0 01.143-1.338zm3.4-5.812l-3.088 5.974c-.177.341-.207.72-.113 1.053.095.334.312.624.631.789.318.164.681.175 1.008.058.326-.116.618-.36.794-.7l3.088-5.974-2.32-1.2z" fill="#C5C6D1"/><path d="M134.618 70.397l-2.851 5.516a2.242 2.242 0 00.958 3.01 2.24 2.24 0 003.01-.958l2.085-4.03c.128.063.246.115.363.151l-2.099 4.059a2.634 2.634 0 01-3.54 1.127 2.634 2.634 0 01-1.127-3.54L134.381 70c.058.128.135.249.222.37l.015.027z" fill="#C5C6D1"/><path d="M134.18 79.468a2.24 2.24 0 002.745-1.075l1.932-3.734c.122.053.25.093.382.116l-1.963 3.8a2.633 2.633 0 01-4.051.781c.309.137.625.218.955.112z" fill="#C5C6D1"/><path d="M128.886 83.835l2.833-5.478c.085.1.189.189.303.27l-2.696 5.215 9.201 4.757 3.354-6.49-5.497-2.841c.117-.077.22-.171.306-.284l5.82 3.009-3.715 7.187-9.999-5.17.09-.175z" fill="#C5C6D1"/><path d="M146.819 73.744l-4.455 8.615-5.166-2.67c.171-.016.348-.07.526-.171l4.471 2.311 4.185-8.091.343-.079.186-.09-.09.175z" fill="#C5C6D1"/><path d="M148.799 72.753l-5.27 10.194-1.513-.768 4.382-8.477.377-.117a.978.978 0 00.124.005l-4.354 8.42.815.408 4.921-9.519c.142-.071.268-.17.423-.275a2 2 0 00.11-.084l.075.04-.09.173z" fill="#C5C6D1"/><path d="M143.618 82.772l-3.625 7.012-1.19-.601.18-.35.842.422 3.354-6.49-.841-.42.181-.348 1.189.6-.09.175zm9.19-14.012c-.944 1.307-2.218 2.587-3.761 3.699-2.296 1.656-4.756 2.632-6.876 2.873-2.017.228-3.734-.207-4.738-1.354.186.054.388.065.578.025.941.83 2.41 1.134 4.116.94 1.254-.142 2.825-.572 4.218-1.235.891-.425 1.598-.934 2.473-1.565 1.492-1.076 2.726-2.309 3.641-3.567.113.059.231.124.349.185zM54.347 228.855l2.97-5.8 2.773 1.449-2.97 5.8a1.64 1.64 0 01-.93.811 1.521 1.521 0 01-1.198-.086 1.54 1.54 0 01-.762-.937 1.68 1.68 0 01.117-1.237zm3.106-5.339l-2.811 5.493a1.32 1.32 0 00-.092.974c.092.311.3.582.6.739.3.156.64.171.944.067.304-.103.573-.325.734-.64l2.812-5.492-2.187-1.141z" fill="#C5C6D1"/><path d="M57.279 221.641l-3.834 7.404a2.241 2.241 0 00.958 3.011 2.242 2.242 0 003.011-.959l3.695-7.146c.129.064.247.116.363.152l-3.709 7.175a2.635 2.635 0 01-3.54 1.127 2.634 2.634 0 01-1.127-3.54l3.86-7.378.323.154z" fill="#C5C6D1"/><path d="M55.894 232.591a2.242 2.242 0 002.746-1.074l3.644-7.049c.122.053.25.093.383.117l-3.677 7.112c-.782 1.511-2.779 1.884-4.05.783.308.137.624.218.954.111z" fill="#C5C6D1"/><path d="M57.004 221.948l5.313 2.75.18-.348-5.313-2.749-.18.347zm1.244 10.246l6.292 3.195-.192.351-6.278-3.197.178-.349z" fill="#C5C6D1"/><path d="M53.28 231.384l-1.577 3.003 10.183 5.116 2.208-4.116.345.183-2.388 4.454-10.88-5.465 1.762-3.356.347.181z" fill="#C5C6D1"/><path d="M51.495 234.32l-.776-.401-3.86 7.428 11.429 5.748 3.708-7.172-.042-.478.39-.036.053.594-3.938 7.616-12.13-6.101c1.409-2.709 2.815-5.419 4.224-8.129l1.123.581-.181.35z" fill="#C5C6D1"/><path d="M46.694 241.6c-.762.456-1.525.913-2.149 1.477-.311.281-.59.59-.845.908-.257.32-.492.65-.71.968-.22.317-.422.62-.632.99-.21.367-.427.803-.678 1.385a17.275 17.275 0 00-.833 2.347c-.162.617-.265 1.222-.247 1.728.02.571.197 1.016.441 1.368.247.357.565.624.858.833.294.208.562.355.819.45.25.093.49.136.73.138a2.48 2.48 0 00.748-.116c.26-.08.526-.2.798-.356.298-.171.6-.382.923-.609.299-.208.615-.43.959-.643.369-.229.767-.448 1.198-.664.428-.215.894-.43 1.4-.651a29.228 29.228 0 011.587-.645 14.708 14.708 0 011.618-.504 8.895 8.895 0 011.4-.218 7.07 7.07 0 011.324.025c.378.045.71.122 1.003.211.292.09.543.194.755.297.22.107.402.213.543.339a.92.92 0 01.3.51c.04.193.025.418-.04.68a5.336 5.336 0 01-.313.846 9.747 9.747 0 01-1.375 2.208 10.29 10.29 0 01-1.062 1.086 6.68 6.68 0 01-1.073.791c-.667.377-1.094.336-1.519.294l-.176-.194.023-.213.191.017c.365.035.729.07 1.29-.245.297-.168.65-.43 1.005-.743a9.795 9.795 0 001.021-1.045 9.418 9.418 0 001.32-2.119c.135-.299.233-.558.29-.781.05-.205.064-.371.037-.503a.539.539 0 00-.18-.299 1.907 1.907 0 00-.451-.278 4.777 4.777 0 00-.7-.276 5.321 5.321 0 00-.934-.196 6.777 6.777 0 00-1.248-.024 8.468 8.468 0 00-1.336.209c-.503.121-1.04.293-1.573.491a29.5 29.5 0 00-1.568.636 28.63 28.63 0 00-1.38.643 15.01 15.01 0 00-1.169.646c-.339.21-.648.426-.94.63a13.12 13.12 0 01-.952.628 4.38 4.38 0 01-.877.391c-.293.09-.582.136-.868.133a2.486 2.486 0 01-.864-.161 3.956 3.956 0 01-.908-.498 3.797 3.797 0 01-.954-.931 2.88 2.88 0 01-.51-1.577c-.02-.545.089-1.19.26-1.842.226-.856.56-1.726.851-2.403.256-.592.48-1.04.698-1.422.216-.38.425-.693.65-1.017.222-.324.462-.661.728-.992.267-.333.56-.658.887-.953.653-.59 1.432-1.057 2.211-1.523l.198.338z" fill="#C5C6D1"/><path d="M57.618 251.179l.283-1.916c.079-.536.176-1.213.274-1.895l.005-.039.388.055-.006.039a973.14 973.14 0 01-.556 3.814l-.388-.058zm-15.244-1.649a1.936 1.936 0 00-1.26 2.436 1.936 1.936 0 002.436 1.26 1.935 1.935 0 001.26-2.437 1.938 1.938 0 00-2.437-1.259zm-1.484.777a2.33 2.33 0 013.144-1.001c.572.295.97.796 1.15 1.365a2.324 2.324 0 01-.15 1.778c-.296.572-.795.97-1.364 1.151a2.325 2.325 0 01-1.779-.15 2.326 2.326 0 01-1.151-1.365 2.326 2.326 0 01.15-1.778zm3.225 32.356l-42.12-34.162-1.49 2.598 41.93 34.233 13.273 2.079 1.311-2.468-12.864-2.247-.04-.033zM2.063 248.052l42.258 34.275 13.298 2.323-1.697 3.19c-4.552-.711-9.103-1.425-13.653-2.139A113934.383 113934.383 0 010 251.193l1.884-3.286.179.145z" fill="#C5C6D1"/><path d="M44.073 282.404c.343-.528.686-1.056 1.027-1.552.344-.5.685-.961 1.016-1.346.34-.395.672-.715 1.037-.976a4.588 4.588 0 011.227-.622 9.051 9.051 0 011.563-.35 32.673 32.673 0 011.946-.206 140.295 140.295 0 014.227-.278c.546-.027.928-.039 1.208-.037.29.002.484.018.643.047a.95.95 0 01.426.171c.115.09.204.21.285.385.074.153.145.352.21.575a8.4 8.4 0 01.173.74 5.397 5.397 0 01.073 1.684 8.74 8.74 0 01-.558 2.203c-.297.737-.694 1.399-.893 1.729l-.197.327-.335-.202.195-.327c.195-.323.583-.969.867-1.673a8.436 8.436 0 00.531-2.099 5.091 5.091 0 00-.07-1.569 7.578 7.578 0 00-.165-.703 3.728 3.728 0 00-.185-.516.633.633 0 00-.171-.243.602.602 0 00-.259-.096 3.407 3.407 0 00-.574-.039c-.28-.002-.656.01-1.187.035a133.545 133.545 0 00-4.215.276c-.707.059-1.346.121-1.92.204a8.543 8.543 0 00-1.493.334 4.21 4.21 0 00-1.124.57c-.338.242-.65.542-.97.913-.326.38-.658.83-.99 1.313-.336.488-.678 1.016-1.02 1.542l-.328-.214z" fill="#C5C6D1"/><path d="M58.15 277.562c-1.065-.965-2.13-1.93-2.705-2.434-.27-.235-.423-.363-.596-.421-.178-.061-.413-.062-.849-.044-.457.019-1.122.058-1.804.101-.662.042-1.373.091-1.915.128-.53.037-.888.062-1.19.097-.3.034-.551.079-.876.156-.358.084-.804.207-1.261.361-.37.125-.748.271-1.093.432a6.759 6.759 0 00-1.041.602 7.5 7.5 0 00-.896.75c-.25.245-.498.515-.73.787a17.83 17.83 0 00-.774.972c-.39.525-.623.892-.856 1.258l-.002.004-.082-.053-.251-.153.003-.003a18.841 18.841 0 011.663-2.28c.234-.274.489-.551.755-.81a7.242 7.242 0 012.043-1.428c.359-.168.751-.319 1.136-.449.47-.158.928-.286 1.298-.371.338-.08.602-.127.92-.164.315-.036.674-.062 1.205-.098.52-.036 1.212-.084 1.92-.128a89.31 89.31 0 011.813-.102c.482-.019.75-.016.987.064.245.081.423.229.73.498.578.507 1.643 1.472 2.708 2.439l-.26.289zM1.795 248.073c.456-.505.913-1.009 1.335-1.458.43-.457.84-.874 1.213-1.212.375-.34.707-.594 1.05-.782a3.543 3.543 0 011.12-.39c.577-.104 1.262-.117 1.986-.129.304-.005.615-.011.91-.022.375-.014.774-.041 1.177-.068.662-.044 1.34-.089 2.063-.086.58.001 1.182.036 1.959.27.77.232 1.708.659 2.964 1.449 2.491 1.566 6.586 4.822 10.35 7.82l-.108.06-.195.098-.155-.008c-3.755-2.99-7.627-6.083-10.101-7.638-1.226-.77-2.133-1.186-2.87-1.407-.729-.22-1.296-.252-1.847-.254a28.778 28.778 0 00-2.035.086c-.392.027-.78.052-1.186.068-.32.013-.623.018-.92.023-.71.013-1.38.025-1.922.122a3.199 3.199 0 00-1.001.348c-.314.173-.623.41-.976.729-.357.323-.761.735-1.19 1.191-.438.465-.884.959-1.33 1.452l-.291-.262z" fill="#C5C6D1"/><path d="M6.516 251.956c.179-.313.358-.625.565-.932.213-.315.456-.628.762-.941a8.6 8.6 0 011.013-.866 11.1 11.1 0 011.22-.785 8.172 8.172 0 011.132-.521c.37-.134.733-.231 1.103-.297a8.606 8.606 0 011.183-.118 45.86 45.86 0 011.61-.02c.654-.001 1.45.001 2.319.002l2.748.006-.001.392-2.748-.006c-.868-.002-1.665-.002-2.319-.002-.652.001-1.162.002-1.593.02-.427.017-.782.05-1.13.112a6.162 6.162 0 00-1.037.28c-.35.127-.706.29-1.077.496-.389.214-.795.474-1.176.755a7.964 7.964 0 00-.966.828 6.129 6.129 0 00-.715.883c-.206.305-.379.606-.553.909l-.34-.195z" fill="#C5C6D1"/><path d="M13.6 247.844l33.234 27.616.252-.302-33.234-27.617-.251.303z" fill="#C5C6D1"/><path d="M22.644 254.966h.003c1.945-.666 3.89-1.332 5.9-1.703a25.375 25.375 0 012.64-.334 32.952 32.952 0 012.904-.088c.734.01 1.317.042 1.813.092.501.049.912.115 1.3.188.423.081.803.169 1.124.243.288.066.53.122.686.149.24.04.279-.002.41-.176l.906-1.202.314.236-.895 1.188c-.256.339-.316.421-.8.34-.184-.031-.424-.087-.71-.152a28.865 28.865 0 00-1.11-.24c-.38-.073-.782-.137-1.264-.184a21.06 21.06 0 00-1.78-.09 32.193 32.193 0 00-2.87.088c-.838.064-1.723.167-2.597.328-1.981.365-3.913 1.027-5.845 1.688l-.001.001-.128-.372zm13.429 11.195c1.438-.76 2.876-1.52 4.47-2.097.748-.27 1.523-.498 2.29-.688a29.042 29.042 0 012.528-.503c.74-.113 1.424-.188 2.047-.225a12.393 12.393 0 011.706 0c.47.035.878.104 1.226.164.354.06.64.109.85.094a.574.574 0 00.403-.187c.13-.135.252-.348.405-.644.154-.299.33-.66.497-1.019a42.7 42.7 0 00.527-1.173c.13-.304.216-.525.269-.695a.965.965 0 00.06-.337c-.008-.115-.068-.221-.16-.381a6.428 6.428 0 01-.119-.213 23.798 23.798 0 01-.609-1.293l-.002-.005.357-.163.002.006c.218.483.434.965.597 1.272.037.068.078.139.113.201.12.208.198.345.212.553.008.132-.014.279-.076.478a7.907 7.907 0 01-.284.732 43.04 43.04 0 01-1.036 2.218c-.168.324-.307.563-.47.733a.942.942 0 01-.658.308c-.254.018-.562-.034-.945-.099a12.339 12.339 0 00-1.189-.159 12.258 12.258 0 00-1.651 0c-.608.037-1.281.11-2.014.222-.787.122-1.638.285-2.494.496a22.79 22.79 0 00-2.25.674c-1.557.565-2.988 1.321-4.419 2.076l-.183-.346zm8.3-.133l10.606 8.322-.241.309-10.972-8.635.608.004z" fill="#C5C6D1"/><path d="M37.978 267.737l.002-.003c1.07-.512 2.14-1.027 3.075-1.348.469-.16.904-.271 1.334-.355.43-.084.85-.139 1.291-.188v-.001a41.724 41.724 0 012.691-.206c.414-.016.786-.022 1.132-.018a17.545 17.545 0 011.87.118c.285.034.54.069.76.101.228.034.427.066.615.106.19.042.369.091.561.161.371.134.768.34 1.163.545l.001-.002v.001l-.18.349v-.001c-.385-.2-.77-.398-1.117-.525a3.9 3.9 0 00-.51-.145 9.858 9.858 0 00-.59-.102 28.233 28.233 0 00-.75-.099 17.369 17.369 0 00-2.94-.097c-.409.015-.858.042-1.312.077-.44.034-.9.077-1.35.127-.437.048-.848.102-1.26.183-.41.08-.829.187-1.283.342-.91.312-1.971.822-3.031 1.331l-.054-.11-.118-.241z" fill="#C5C6D1"/><path d="M52.251 267.535v-.004c-.046-.594-.092-1.189-.294-1.906a12.693 12.693 0 00-.403-1.167 52.425 52.425 0 00-.53-1.28l.361-.152c.185.438.37.875.533 1.289.166.424.312.831.417 1.204.21.752.26 1.365.307 1.979v.004l-.143.011-.248.022z" fill="#C5C6D1"/><path d="M55.11 274.662c.277-.709.552-1.419.66-2.091.051-.312.066-.618.055-.903a4.183 4.183 0 00-.123-.876 2.335 2.335 0 00-.243-.615 3.33 3.33 0 00-.448-.588 9.994 9.994 0 00-.732-.71 9.24 9.24 0 00-.76-.61 3.952 3.952 0 00-1.134-.558 3.617 3.617 0 00-.505-.143 1.695 1.695 0 00-.55-.013 3.106 3.106 0 00-.671.185 7.479 7.479 0 00-.861.402c-.571.309-1.165.7-1.759 1.09l-.216-.326v-.001c.6-.395 1.2-.789 1.79-1.108.308-.166.614-.313.906-.424a3.48 3.48 0 01.757-.207 2.06 2.06 0 01.675.016c.203.038.382.096.56.155.176.06.354.122.559.216.201.094.42.216.673.394.247.174.526.398.794.635.277.245.545.507.76.739.216.235.377.443.5.659.127.219.215.445.284.712a4.93 4.93 0 01.076 1.94c-.116.713-.4 1.444-.685 2.176l-.002.007-.201-.086-.161-.063.002-.004z" fill="#C5C6D1"/><path d="M50.817 271.324c.173-.204.348-.406.54-.61.19-.198.383-.384.59-.541.212-.162.438-.295.668-.395a2.45 2.45 0 01.693-.186 2.148 2.148 0 011.28.271c.18.103.332.231.46.38.128.148.233.317.318.507.083.185.148.392.195.611.047.219.075.452.084.687a4.933 4.933 0 01-.16 1.395c-.115.425-.282.785-.45 1.144l-.354-.166c.158-.342.317-.682.425-1.082a4.461 4.461 0 00.146-1.279 3.503 3.503 0 00-.074-.617 2.622 2.622 0 00-.17-.533 1.702 1.702 0 00-.258-.412 1.387 1.387 0 00-.358-.297 1.724 1.724 0 00-1.044-.221 2.065 2.065 0 00-.579.157 2.8 2.8 0 00-.584.347 4.52 4.52 0 00-.543.499 14.8 14.8 0 00-.526.595l-.3-.254zm-4.077-18.335c-.123.25-.245.5-.354.763a4.068 4.068 0 00-.239.748c-.05.248-.067.498-.043.786.025.294.09.629.205 1.036.11.392.264.849.432 1.307.192.518.398 1.027.578 1.434.172.384.325.687.466.937a5.615 5.615 0 00.678.965c.11.122.207.217.29.288.146.124.245.176.345.228l-.18.348a1.884 1.884 0 01-.418-.277 3.38 3.38 0 01-.329-.326 5.164 5.164 0 01-.325-.403 6.215 6.215 0 01-.402-.63 11.17 11.17 0 01-.48-.971c-.19-.426-.4-.944-.59-1.457-.172-.465-.33-.935-.443-1.337a5.909 5.909 0 01-.217-1.111 3.08 3.08 0 01.049-.895c.056-.279.15-.552.261-.822.106-.255.234-.519.364-.783l.351.172z" fill="#C5C6D1"/><path d="M44.287 259.658l.004.002c.7.403 1.401.808 1.974 1.096.283.143.537.259.776.352.236.092.454.16.67.209.214.048.426.078.651.087.223.011.461 0 .723-.03.289-.034.605-.093.903-.187.246-.076.48-.176.68-.304.217-.14.397-.318.558-.519a5.35 5.35 0 00.446-.677v-.002a9.2 9.2 0 00.386-.743 4.62 4.62 0 00.267-.724c.06-.231.091-.453.106-.673a9.3 9.3 0 00.013-.665l.392-.002c0 .23.001.459-.014.693-.015.241-.05.487-.118.748a4.984 4.984 0 01-.29.786 9.609 9.609 0 01-.401.776 5.82 5.82 0 01-.48.727 2.718 2.718 0 01-.654.604 3.224 3.224 0 01-.772.349 5.423 5.423 0 01-.976.202c-.282.033-.54.044-.786.033a4.01 4.01 0 01-.72-.097 4.995 4.995 0 01-.725-.225 9.007 9.007 0 01-.811-.369 44.895 44.895 0 01-1.992-1.106l-.003-.002.193-.339z" fill="#C5C6D1"/><path d="M39.158 253.618c.294.594.589 1.186 1.032 1.86a13.658 13.658 0 001.74 2.139c.353.353.74.7 1.142 1.041.411.35.825.683 1.24 1.018l-.246.304c-.425-.342-.849-.683-1.247-1.022-.406-.344-.8-.697-1.166-1.064a14.173 14.173 0 01-1.791-2.199c-.455-.692-.755-1.296-1.056-1.901l.352-.176zM138.443 61.26l28.38 14.612a1.215 1.215 0 00-.466.26L137.652 61.37c.215.01.561.016.791-.108zm-.598-24.268l7.785-3.414 5.907 4.31 25.698 13.223c-.093.117-.165.25-.212.39l-25.64-13.192-5.764-4.197-7.874 3.45c.082-.12.064-.42.1-.57z" fill="#C5C6D1"/><path d="M158.787 41.859c.333.992.473 2.194.424 3.537-.106 2.872-1.079 6.41-2.89 9.93-1.812 3.52-4.125 6.367-6.401 8.123-1.419 1.097-2.831 1.77-4.106 1.925a1.489 1.489 0 00-.371-.413c1.269-.056 2.725-.719 4.207-1.862 2.226-1.718 4.493-4.512 6.276-7.977 1.783-3.464 2.738-6.934 2.842-9.742.054-1.457-.121-2.732-.528-3.728.167.081.363.173.547.207z" fill="#C5C6D1"/><path d="M156.662 40.643c.371 1.02.527 2.275.475 3.686-.106 2.872-1.077 6.41-2.889 9.93-1.812 3.52-4.125 6.367-6.4 8.123-1.43 1.103-2.849 1.778-4.132 1.928a1.295 1.295 0 00-.427-.359l-.102-.053c1.311.003 2.836-.667 4.391-1.866 2.224-1.717 4.493-4.512 6.275-7.976 1.783-3.464 2.738-6.934 2.842-9.743.055-1.505-.132-2.814-.567-3.824.113.048.214.082.299.097l.235.057zm20.368 10.363c1.15.493 1.557.755 2.224 1.139 1.657.971 2.363 2.763 2.157 5.566-.202 2.748-1.106 6.164-3.002 9.43-.018.035-.043.07-.061.105-1.926 3.286-4.325 5.886-6.646 7.432-1.999 1.333-3.951 1.889-5.516 1.443.113-.112.205-.245.27-.388 1.411.332 3.174-.206 5.001-1.424 4.888-3.256 9.081-10.763 9.511-16.63.14-1.918-.106-4.07-1.95-5.158-.54-.313-.927-.55-2.058-1.05.003-.152.124-.325.07-.465zm-25.536-13.028c.504 1.136.677 2.623.536 4.327-.519 6.179-5.042 14.045-10.122 17.6-.922.644-1.833 1.124-2.699 1.415-.26.087-3.749.369-4 .421a1.916 1.916 0 00-.444-.37c.209-.03 3.656-.284 3.874-.342.947-.25 1.969-.758 3.014-1.489 4.974-3.48 9.428-11.226 9.935-17.274.155-1.857-.075-3.433-.709-4.53.195.119.405.2.615.242z" fill="#C5C6D1"/><path d="M145.583 33.504c.804 1.254 1.159 2.961 1.078 4.94-.119 2.87-1.158 6.323-3.073 9.777-.289.524-.594 1.04-.915 1.546-2.378 3.766-5.353 6.725-8.239 8.466-2.923 1.764-5.769 2.28-7.841 1.132a4.506 4.506 0 01-.226-.133c-1.821-1.15-2.65-3.48-2.529-6.398.022-.538.077-1.098.164-1.673.113.098.249.18.412.245-.069.496-.113.98-.133 1.447-.114 2.757.646 4.944 2.322 6.003.074.047.142.087.204.121 1.923 1.066 4.61.56 7.399-1.123 2.828-1.706 5.749-4.615 8.09-8.323.325-.514.627-1.022.904-1.522 1.88-3.393 2.9-6.777 3.016-9.583.078-1.87-.247-3.476-.986-4.648.136-.07.255-.164.353-.274zm-18.142 2.732c-.918.834-1.773 2.07-2.349 3.51a9.605 9.605 0 00-.513 1.708c-.191.97-.184 1.847.006 2.531.18.65.525 1.119 1.02 1.316.083.034.171.06.262.077.774.153 1.711-.272 2.601-1.08.919-.834 1.774-2.07 2.35-3.51a9.706 9.706 0 00.513-1.707c.191-.972.183-1.847-.006-2.532-.18-.649-.525-1.118-1.02-1.316a1.462 1.462 0 00-.262-.077c-.774-.153-1.712.272-2.602 1.08zm-2.761 3.345c.601-1.503 1.498-2.797 2.462-3.672.992-.901 2.066-1.368 2.987-1.187.12.024.233.057.341.1.632.253 1.065.826 1.282 1.61.207.747.217 1.694.012 2.735-.113.573-.29 1.174-.535 1.786-.602 1.502-1.498 2.797-2.463 3.673-.992.9-2.067 1.367-2.987 1.186a1.907 1.907 0 01-.34-.1c-.632-.253-1.065-.826-1.283-1.61-.207-.747-.216-1.694-.012-2.735.114-.573.291-1.174.536-1.786z" fill="#C5C6D1"/><path d="M128.194 35.29c1.284-1.146 2.664-1.738 3.844-1.505 1.141.224 1.8 1.142 2.099 2.217.272.982.284 2.228.014 3.598-.513 2.61-1.995 5.423-3.957 7.206-1.301 1.18-2.704 1.794-3.903 1.557-1.14-.224-1.8-1.141-2.098-2.217-.232-.834-.257-1.757-.158-2.67.069.244.192.461.396.63-.028.66.022 1.318.19 1.922.251.905.789 1.711 1.757 1.902 1.052.206 2.319-.363 3.517-1.452 1.892-1.718 3.327-4.447 3.822-6.965.256-1.3.247-2.475-.009-3.394-.251-.905-.788-1.71-1.756-1.901-.813-.16-1.752.143-2.691.79-.365-.005-.743.122-1.067.282z" fill="#C5C6D1"/><path d="M123.179 39.943c1.149-2.947 2.931-5.453 4.882-7.123 1.416-1.213 2.926-1.989 4.358-2.18.073.144.185.302.304.412-1.412.116-2.936.875-4.372 2.104-2.764 2.366-4.803 6.092-5.585 9.649-.472 2.148-.459 4.124-.01 5.683.453 1.57 1.421 2.932 3.084 3.299 1.73.38 3.753-.422 5.627-2.026 2.763-2.367 4.801-6.092 5.584-9.649.473-2.149.46-4.124.011-5.684-.386-1.336-1.092-2.363-2.087-2.92a2.01 2.01 0 00.385-.288c1.012.633 1.731 1.71 2.128 3.086.469 1.629.485 3.68-.004 5.902-.803 3.648-2.893 7.462-5.727 9.89-1.978 1.693-4.138 2.534-6.012 2.123-1.828-.403-2.915-1.876-3.415-3.609-.47-1.629-.485-3.68.003-5.902.199-.9.479-1.827.846-2.767z" fill="#C5C6D1"/><path d="M140.076 12.456l5.1-9.912A4.71 4.71 0 01151.5.517a4.708 4.708 0 012.026 6.323l-15.597 30.325-.343-.125c-.009-.206.084-.013-.014-.191l.288-.536 15.271-29.676a4.263 4.263 0 00-1.834-5.724 4.264 4.264 0 00-5.725 1.835l-4.823 9.374c-.056.025-.11.053-.163.085-.123.075-.292.107-.51.249z" fill="#C5C6D1"/><path d="M129.419 31.952l9.476-18.414a3.575 3.575 0 014.802-1.539 3.576 3.576 0 011.539 4.802l-8.392 16.309a1.248 1.248 0 00-.311-.367l8.308-16.145a3.132 3.132 0 00-1.347-4.203 3.132 3.132 0 00-4.204 1.347l-9.311 18.093a1.321 1.321 0 00-.56.117z" fill="#C5C6D1"/><path d="M132.237 28.814l1.461-2.84 3.717 1.913-1.461 2.84a2.086 2.086 0 01-1.221 1.031 2.084 2.084 0 01-2.625-1.35 2.08 2.08 0 01.129-1.594zm1.653-2.24l-1.258 2.443a1.64 1.64 0 00-.102 1.255 1.644 1.644 0 003.028.25l1.258-2.443-2.926-1.506zm19.538-24.008c.719-.154 1.907 1.92 3.182 2.345 2.254.751 4.843.23 6.036.843 3.94 2.028 5.504 6.91 3.477 10.85L154.382 39.42a1.279 1.279 0 00-.37-.253L165.727 16.4c1.916-3.722.438-8.336-3.285-10.251-1.1-.566-3.629-.012-5.817-.768-1.267-.438-2.439-2.53-3.103-2.382a1.211 1.211 0 00-.094-.434zm-14.786 32.228l11.967-23.256c.135.068.281.115.431.134l-11.945 23.213a1.133 1.133 0 00-.453-.091z" fill="#C5C6D1"/><path d="M158.102 31.737c1.989 1.192 3.98 2.384 5.747 3.437a561.72 561.72 0 004.62 2.731c1.232.718 2.081 1.196 2.694 1.532.588.322 2.385 1.248 2.684 1.401.468.241.629.323.824.123.142-.147.315-.398.553-.813.248-.431.56-1.026.973-1.848a225.89 225.89 0 002.737-5.686c.333-.726.408-.873.516-1.178.097-.276-.082-.803-.386-1.24-.204-.293-.513-.546-.641-.653a1.105 1.105 0 00-.287-.165 2.843 2.843 0 00-.407-.13c-.133-.033-.25-.057-.368-.082a7.174 7.174 0 01-.61-.147c-.164-.051-.654-.287-.801-.365-.15-.08-.455-.26-.582-.371a4.046 4.046 0 01-.241-.236c-.136-.139-.274-.281-.438-.378a1.405 1.405 0 00-.438-.157c-.179-.035-.503-.108-.752-.108-.194.002-.493-.046-.686-.038-.387.02-.738.068-1.093.03a2.423 2.423 0 01-.755-.204 3.769 3.769 0 01-.681-.418c-.266-.198-.452-.392-.731-.627h-.001c-.194-.163-.379-.32-.537-.444-.184-.144-.217-.186-.345-.254a1.464 1.464 0 00-.371-.138 3.23 3.23 0 00-.461-.067 8.44 8.44 0 00-.565-.023h-.147c-.386-.003-.697.052-1.134-.055a4.22 4.22 0 01-.747-.269c-.264-.12-.526-.253-.821-.406l-2.063-1.061.203-.395 2.063 1.061c.302.155.568.292.8.397.237.108.456.19.673.244.381.093.667.038 1.03.04l.147.002c.217.003.418.01.597.024.191.015.367.04.527.077.166.038.315.092.477.178.157.083.21.138.411.296.163.127.352.287.551.454.272.23.45.417.712.611.213.16.406.283.599.37.19.087.387.141.619.166.313.035.648-.014 1.022-.031h.001c.215-.01.537.037.706.036.273 0 .625.075.838.117.221.043.411.111.577.209.214.126.375.29.531.451.07.073.141.145.216.211.104.091.38.252.497.315.118.062.583.287.726.331.184.058.378.099.571.139.137.028.274.057.383.084.167.042.327.091.471.15.151.064.288.141.401.236.095.081.412.377.653.734.367.542.669 1.207.62 1.342-.112.316-.308.78-.646 1.52a212.225 212.225 0 01-2.746 5.7 39.901 39.901 0 01-.982 1.868c-.258.45-.452.728-.62.901-.426.438-.659.318-1.345-.035-.277-.143-2.046-1.053-2.693-1.408-.624-.342-1.481-.825-2.704-1.537a586.041 586.041 0 01-4.624-2.733 3621.74 3621.74 0 01-5.748-3.437l.227-.38z" fill="#C5C6D1"/><path d="M177.145 51.116c.765-.129 1.529-.257 2.235-.402.691-.14 1.315-.295 1.801-.474.472-.173.811-.37 1.114-.647.309-.28.59-.65.936-1.163.37-.552.811-1.26 1.294-2.097a60.65 60.65 0 001.397-2.572c.51-.99 1.011-2.02 1.535-3.094a188.78 188.78 0 011.841-3.708c.607-1.18 1.277-2.42 1.883-3.541a107.607 107.607 0 001.478-2.788c.37-.74.59-1.255.719-1.665a3.59 3.59 0 00.176-1 7.69 7.69 0 00-.037-.983 18.145 18.145 0 00-.136-1.021 9.372 9.372 0 00-.19-.955 2.681 2.681 0 00-.311-.754 2.076 2.076 0 00-.513-.532 6.203 6.203 0 00-.704-.437c-.26-.145-.529-.288-.808-.434a161.62 161.62 0 00-.892-.46c-.613-.316-1.29-.665-1.92-.79-.501-.1-.994-.064-1.425-.031-.113.008-.223.016-.326.021a4.61 4.61 0 01-.733-.011 3.387 3.387 0 01-.668-.138c-.224-.07-.446-.163-.802-.312a57.142 57.142 0 00-1.406-.572c-.482-.189-1.119-.43-1.864-.714a333.77 333.77 0 01-4.593-1.772c-2.861-1.132-6.223-2.525-9.586-3.918l.062-.149.103-.263.005.002c3.393 1.406 6.787 2.811 9.58 3.916 1.759.697 3.33 1.293 4.587 1.77.728.277 1.349.512 1.868.716.666.26 1.098.441 1.416.576.343.144.559.233.763.297.192.06.38.099.58.12.203.02.42.023.665.01.102-.005.207-.013.316-.021.46-.034.986-.074 1.545.037.693.139 1.398.502 2.037.83a87.19 87.19 0 011.708.902 6.5 6.5 0 01.757.47c.239.18.453.387.619.646.165.256.281.555.368.88.085.314.145.653.199 1 .056.346.106.699.139 1.048.035.353.051.703.039 1.044a3.957 3.957 0 01-.195 1.116c-.135.427-.363.963-.747 1.73-.375.75-.899 1.719-1.484 2.8-.586 1.085-1.235 2.284-1.879 3.533a189.82 189.82 0 00-1.837 3.7c-.542 1.112-1.06 2.176-1.538 3.104a60.818 60.818 0 01-1.408 2.588 37.265 37.265 0 01-1.31 2.123c-.363.54-.663.934-1.006 1.245-.348.317-.733.541-1.259.735-.508.188-1.153.347-1.865.493-.698.142-1.474.273-2.249.404l-.074-.438zM150.48 30.429c-.272.002-.447-.057-.587-.205-.125-.132-.201-.327-.246-.57a5.23 5.23 0 01-.066-.76c-.008-.278-.008-.59.011-.985.018-.386.053-.848.117-1.433a63.479 63.479 0 01.653-4.378c.125-.682.261-1.354.394-1.97.173-.805.343-1.533.471-2.065.111-.46.192-.769.253-.988.063-.223.105-.355.144-.46a.863.863 0 01.172-.317c.081-.092.195-.172.383-.265a9.7 9.7 0 011.314-.493c.206-.058.355-.084.478-.078.16.01.269.066.37.168.083.085.157.203.221.376.058.155.11.363.156.646.07.42.129 1.01.205 1.756l.071.7a106.082 106.082 0 00.457 3.799c.119.855.257 1.75.374 2.522.072.463.135.878.191 1.257.065.45.103.76.124.988.022.235.026.378.023.49a.875.875 0 01-.07.351 1.061 1.061 0 01-.248.326 2.706 2.706 0 01-.52.397 4.842 4.842 0 01-.991.431 15.34 15.34 0 01-1.488.374 43.3 43.3 0 01-1.448.27c-.412.068-.702.114-.918.116zm-.264-.51c.046.048.124.067.26.066.189-.002.461-.044.848-.11a41.5 41.5 0 001.434-.268c.515-.107 1.034-.23 1.44-.36a4.4 4.4 0 00.899-.39c.209-.125.344-.24.438-.331a.68.68 0 00.154-.193.508.508 0 00.03-.183 3.763 3.763 0 00-.02-.436c-.02-.212-.057-.513-.123-.964-.045-.313-.114-.759-.19-1.254a168.66 168.66 0 01-.375-2.527 103.04 103.04 0 01-.26-2.03c-.073-.617-.139-1.226-.198-1.786l-.07-.7c-.075-.738-.134-1.322-.201-1.73a3.3 3.3 0 00-.136-.563.63.63 0 00-.121-.22.109.109 0 00-.078-.035 1.147 1.147 0 00-.333.062 9.028 9.028 0 00-1.24.463.826.826 0 00-.247.16.535.535 0 00-.086.175 5.59 5.59 0 00-.134.429c-.06.213-.139.516-.249.973-.123.513-.29 1.228-.468 2.055a73.598 73.598 0 00-.392 1.957 69.793 69.793 0 00-.372 2.236 52.99 52.99 0 00-.276 2.11 22.136 22.136 0 00-.115 1.404c-.017.373-.017.677-.009.953.008.268.023.505.058.692.03.16.071.28.132.345zm5.148-25.699l.002.017h-.002c.272 3.92.457 6.56.602 8.945.027.442.05.84.07 1.196.094 1.608.138 2.387.275 2.863.076.265.18.433.303.554.127.123.287.207.46.292.182.089.386.18.622.281a44.54 44.54 0 001.794.7c.28.102.549.196.77.266.205.065.349.104.439.086.065-.013.123-.077.192-.22h.001c.096-.196.194-.508.288-.865.096-.368.186-.78.269-1.171.082-.387.156-.756.223-1.141.066-.373.124-.757.178-1.184.051-.413.095-.854.132-1.304.041-.495.075-1.012.103-1.527.025-.49.046-.982.052-1.454.008-.467.002-.91-.024-1.306a8.54 8.54 0 00-.132-1.058 5.863 5.863 0 00-.219-.83 3.81 3.81 0 00-.285-.64 2.685 2.685 0 00-.369-.503c-.288-.313-.378-.375-.759-.645l.003.002.59.109.163-.082c.398.283.009-.032.329.315.163.178.304.37.427.586.123.212.228.448.319.713.092.265.173.56.236.892.064.33.111.698.138 1.114.027.412.034.866.027 1.342a52.685 52.685 0 01-.158 3.011c-.039.47-.083.918-.133 1.322-.052.425-.113.819-.181 1.207a34 34 0 01-.227 1.155 27.5 27.5 0 01-.274 1.192c-.1.383-.207.721-.319.948-.138.282-.291.417-.505.459-.188.037-.389-.014-.659-.098-.214-.069-.49-.165-.786-.273a47.004 47.004 0 01-1.025-.387 30.535 30.535 0 01-.793-.321c-.23-.098-.44-.192-.641-.29-.209-.102-.401-.205-.575-.373-.177-.171-.32-.401-.42-.748-.151-.525-.197-1.32-.292-2.96l-.071-1.197c-.153-2.53-.355-5.474-.621-9.318h-.001l-.001-.018.465.345zM139.347 17.7a.236.236 0 00.102.317l1.927.99a.237.237 0 00.318-.101.233.233 0 00.014-.18.234.234 0 00-.116-.138l-1.927-.991a.237.237 0 00-.318.102zm-.396-.205a.677.677 0 01.398-.335h.001a.679.679 0 01.518.041l1.927.991a.68.68 0 01.336.398h.001a.68.68 0 01-.96.813l-1.926-.991a.681.681 0 01-.337-.398h.001a.677.677 0 01.041-.52zm1.369-1.656a.236.236 0 00.103.317l1.926.991a.236.236 0 00.215-.42l-1.926-.991a.236.236 0 00-.318.103zm-.396-.204a.681.681 0 01.917-.294l1.926.99a.677.677 0 01.336.398h.001a.678.678 0 01-.44.855.678.678 0 01-.519-.042l-1.927-.99a.68.68 0 01-.336-.399.675.675 0 01.042-.518zm-1.586 4.025a.227.227 0 00-.014.179.234.234 0 00.116.138l1.927.99a.236.236 0 00.216-.419l-1.927-.99a.233.233 0 00-.18-.015.234.234 0 00-.138.116zm-.396-.204a.681.681 0 01.398-.336h.001a.68.68 0 01.518.042l1.927.991a.68.68 0 01.336.397h.001a.683.683 0 01-.44.857.679.679 0 01-.519-.043l-1.927-.99a.678.678 0 01-.337-.399h.001a.682.682 0 01.041-.52z" fill="#C5C6D1"/><path d="M156.372 6.816a.236.236 0 00.102.318l4.583 2.358c.058.03.123.033.179.015a.238.238 0 00.153-.297.23.23 0 00-.117-.137l-4.583-2.359a.234.234 0 00-.317.102zm-.396-.203a.678.678 0 01.398-.336h.001a.676.676 0 01.517.041l4.583 2.359a.678.678 0 01.335.398h.001a.681.681 0 01-.44.856l-.001-.001a.679.679 0 01-.518-.042L156.27 7.53a.67.67 0 01-.335-.398h-.001a.685.685 0 01.042-.52zm.552 2.48a.238.238 0 00.102.318l4.398 2.263c.057.03.122.033.18.014a.233.233 0 00.137-.117.231.231 0 00.015-.18.239.239 0 00-.117-.137l-4.397-2.263a.236.236 0 00-.318.102zm-.395-.203a.682.682 0 01.916-.294l4.398 2.263a.68.68 0 01-.104 1.253.682.682 0 01-.519-.042l-4.397-2.263a.682.682 0 01-.294-.917zm.687 2.55a.233.233 0 00-.015.18c.019.058.06.109.117.138l3.996 2.056a.235.235 0 00.317-.103.231.231 0 00.015-.18.23.23 0 00-.117-.137l-3.996-2.056a.23.23 0 00-.179-.015.232.232 0 00-.138.117zm-.395-.203a.683.683 0 01.398-.336h.001a.676.676 0 01.518.042L161.337 13a.674.674 0 01.336.398h.001a.675.675 0 01-.44.855.681.681 0 01-.52-.041l-3.995-2.057a.677.677 0 01-.336-.397v-.001a.682.682 0 01.042-.52zm.504 2.525a.237.237 0 00.102.318l3.581 1.843a.238.238 0 00.318-.102.24.24 0 00.014-.18.235.235 0 00-.117-.138l-3.581-1.843a.236.236 0 00-.317.102zm-.396-.202a.682.682 0 01.398-.336h.001a.68.68 0 01.518.041l3.582 1.843a.684.684 0 01.294.917.68.68 0 01-.916.294l-3.582-1.842a.68.68 0 01-.336-.398l.001-.001a.671.671 0 01.04-.518zm.396 2.612a.234.234 0 00.102.318l3.105 1.598a.23.23 0 00.179.014.231.231 0 00.138-.116.235.235 0 00-.102-.317l-3.104-1.599a.24.24 0 00-.181-.014.23.23 0 00-.137.116zm-.396-.204a.68.68 0 01.398-.335h.001a.678.678 0 01.519.042l3.104 1.598a.679.679 0 01.336.397h.001a.683.683 0 01-.44.856.679.679 0 01-.518-.043l-3.106-1.597a.68.68 0 01-.336-.398h.001a.673.673 0 01.04-.52zm-26.215 43.438l5.7 2.41-.169.411-5.7-2.41.169-.411zM157.66 72.13c.195-.182.391-.35.588-.518l.112-.096 8.604 4.414-.364.201c-.232.127-.463.255-.662.36a7.85 7.85 0 01-.581.28 1.71 1.71 0 01-.478.135 1.17 1.17 0 01-.455-.043c-.288-.08-.626-.254-1.013-.453l-1.187-.61a5.78 5.78 0 00-.509-.245.87.87 0 00-.352-.08c-.149.01-.3.125-.439.23a2.058 2.058 0 01-.436.274c-.097.047-.184.08-.26.108a.743.743 0 01-.296.057 1.366 1.366 0 01-.438-.098 8.752 8.752 0 01-.667-.28 22.518 22.518 0 01-.861-.425 6.465 6.465 0 01-.823-.488c-.262-.192-.463-.404-.55-.65-.091-.258-.051-.53.063-.796.102-.241.266-.478.445-.694.173-.208.361-.4.559-.583zm.762-.085c-.157.135-.313.27-.46.408a5.617 5.617 0 00-.516.542c-.156.188-.297.39-.381.586-.073.17-.102.335-.053.474.054.151.2.298.394.44.217.16.489.31.766.453.287.15.58.294.843.416.247.114.466.207.628.265.146.052.234.07.297.072a.392.392 0 00.138-.031c.066-.024.141-.053.22-.09.079-.038.163-.085.248-.145l.11-.082c.189-.144.395-.3.679-.318.172-.012.352.033.543.108.18.072.359.163.55.261l1.186.61c.37.191.691.356.93.423.105.029.196.04.288.03.099-.011.211-.046.355-.105.153-.065.342-.157.545-.264l.288-.153-7.598-3.9zm-31.65-19.753l.907 7.115-.458-.117-.929-7.228.48.23zm1.867-.487l-.014 7.86-.447-.176.019-7.442.442-.242zm.502-.103l5.332 6.116-.434.18-5.4-6.193.502-.103zm2.909-2.389l3.918 7.374-.293.404-3.833-7.224.208-.554zm1.386-1.07l8.856 1.97-.361.375-8.909-1.966.414-.379zm1.138-1.448l8.016 2.597-.361.349-8.138-2.578.483-.368zm2.195-4.675l7.508 4.512-.109.452-7.439-4.463.04-.501zm.602-2.263l7.518 5.318-.087.481-7.445-5.266.014-.533zm.266-.911l8.734-1.684.128.458-9.06 1.716.198-.49zm.02-1.872l8.644-.917.066.444-8.622.962-.088-.489z" fill="#C5C6D1"/></svg>