<svg width="141" height="29" viewBox="0 0 141 29" fill="none" xmlns="http://www.w3.org/2000/svg">
<path d="M9.02 2.045H7.41C6.913 2.045 6.433 2.148 5.968 2.355C5.502 2.562 5.088 2.892 4.728 3.347C4.366 3.802 4.078 4.385 3.858 5.099C3.642 5.811 3.534 6.663 3.534 7.655C3.534 8.625 3.654 9.448 3.891 10.119C4.129 10.791 4.444 11.344 4.837 11.779C5.23 12.212 5.674 12.527 6.17 12.723C6.665 12.92 7.182 13.018 7.72 13.018H9.02V2.044V2.045ZM2.82 23.9H0L5.022 14.63C3.555 13.928 2.506 12.993 1.876 11.825C1.246 10.658 0.93 9.268 0.93 7.655C0.93 6.415 1.106 5.321 1.457 4.37C1.807 3.42 2.284 2.62 2.883 1.968C3.483 1.316 4.18 0.826 4.975 0.495C5.772 0.165 6.613 0 7.503 0H11.471V23.9H9.02V15.034H7.41L2.82 23.9Z" fill="#FF0000"/>
<path fill-rule="evenodd" clip-rule="evenodd" d="M35.9901 27H33.7901V23.87H26.9401V27H24.7381V21.854H25.6981C26.1951 20.924 26.5821 19.922 26.8621 18.847C27.1421 17.772 27.3521 16.687 27.4971 15.592C27.6421 14.497 27.7291 13.412 27.7611 12.337C27.7931 11.262 27.8081 10.239 27.8081 9.26701V7.90501H34.7521V21.855H35.9921V27H35.9901ZM46.7171 23.156C46.2001 23.446 45.6271 23.698 44.9971 23.916C44.3671 24.133 43.6571 24.241 42.8731 24.241C41.2611 24.241 39.9691 23.571 38.9981 22.227C38.0281 20.884 37.5411 18.993 37.5411 16.554C37.5411 15.376 37.6411 14.244 37.8361 13.16C38.0331 12.073 38.3321 11.113 38.7361 10.276C39.1391 9.43801 39.6501 8.76601 40.2701 8.26101C40.8901 7.75501 41.6331 7.50101 42.5001 7.50101C43.7821 7.50101 44.8161 8.14301 45.6001 9.42401C46.3861 10.704 46.7801 12.596 46.7801 15.097V16.461H40.1141C40.1141 18.197 40.4081 19.551 40.9971 20.521C41.5871 21.493 42.5111 21.979 43.7721 21.979C44.2471 21.979 44.7381 21.912 45.2441 21.779C45.7511 21.643 46.1491 21.514 46.4381 21.389L46.7181 23.157L46.7171 23.156ZM42.4071 9.48601C42.0571 9.48601 41.7471 9.60901 41.4771 9.85601C41.2091 10.106 40.9821 10.451 40.7971 10.896C40.6101 11.34 40.4651 11.862 40.3621 12.461C40.2591 13.061 40.1861 13.711 40.1451 14.415H44.2371V14.075C44.2371 13.971 44.2321 13.857 44.2221 13.733C44.2121 13.609 44.2061 13.475 44.2061 13.33C44.1231 12.11 43.9261 11.164 43.6161 10.492C43.3061 9.82201 42.9041 9.48501 42.4081 9.48501L42.4071 9.48601ZM32.3021 9.88801V21.854H27.8701C28.2821 21.172 28.6231 20.366 28.8921 19.436C29.1621 18.506 29.3781 17.519 29.5421 16.476C29.7081 15.432 29.8221 14.368 29.8841 13.282C29.9461 12.197 29.9771 11.169 29.9771 10.198V9.88801H32.3021ZM23.3121 7.90401V23.87H20.8621V16.243H17.2051V23.869H14.7251V7.90301H17.2051V14.196H20.8631V7.90401H23.3131H23.3121ZM58.5601 23.87H55.8001L51.9871 15.995L51.7071 15.655V23.869H49.2271V7.90301H51.7071V15.157L51.9871 14.847L55.3671 7.90301H58.0011L54.0961 15.095L58.5601 23.868V23.87ZM61.7521 15.933C61.7521 17.813 62.0421 19.291 62.6201 20.366C63.2001 21.441 64.0871 21.978 65.2861 21.978C65.7411 21.978 66.2061 21.911 66.6811 21.778C67.1571 21.642 67.5411 21.513 67.8291 21.388L68.0771 23.156C67.6021 23.446 67.0701 23.698 66.4811 23.916C65.8911 24.133 65.2251 24.241 64.4811 24.241C62.8911 24.241 61.6031 23.581 60.6211 22.258C59.6411 20.935 59.1491 19.034 59.1491 16.554C59.1491 15.19 59.2891 13.95 59.5691 12.834C59.8471 11.718 60.2241 10.767 60.6991 9.98201C61.1741 9.19801 61.7431 8.58801 62.4041 8.15401C63.0641 7.72001 63.7781 7.50401 64.5441 7.50401C65.2241 7.50401 65.8401 7.59601 66.3881 7.78201C66.9351 7.96801 67.4261 8.21601 67.8601 8.52601L66.5881 10.666C66.2981 10.334 65.9731 10.056 65.6111 9.82801C65.2511 9.60101 64.8841 9.48801 64.5111 9.48801C64.0781 9.48801 63.6851 9.67301 63.3341 10.045C62.9841 10.417 62.6941 10.903 62.4661 11.502C62.2391 12.102 62.0631 12.788 61.9391 13.564C61.8151 14.339 61.7531 15.129 61.7531 15.934L61.7521 15.933ZM78.7821 20.161H79.9881L83.2981 7.85301C83.5441 6.92501 83.7611 6.02801 84.0381 4.79101H84.1631C84.1011 5.90501 84.0391 7.01801 84.0391 8.07101V23.564H85.5231V1.45001H83.7911L80.0201 15.584C79.8641 16.141 79.6161 17.316 79.4931 18.151H79.4001C79.3071 17.317 79.0901 16.173 78.9361 15.585L75.1941 1.45001H73.4001V23.563H74.7601V8.07001C74.7601 6.95501 74.7301 5.84201 74.6681 4.79001H74.7611C74.9471 5.81001 75.1951 6.80001 75.5041 7.94501L78.7801 20.16L78.7821 20.161ZM92.0801 22.698C93.5341 22.698 94.5551 21.308 95.1101 19.636V15.338H93.4401C90.8741 15.338 89.6371 16.513 89.6371 19.234C89.6371 21.43 90.5971 22.698 92.0801 22.698ZM95.5441 23.564C95.4201 23.162 95.2661 22.574 95.1741 21.461C94.4311 22.946 93.3171 23.874 91.7711 23.874C89.6691 23.874 88.2151 22.204 88.2151 19.358C88.2151 16.018 90.0401 14.286 93.4111 14.286H95.1111V12.338C95.1111 9.95601 94.2151 8.93501 92.5141 8.93501C91.1841 8.93501 89.9781 9.55501 89.2361 10.637L88.8341 9.24501C89.4521 8.44101 90.7511 7.66701 92.5141 7.66701C95.0811 7.66701 96.5341 9.09001 96.5341 12.183V20.688C96.5341 21.77 96.6901 22.978 96.8741 23.564H95.5441ZM104.204 22.698C106.184 22.698 107.482 20.348 107.482 15.43C107.482 11.347 106.369 8.93401 104.575 8.93401C103.183 8.93401 102.008 10.419 101.328 12.089V20.809C101.946 22.079 102.812 22.696 104.204 22.696V22.698ZM104.111 23.843C102.937 23.843 101.916 23.255 101.329 22.483V28.389H99.8751V7.97601H101.143L101.267 10.543C101.947 9.05801 103.092 7.66601 104.823 7.66601C107.421 7.66601 108.937 10.79 108.937 15.306C108.937 21.026 107.019 23.842 104.112 23.842L104.111 23.843ZM113.174 15.493L118.586 23.563H120.196L114.689 15.213L119.823 7.97701H118.401L113.174 15.307V7.97701H111.72V23.564H113.173V15.49L113.174 15.493ZM129.318 20.935L129.782 22.111C129.782 22.111 128.608 23.874 126.134 23.874C122.824 23.874 121.309 20.874 121.309 15.77C121.309 10.666 123.226 7.66601 125.855 7.66601C128.545 7.66601 130.278 10.481 129.783 16.016H122.733C122.793 20.286 123.908 22.606 126.166 22.606C128.236 22.606 129.319 20.936 129.32 20.934L129.318 20.935ZM125.854 8.87501C124.214 8.87501 122.884 10.977 122.762 14.875H128.422C128.67 10.729 127.432 8.87501 125.855 8.87501H125.854ZM140.081 9.18301V7.97601H131.421V9.18201H135.041V23.562H136.493V9.18301H140.081Z" fill="#333333"/>
</svg>
