<svg width="217" height="36" viewBox="0 0 217 36" fill="none" xmlns="http://www.w3.org/2000/svg"><path d="M205.302.64c.636.083 1.273.15 1.907.253 2.53.412 4.93 1.21 6.964 2.994 1.877 1.649 2.872 3.777 2.823 6.445-.01.54-.014 1.08.003 1.62.007.242-.033.33-.282.329a264.584 264.584 0 00-4.896 0c-.267.002-.306-.099-.301-.351.011-.54.029-1.083-.015-1.619-.098-1.163-.656-2.04-1.514-2.701-.992-.767-2.122-1.151-3.303-1.354-2.117-.363-4.232-.409-6.31.287-1.324.443-2.476 1.187-3.265 2.478a5.205 5.205 0 00-.773 2.734c-.009 4.112-.033 8.225.007 12.337.022 2.134 1.045 3.652 2.752 4.61 1.775.996 3.694 1.178 5.648 1.062 1.283-.076 2.535-.328 3.702-.952 1.912-1.021 2.94-2.672 2.936-5.037-.001-.595-.014-1.19.007-1.786.009-.287-.063-.365-.33-.364-2.354.013-4.707 0-7.061.015-.338.002-.446-.078-.44-.47.024-1.468.018-2.936.002-4.403-.002-.298.082-.362.341-.362 4.264.009 8.528.01 12.792 0 .259 0 .304.088.303.348-.008 2.423-.024 4.846 0 7.268.038 4.017-1.61 6.96-4.723 8.974-1.81 1.172-3.799 1.762-5.873 2.052-.367.05-.747.006-1.101.16h-2.962c-.505-.179-1.036-.153-1.551-.244-2.508-.44-4.852-1.312-6.828-3.122-2.04-1.869-3.152-4.266-3.173-7.188-.033-4.498-.055-8.995.005-13.492.052-3.933 1.933-6.67 4.997-8.519 1.955-1.18 4.087-1.714 6.297-1.92.187-.017.379.018.557-.082h2.658zM0 .018c4.931 0 9.41-.04 14.27 0 2.405.02 4.44.083 7.235 1.158 3.258 1.003 5.956 4.348 6.468 9.055.336 2.17.121 4.05-.62 6.656-1.142 2.864-2.29 3.694-4.79 5.21-.978.498-1.318.694-2.408.982 3.255 4.125 6.652 8.611 9.93 12.767h-8.837c-3.045-3.945-5.484-7.493-8.538-11.43a167.008 167.008 0 01-1.112-1.532c.017-4.006.017-5.958.017-4.006V17.83c1.411-.022 2.958 0 4.296 0 .47.025 2.726.09 4.213-1.624.548-.63.811-1.307.875-1.448.37-.818.308-2.483.263-3.095-.04-.556-.231-1.848-.925-2.87-1.17-1.726-3.33-1.9-6.052-2.118-.686-.054-.636-.013-5.627-.016-.811 0-1.48-.002-1.93-.003 0 0 .022.84.022 1.094.003 9.355-.015 18.74 0 28.096H0V.018zm158.109 0c4.931 0 9.409-.04 14.27 0 2.405.02 4.44.082 7.234 1.158 3.257 1.003 5.956 4.348 6.468 9.054.336 2.17.122 4.051-.621 6.656-1.141 2.865-2.288 3.695-4.788 5.21-.979.499-1.318.694-2.408.983 3.255 4.125 6.652 8.61 9.931 12.765h-1.137c-2.271 0-5.431-.01-7.703.002-.252.001 0 0 0 0-3.044-3.945-5.482-7.493-8.536-11.43a168.324 168.324 0 01-1.112-1.532c.017-4.006.017-5.958.017-4.006V17.83c.519.022 1.271.036 2.176-.007 3.427-.165 5.159-.249 6.334-1.616 1.396-1.626 1.175-4.107 1.137-4.544-.056-.623-.159-1.804-.925-2.87-.862-1.198-2.365-1.933-4.724-2.11a136.27 136.27 0 00-1.327-.007c-2.461-.01-4.446-.014-5.629-.016l-1.928-.004s.022.841.022 1.095c.002 9.354-.016 18.74-.002 28.095h-6.749V.018zM73.727 24.496c-.015-1.3-.047-2.336-.047-6.573v-4.04c0-6.361.043-13.196.042-13.522V.328c0-.022.061-.159.006-.247S73.536 0 73.5.002c-1.858.011-4.15-.006-6.01-.001a.264.264 0 00-.205.085.325.325 0 00-.07.208c-.005 7.507 0 25.027 0 25.027.002.083.004.22.014.402.007.135.045.58.087.874.174 1.225.674 2.464.674 2.464.021.052.402.984.967 1.853 2.001 3.082 6.021 4.919 8.207 4.926l1-.005c1.364-.003 2.32.004 2.72.007 1.948.008 2.984.013 3.757-.053 2.972-.253 6.436-1.939 8.351-4.929.535-.836.851-1.616.95-1.875.464-1.225.742-2.748.757-5.053.014-2.18.046-4.358.037-6.539-.005-1.139-.032-16.19-.037-17.027a.38.38 0 00-.052-.203c-.065-.102-.194-.164-.408-.161-1.832.023-3.91-.004-5.742 0-.053 0-.244-.014-.332.114-.054.077-.047.172-.047.198.026 1.417.026 2.82.033 4.25.002.277-.005.027-.007 10.205v3.624c.009 1.539.025 2.334 0 3.663-.026 1.414.04 1.817-.088 2.507-.013.07-.1 1.96-.995 2.808-1.192 1.127-3.829 1.729-6.086 1.729-3.454 0-5.167-.764-6.08-1.729-.659-.697-.928-1.486-.928-1.486-.038-.11-.23-.49-.24-1.39z" fill="#EBECF5"/><path d="M142.146.01c3.887 0 7.776.007 11.662-.01.353-.002.466.089.46.581a325.574 325.574 0 00-.003 5.93c.002.37-.039.53-.374.53-7.858-.014-15.715-.014-23.573 0-.338 0-.373-.163-.37-.53.012-1.995.015-3.99-.004-5.984-.003-.436.099-.527.415-.526 3.929.014 7.857.01 11.787.01zm.056 15c3.887 0 7.774.006 11.662-.01.352 0 .467.081.46.529a254.94 254.94 0 00-.004 5.39c.002.337-.038.482-.372.481a7409.76 7409.76 0 00-23.574.001c-.338 0-.373-.148-.371-.481.011-1.814.016-3.627-.003-5.44-.005-.396.098-.479.414-.478 3.93.012 7.86.008 11.788.008zm-.056 13.805c3.887 0 7.776.007 11.662-.01.353-.001.466.088.46.582a325.638 325.638 0 00-.003 5.93c.002.37-.039.53-.374.53-7.858-.014-15.715-.014-23.573 0-.338 0-.373-.163-.37-.53.012-1.995.015-3.99-.004-5.985-.003-.435.099-.527.415-.525 3.929.014 7.857.008 11.787.008z" fill="#0095EB"/><path d="M120.631 27.073c-.443 1.746-1.655 2.593-3.262 2.962a7.626 7.626 0 01-1.729.182c-1.563-.005-3.126-.002-4.688-.002v.002c-1.742 0-3.485-.007-5.227.006-.282.003-.369-.058-.368-.369.013-2.868.009-5.735.003-8.604-.001-.255.028-.376.326-.374 3.249.022 6.499.015 9.75.046 1.051.01 2.09.184 3.079.592 1.418.583 2.156 1.68 2.24 3.249.04.773.068 1.55-.124 2.31zm-15.61-12.347c.014-2.926.008-5.852.007-8.778 0-.215-.038-.408.255-.405 3.466.023 6.932.01 10.397.052.957.012 1.882.314 2.72.91 1.086.774 1.632 1.936 1.654 3.459.007.446.018.896-.016 1.338-.099 1.264-.651 2.175-1.551 2.783-1.118.755-2.348.967-3.596 1-1.548.042-3.098.01-4.647.01v.008c-1.624 0-3.25-.005-4.874.006-.242.002-.351-.026-.349-.383zm21.72 10.246c.01-2.045-.661-3.775-1.926-5.229-.805-.924-1.771-1.566-2.905-2.023 1.911-1.028 3.17-2.596 3.747-4.82.343-1.316.241-2.67.182-4.004-.093-2.194-.797-4.121-2.256-5.647-.91-.95-1.98-1.605-3.143-2.078-2.236-.91-4.564-1.154-6.922-1.158-4.615-.009-9.231.002-13.847-.013-.367-.001-.453.104-.453.51.011 11.613.009 23.225.009 34.838 0 .06.007.121-.002.18-.036.262.071.319.292.319 5.456-.01 10.913.015 16.368-.032 2.062-.019 4.089-.396 6.002-1.318 2.239-1.078 3.889-2.778 4.58-5.48.341-1.327.267-2.69.274-4.045zm-73.148-3.536c-2.894 0-5.788 0-8.681.002-.19 0-.367.05-.231-.302 1.51-3.938 3.01-7.882 4.513-11.825.022-.057.049-.111.104-.237.41 1.077.79 2.084 1.174 3.091l3.38 8.86c.156.41.156.41-.26.41zM52.325.31c-.008-.024-.05-.155-.163-.236-.077-.055-.172-.07-.296-.07-1.663.01-3.326.017-4.99-.004-.274-.004-.524.172-.636.45-4.44 11.052-8.89 22.096-13.337 33.143-.317.789-.564 1.412-.897 2.247 3.781.013 6.548.002 6.863.006.092.002.339-.018.477-.155 0 0 .103-.129.162-.24.367-.697 1.882-5.039 2.865-7.849.063-.18.22-.3.394-.3 4.644.012 8.304.014 12.953 0 .345-.001.462.28.59.618 1.007 2.634 1.798 4.792 2.823 7.416.063.16.366.505.631.504 2.117-.012 4.634-.03 6.808-.03C58.362 15.37 52.417.563 52.325.31z" fill="#EBECF5"/></svg>