<svg width="95" height="261" viewBox="0 0 95 261" fill="none" xmlns="http://www.w3.org/2000/svg">
<path d="M9.20831 15.9136C9.91743 50.7758 10.6266 85.638 11.1334 108.702C11.6403 131.767 11.9441 143.034 12.0964 148.869C12.2488 154.705 12.2488 155.111 12.4002 155.516C12.5525 155.923 12.8563 156.327 13.6171 156.733C14.377 157.139 15.593 157.543 20.5086 157.848C25.4243 158.152 34.0378 158.355 43.5645 158.405C53.0903 158.456 63.5291 158.354 69.2047 158.303C74.8802 158.252 75.7916 158.252 76.7219 158.116C77.6513 157.98 78.5997 157.707 79.3424 157.262C80.085 156.815 80.6229 156.197 81.0102 155.27C81.3974 154.343 81.6349 153.108 81.7528 151.831C81.8707 150.555 81.8716 149.237 81.7201 145.225C81.5678 141.212 81.264 134.504 81.0609 131.151C80.8578 127.797 80.7563 127.797 80.6547 127.797" stroke="#C5C6D1" stroke-width="0.5" stroke-miterlimit="22.9256"/>
<path d="M11.2014 112.281C12.6652 112.486 14.1291 112.693 15.0637 113.202C15.9982 113.71 16.4044 114.521 18.0249 116.598C19.6462 118.677 22.4845 122.021 24.3588 124.2C26.234 126.379 27.1462 127.392 27.9061 127.949C28.666 128.507 29.2744 128.609 36.3682 128.659C43.462 128.71 57.042 128.71 64.2881 128.71C71.5342 128.71 72.4464 128.71 74.1185 128.559C75.7907 128.406 78.2235 128.103 80.048 127.899C81.8715 127.697 83.0875 127.596 84.5574 127.241C86.0264 126.887 87.7493 126.278 89.017 125.164C90.2837 124.049 91.0944 122.428 91.7028 120.603C92.3104 118.779 92.7157 116.751 92.8681 112.597C93.0204 108.442 92.9197 102.159 92.8173 92.0243C92.7157 81.8901 92.6151 67.9048 92.5634 59.6449C92.5126 51.385 92.5126 48.8515 92.1581 46.6725C91.8035 44.4935 91.0944 42.6699 90.2829 41.0477C89.4731 39.4264 88.56 38.0073 87.091 36.639C85.6211 35.2706 83.5944 33.9531 82.5807 33.1932C81.5678 32.4333 81.5678 32.2302 81.7201 28.2268C81.8715 24.2233 82.1753 16.4204 82.3276 12.3163C82.48 8.21133 82.48 7.80599 82.4292 7.29911C82.3776 6.79223 82.2769 6.18466 79.6418 5.52546C77.0067 4.86625 71.8389 4.15713 69.0514 3.80257C66.2649 3.44715 65.8587 3.44715 65.5609 3.21996C65.2623 2.9919 65.073 2.5358 63.3501 2.07969C61.6272 1.62358 58.3716 1.16747 53.653 1.04096C48.9345 0.914458 42.752 1.11668 38.6987 1.16746C34.6453 1.21823 32.7194 1.11583 29.5266 1.42048C26.3347 1.72426 21.8752 2.43423 19.5946 2.89034C17.3149 3.34645 17.2134 3.54955 16.8081 3.59947C16.4027 3.65024 15.6936 3.5487 15.0852 3.51083C14.4767 3.47297 13.9699 3.49792 13.1592 3.49792C12.3485 3.49792 11.2341 3.47296 10.1695 3.61238C9.10584 3.75179 8.09208 4.05558 7.58605 4.56246C7.07917 5.06935 7.07917 5.77847 7.08175 6.3542C7.08434 6.92993 7.08778 7.37226 7.10929 7.64679C7.12994 7.92132 7.16695 8.02889 7.28743 8.20875C7.40791 8.38861 7.60843 8.63905 7.89156 8.66917C8.17469 8.69843 8.53957 8.50566 8.92425 8.50996C9.30979 8.51512 9.71427 8.71735 9.91737 8.8189C10.1196 8.91959 10.1196 8.91959 9.77107 9.34471C9.42168 9.76898 8.72373 10.6175 8.57141 11.7836C8.41995 12.9488 8.8141 14.4308 9.20825 15.9135" stroke="#C5C6D1" stroke-width="0.5" stroke-miterlimit="22.9256"/>
<path d="M27.1454 4.13123C25.296 4.46083 23.4466 4.78958 22.2057 5.20782C20.9638 5.6252 20.3304 6.13209 20.3304 6.61401C20.3304 7.09508 20.9638 7.55118 22.0026 7.93156C23.0413 8.31194 24.4853 8.61573 26.6394 8.88165C28.7934 9.14757 31.6557 9.37563 34.7848 9.50213C37.9139 9.62864 41.3089 9.65445 44.919 9.67941C48.53 9.70522 52.3553 9.73018 55.6488 9.65444C58.9422 9.57871 61.7038 9.40144 64.0351 9.09766C66.3656 8.79301 68.2666 8.36272 69.4568 8.03312C70.6479 7.70351 71.1289 7.47631 71.4336 7.18458C71.7382 6.89284 71.8639 6.53827 71.6616 6.2474C71.4594 5.95566 70.9267 5.72762 70.1539 5.51247C69.3819 5.29732 68.3682 5.09422 67.4439 4.98062C66.5188 4.86702 65.6823 4.84121 64.8467 4.81625" stroke="#C5C6D1" stroke-width="0.5" stroke-miterlimit="22.9256"/>
<path d="M62.0645 9.31547C62.0292 8.2974 61.9939 7.27847 61.975 6.70619C61.9578 6.13304 61.9578 6.00654 62.0464 5.89294C62.1359 5.77935 62.3132 5.67779 62.7943 5.50051C63.2753 5.32323 64.061 5.07022 64.4535 4.94371C64.8468 4.8172 64.8468 4.8172 64.9655 4.55042C65.0851 4.2845 65.3235 3.75267 65.5619 3.22083" stroke="#C5C6D1" stroke-width="0.5" stroke-miterlimit="22.9256"/>
<path d="M30.1041 9.22589C30.1316 8.0598 30.1583 6.89372 30.1092 6.3111C30.0602 5.72849 29.9328 5.72848 29.5783 5.65189C29.2237 5.5753 28.6411 5.42384 28.1979 5.15792C27.7547 4.89114 27.45 4.51249 27.2986 4.32144C27.1463 4.13125 27.1463 4.13124 27.1084 3.94191C27.0705 3.75172 26.9948 3.37135 27.1084 3.0426C27.222 2.713 27.5266 2.43504 27.9612 2.17342C28.3958 1.91094 28.9621 1.66653 29.5275 1.42126" stroke="#C5C6D1" stroke-width="0.5" stroke-miterlimit="22.9256"/>
<path d="M8.57147 11.7836C9.32792 12.2474 10.0844 12.7121 11.0956 12.9953C12.1076 13.2784 13.3744 13.3791 15.2238 13.4299C17.0732 13.4806 19.506 13.4806 28.1704 13.5564C36.8347 13.6321 51.7331 13.7844 59.9672 13.861C68.2012 13.9367 69.7727 13.9368 70.9887 13.886C72.2047 13.8352 73.0661 13.7336 74.1298 13.633C75.1943 13.5314 76.4611 13.4299 77.3226 13.3283C78.184 13.2268 78.6401 13.1261 78.9947 12.9738C79.3492 12.8214 79.6022 12.6192 80.1582 11.6648C80.7141 10.7104 81.5721 9.00475 82.4301 7.29907" stroke="#C5C6D1" stroke-width="0.5" stroke-miterlimit="22.9256"/>
<path d="M78.3363 31.57C78.2821 25.4478 78.2262 19.3265 78.1719 13.2052" stroke="#C5C6D1" stroke-width="0.5" stroke-miterlimit="22.9256"/>
<path d="M9.20831 15.9135C10.1068 16.4195 11.0052 16.9264 12.6713 17.2311C14.3374 17.5348 16.7694 17.6364 26.0929 17.6863C35.4165 17.7371 51.6316 17.7371 60.6006 17.6863C69.5696 17.6355 71.2925 17.534 72.5334 17.4841C73.7744 17.4333 74.5351 17.4333 75.2184 17.4333C75.9035 17.4333 76.511 17.4333 76.9955 17.3077C77.48 17.182 77.8406 16.9299 78.2967 16.6768C78.7529 16.423 79.3045 16.1682 79.7064 15.8137C80.1091 15.4583 80.363 15.0022 80.7744 14.4023C81.1857 13.8025 81.7571 13.0598 82.3277 12.3171" stroke="#C5C6D1" stroke-width="0.5" stroke-miterlimit="22.9256"/>
<path d="M9.41571 26.1044C10.8529 26.8118 12.2909 27.5184 22.9415 27.7705C33.5921 28.0227 53.456 27.8204 63.6918 27.718C73.9284 27.6165 74.536 27.6165 75.3647 27.5666C76.1952 27.5158 77.2468 27.4151 78.369 26.8058C79.493 26.1965 80.6874 25.0777 81.8828 23.9581" stroke="#C5C6D1" stroke-width="0.5" stroke-miterlimit="22.9256"/>
<path d="M9.34772 22.7525C10.7574 23.3102 12.167 23.867 13.5052 24.1467C14.8434 24.4255 16.1102 24.4255 25.864 24.4513C35.6187 24.4763 53.8613 24.5271 63.2099 24.5529C72.5584 24.5778 73.0153 24.5778 73.5971 24.5778C74.1806 24.5778 74.8897 24.5778 75.6892 24.5262C76.4895 24.4746 77.3802 24.3722 78.4508 23.6544C79.5213 22.9367 80.7735 21.6037 82.0248 20.2706" stroke="#C5C6D1" stroke-width="0.5" stroke-miterlimit="22.9256"/>
<path d="M9.27972 19.4126C10.7625 19.9178 12.2453 20.4238 13.6205 20.6768C14.9957 20.929 16.2625 20.929 26.6506 20.929C37.0387 20.929 56.5472 20.929 66.6659 20.929C76.7847 20.929 77.5127 20.929 78.1212 20.7001C78.7296 20.472 79.2167 20.0168 79.869 19.3575C80.5213 18.6983 81.3372 17.8378 82.153 16.9763" stroke="#C5C6D1" stroke-width="0.5" stroke-miterlimit="22.9256"/>
<path d="M12.0284 26.9857C12.0379 28.564 12.0465 30.1432 12.8623 30.9582C13.6773 31.7723 15.2995 31.823 25.358 31.8996C35.4165 31.9754 53.9121 32.0769 63.6668 32.1027C73.4215 32.1277 74.4344 32.0769 75.0678 32.0012C75.7004 31.9255 75.9542 31.8239 76.4336 31.5451C76.9138 31.2663 77.6195 30.8093 78.3251 30.3532" stroke="#C5C6D1" stroke-width="0.5" stroke-miterlimit="22.9256"/>
<path d="M81.647 30.8705C78.1109 31.9651 74.5748 33.0598 72.7314 33.7087C70.888 34.3576 70.7357 34.5598 70.5326 34.8894C70.3295 35.219 70.0765 35.6751 69.8485 36.1054C69.6196 36.5357 69.4173 36.9419 69.3665 37.7268C69.3158 38.5116 69.4173 39.6777 69.4173 40.5142C69.4173 41.3498 69.3166 41.8567 69.722 42.1355C70.1273 42.4143 71.0387 42.4651 71.9259 42.8197C72.8132 43.1742 73.6746 43.8334 74.3837 44.4918C75.0929 45.151 75.6505 45.8093 76.1066 47.2284C76.5619 48.6467 76.9173 50.8257 77.1454 61.6699C77.3734 72.5141 77.4749 92.0226 77.5507 102.233C77.6273 112.443 77.6772 113.356 77.6772 114.141C77.6772 114.927 77.6264 115.585 77.4749 116.32C77.3226 117.055 77.0687 117.865 76.6892 118.549C76.3097 119.233 75.8028 119.79 75.1436 120.07C74.4844 120.349 73.6746 120.349 71.2925 120.196C68.9104 120.044 64.9586 119.74 62.9061 119.64C60.8537 119.539 60.7013 119.64 60.7272 120.653C60.753 121.666 60.9561 123.592 61.0576 124.58C61.1583 125.568 61.1583 125.619 61.3356 125.745C61.5129 125.872 61.8674 126.074 63.8184 126.226C65.7702 126.379 69.3175 126.479 71.4956 126.455C73.6746 126.43 74.4853 126.277 75.3975 126.024C76.3097 125.771 77.3226 125.416 78.1841 124.732C79.0455 124.048 79.7546 123.035 80.3123 121.92C80.8699 120.806 81.2753 119.589 81.4775 117.739C81.6798 115.89 81.6798 113.407 81.604 102.437C81.5274 91.4667 81.376 72.0081 81.3252 61.9496C81.2744 51.8911 81.3252 51.2319 81.3252 50.2697C81.3252 49.3067 81.2744 48.04 80.9956 46.8747C80.7168 45.7095 80.2107 44.645 79.7039 43.6828C79.197 42.7207 78.6901 41.8584 78.209 41.0736C77.7271 40.2878 77.271 39.5787 76.4354 38.9453C75.5989 38.3119 74.3829 37.7543 73.4199 37.4247C72.4577 37.0951 71.7486 36.9944 71.1652 36.9436C70.5825 36.8928 70.1264 36.8928 69.6703 36.8928" stroke="#C5C6D1" stroke-width="0.5" stroke-miterlimit="22.9256"/>
<path d="M77.1796 32.2603C78.7803 33.6518 80.3836 35.0434 81.7407 36.6518C83.0996 38.2594 84.214 40.0838 85.0505 41.8325C85.887 43.5804 86.4438 45.2525 86.7484 48.6982C87.0522 52.144 87.103 57.3634 87.1787 68.4856C87.2545 79.6078 87.356 96.6344 87.4326 105.831C87.5083 115.029 87.5582 116.397 87.4576 117.461C87.356 118.525 87.103 119.286 86.7484 120.4C86.3939 121.515 85.9378 122.985 84.9154 124.281C83.893 125.578 82.3052 126.702 80.7175 127.826" stroke="#C5C6D1" stroke-width="0.5" stroke-miterlimit="22.9256"/>
<path d="M11.9587 145.433C10.9777 145.787 9.99659 146.14 8.41656 147.71C6.8374 149.28 4.65754 152.067 3.34085 154.196C2.0233 156.324 1.56719 157.794 1.36495 159.77C1.16271 161.747 1.21263 164.23 1.28922 165.7C1.36581 167.169 1.46737 167.625 1.79611 168.03C2.12571 168.436 2.68336 168.791 3.03792 169.044C3.39248 169.298 3.5448 169.45 3.2152 181.154C2.88559 192.86 2.07493 216.118 1.61107 229.51C1.14722 242.902 1.03018 246.428 1.00523 248.886C0.980271 251.344 1.04568 252.733 1.17993 253.68C1.31504 254.629 1.51727 255.135 2.75909 256.047C4.00005 256.96 6.2806 258.277 8.02931 258.935C9.77801 259.593 10.9932 259.594 12.716 259.644C14.4389 259.696 16.6687 259.796 17.9355 259.796C19.2023 259.796 19.506 259.696 19.6833 259.087C19.8606 258.479 19.9114 257.364 20.1394 256.528C20.3675 255.692 20.7728 255.135 21.1016 254.753C21.4312 254.375 21.6842 254.171 22.0387 254.07C22.3933 253.969 22.8494 253.969 30.2478 253.969C37.6462 253.969 51.9861 253.969 59.6634 254.045C67.3398 254.121 68.3536 254.273 69.1393 254.451C69.9241 254.628 70.4826 254.83 70.8372 255.21C71.1918 255.591 71.3441 256.148 71.4198 256.756C71.4964 257.365 71.4964 258.024 71.5971 258.531C71.6986 259.037 71.9017 259.392 73.5222 259.67C75.1444 259.949 78.184 260.152 80.4645 260.228C82.7442 260.303 84.2649 260.253 85.9878 259.518C87.7106 258.783 89.6358 257.364 90.7253 256.377C91.8148 255.389 92.0686 254.831 92.3974 254.071C92.727 253.31 93.1323 252.348 93.3346 251.562C93.5368 250.778 93.5368 250.169 93.5635 249.206C93.5884 248.244 93.6392 246.926 93.8165 243.836C93.9938 240.744 94.2984 235.88 93.9688 222.427C93.6392 208.973 92.6762 186.931 92.221 175.656C91.7648 164.381 91.8148 163.875 92.0686 163.064C92.3216 162.254 92.7777 161.138 92.9808 159.972C93.1839 158.807 93.1332 157.591 92.9808 156.349C92.8294 155.108 92.5755 153.842 92.3216 152.675C92.0686 151.51 91.8148 150.446 91.5118 149.559C91.2072 148.673 90.8526 147.964 90.4981 147.33C90.1435 146.695 89.7889 146.139 88.9525 145.707C88.116 145.277 86.7984 144.972 85.5015 144.799C84.2038 144.626 82.9275 144.583 81.6496 144.541" stroke="#C5C6D1" stroke-width="0.5" stroke-miterlimit="22.9256"/>
<path d="M3.34088 154.197C2.89338 155.084 2.44588 155.973 2.58185 156.943C2.71696 157.915 3.43469 158.969 4.60422 159.725C5.77375 160.48 7.39508 160.935 9.26943 161.316C11.1446 161.696 13.2729 162.001 24.4716 162.152C35.6704 162.305 55.9388 162.305 67.0111 162.152C78.0825 162.001 79.9577 161.697 81.5799 161.316C83.2012 160.936 84.5695 160.48 85.659 159.972C86.7485 159.466 87.5592 158.909 88.1668 158.199C88.7752 157.49 89.1805 156.628 89.5601 155.716C89.9396 154.804 90.295 153.841 90.5403 152.616C90.7855 151.392 90.9206 149.906 91.0575 148.42" stroke="#C5C6D1" stroke-width="0.5" stroke-miterlimit="22.9256"/>
<path d="M1.2229 162.734C2.04734 163.25 2.87091 163.765 3.94233 164.251C5.0129 164.737 6.33045 165.194 8.91478 165.421C11.4991 165.65 15.3502 165.65 25.586 165.65C35.8218 165.65 52.4422 165.65 62.7537 165.624C73.0652 165.599 77.0695 165.548 79.6022 165.396C82.1357 165.244 83.2011 164.99 84.3655 164.687C85.5307 164.382 86.7975 164.028 87.7863 163.547C88.7751 163.065 89.4842 162.457 90.0161 161.951C90.5479 161.445 90.9025 161.039 91.3672 160.122C91.8319 159.207 92.4059 157.779 92.9799 156.351" stroke="#C5C6D1" stroke-width="0.5" stroke-miterlimit="22.9256"/>
<path d="M3.03705 169.044C5.53704 169.636 8.03617 170.226 10.1222 170.497C12.2083 170.767 13.8804 170.717 14.7668 170.692C15.6541 170.667 15.7547 170.667 15.8563 170.971C15.9578 171.275 16.0585 171.883 16.1093 173.124C16.1601 174.365 16.1601 176.24 16.185 177.532C16.21 178.824 16.2608 179.534 16.5396 180.04C16.8184 180.547 17.3244 180.851 18.0086 181.079C18.6928 181.308 19.5542 181.459 28.0163 181.459C36.4784 181.459 52.5421 181.307 61.0291 181.231C69.5171 181.155 70.4293 181.155 71.1134 180.978C71.7976 180.799 72.2537 180.446 72.5067 180.065C72.7606 179.685 72.8114 179.28 72.8363 178.849C72.8613 178.418 72.8613 177.962 72.8613 176.898C72.8613 175.833 72.8613 174.161 72.8613 173.097C72.8613 172.034 72.8613 171.577 72.9628 171.248C73.0635 170.918 73.2675 170.716 73.5954 170.589C73.925 170.463 74.3811 170.411 75.1917 170.386C76.0024 170.361 77.1676 170.361 78.536 170.336C79.9043 170.31 81.4749 170.259 82.7924 170.133C84.11 170.007 85.1745 169.804 86.0093 169.627C86.8466 169.449 87.4542 169.297 88.0359 169.043C88.6194 168.79 89.1762 168.435 89.8122 167.878C90.4481 167.32 91.1633 166.561 91.8784 165.802" stroke="#C5C6D1" stroke-width="0.5" stroke-miterlimit="22.9256"/>
<path d="M36.8347 169.298H52.6453C53.4396 169.298 54.0894 169.947 54.0894 170.742V177.43C54.0894 178.225 53.4396 178.874 52.6453 178.874H36.8347C36.0404 178.874 35.3906 178.225 35.3906 177.43V170.742C35.3906 169.947 36.0404 169.298 36.8347 169.298Z" stroke="#C5C6D1" stroke-width="0.5" stroke-miterlimit="22.9256"/>
<path d="M58.117 169.221H69.2899C70.0851 169.221 70.7348 169.871 70.7348 170.665V177.354C70.7348 178.149 70.0851 178.798 69.2899 178.798H58.117C57.3226 178.798 56.6729 178.149 56.6729 177.354V170.665C56.6729 169.871 57.3226 169.221 58.117 169.221Z" stroke="#C5C6D1" stroke-width="0.5" stroke-miterlimit="22.9256"/>
<path d="M20.1127 168.993H31.2865C32.0808 168.993 32.7306 169.643 32.7306 170.437V177.126C32.7306 177.92 32.0808 178.57 31.2865 178.57H20.1127C19.3184 178.57 18.6686 177.92 18.6686 177.126V170.437C18.6686 169.643 19.3184 168.993 20.1127 168.993Z" stroke="#C5C6D1" stroke-width="0.5" stroke-miterlimit="22.9256"/>
<path d="M1 250.322C1.34079 250.651 1.68158 250.981 2.34595 251.398C3.01032 251.816 3.99826 252.322 5.29086 252.742C6.58259 253.159 8.17897 253.489 10.0533 253.679C11.9285 253.869 14.0817 253.92 15.2728 253.983C16.4638 254.047 16.6919 254.123 16.9707 253.92C17.2495 253.717 17.5791 253.236 17.9337 252.666C18.2891 252.096 18.6686 251.437 19.0232 250.918C19.3777 250.399 19.7073 250.019 20.049 249.702C20.3906 249.385 20.7461 249.132 27.0042 249.069C33.2615 249.006 45.4233 249.132 53.4929 249.195C61.5626 249.259 65.5402 249.259 67.6556 249.259C69.7717 249.259 70.0247 249.259 70.3414 249.397C70.6581 249.537 71.0385 249.816 71.443 250.322C71.8475 250.829 72.2795 251.563 72.634 252.159C72.9886 252.754 73.2674 253.211 73.4955 253.553C73.7235 253.894 73.9008 254.123 74.0781 254.25C74.2554 254.376 74.4335 254.402 75.1805 254.414C75.9283 254.427 77.245 254.427 78.6641 254.414C80.0832 254.402 81.603 254.376 83.1237 254.186C84.6443 253.995 86.1641 253.641 87.3681 253.299C88.572 252.958 89.4584 252.628 90.1925 252.285C90.9274 251.944 91.51 251.588 92.0462 251.074C92.5823 250.559 93.072 249.883 93.5625 249.207" stroke="#C5C6D1" stroke-width="0.5" stroke-miterlimit="22.9256"/>
<path d="M44.9336 227.672C52.091 227.672 57.8932 221.87 57.8932 214.712C57.8932 207.555 52.091 201.753 44.9336 201.753C37.7763 201.753 31.9741 207.555 31.9741 214.712C31.9741 221.87 37.7763 227.672 44.9336 227.672Z" stroke="#C5C6D1" stroke-width="0.5" stroke-miterlimit="22.9256"/>
<path d="M45.1212 231.7C55.9083 231.7 64.653 222.956 64.653 212.169C64.653 201.381 55.9083 192.637 45.1212 192.637C34.3341 192.637 25.5894 201.381 25.5894 212.169C25.5894 222.956 34.3341 231.7 45.1212 231.7Z" stroke="#C5C6D1" stroke-width="0.5" stroke-miterlimit="22.9256"/>
<path d="M44.7633 227.712C52.7918 227.712 59.3002 221.203 59.3002 213.175C59.3002 205.146 52.7918 198.638 44.7633 198.638C36.7347 198.638 30.2263 205.146 30.2263 213.175C30.2263 221.203 36.7347 227.712 44.7633 227.712Z" stroke="#C5C6D1" stroke-width="0.5" stroke-miterlimit="22.9256"/>
</svg>
