<svg width="196" height="186" viewBox="0 0 196 186" fill="none" xmlns="http://www.w3.org/2000/svg">
<path d="M61.9751 60.9799C64.6985 60.661 69.4542 60.1295 75.1266 59.6916C80.7983 59.2531 87.3867 58.9075 94.1752 58.6814C100.963 58.4553 107.95 58.3494 114.751 58.2695C121.553 58.1902 128.167 58.1369 135.619 58.2961C143.072 58.4553 151.36 58.8276 158.467 59.2797C165.574 59.7313 171.499 60.2627 176.201 60.8331C180.904 61.4048 184.385 62.0162 186.629 62.534C188.874 63.0518 189.884 63.4773 190.574 63.8087C191.265 64.1413 191.637 64.3797 191.876 64.6058C192.115 64.8319 192.221 65.0444 192.274 65.5492C192.328 66.0546 192.328 66.8511 192.766 84.5179C193.205 102.186 194.08 136.723 194.533 154.205C194.985 171.685 195.01 172.111 194.998 172.536C194.984 172.961 194.932 173.386 194.507 173.904C194.081 174.422 193.285 175.033 191.996 175.763C190.707 176.494 188.927 177.344 186.124 178.208C183.322 179.071 179.496 179.948 175.776 180.705C172.057 181.463 168.444 182.1 164.126 182.698C159.808 183.296 154.788 183.853 149.992 184.239C145.197 184.624 140.627 184.836 135.101 184.996C129.575 185.155 123.094 185.261 116.731 185.208C110.368 185.155 104.124 184.942 97.881 184.61C91.6375 184.278 85.3948 183.826 80.3331 183.296C75.2721 182.765 71.3935 182.153 67.7403 181.515C64.0872 180.878 60.6608 180.214 58.7208 179.801C56.7815 179.389 56.33 179.23 56.1039 179.031C55.8778 178.831 55.8778 178.592 56.024 173.425C56.1702 168.258 56.4625 158.162 56.662 149.116C56.8608 140.069 56.9673 132.073 56.9537 125.776C56.9407 119.48 56.8075 114.883 56.5691 108.229C56.33 101.574 55.9844 92.8598 55.7986 85.4742C55.6128 78.0886 55.5861 72.031 55.5861 68.4045C55.5861 64.7786 55.6128 63.5826 55.7583 62.9179C55.9045 62.254 56.1702 62.1214 56.5425 61.9753C56.9141 61.8297 57.3922 61.6693 57.9769 61.5367C58.5617 61.4048 59.2523 61.2983 61.9751 60.9799Z" stroke="#C5C6D1" stroke-width="0.5" stroke-miterlimit="22.926"/>
<path d="M59.9708 61.2223C59.4569 63.5501 58.943 65.8779 58.5799 80.3255C58.2167 94.7731 58.0042 121.34 57.8321 139.728C57.6606 158.116 57.5306 168.325 57.4676 173.459C57.4046 178.593 57.4091 178.653 57.4975 178.679C57.5865 178.706 57.7587 178.699 58.6052 178.838C59.4524 178.978 60.9733 179.263 62.411 179.473C63.8488 179.682 65.204 179.815 68.5382 180.253C71.8723 180.692 77.1861 181.436 81.5961 181.941C86.0061 182.446 89.5124 182.711 94.2947 182.977C99.077 183.243 105.135 183.508 111.218 183.641C117.302 183.774 123.413 183.774 130.267 183.562C137.122 183.349 144.719 182.924 152.344 182.153C159.968 181.383 167.62 180.267 173.332 179.231C179.044 178.195 182.817 177.238 185.473 176.362C188.13 175.485 189.671 174.687 191.069 173.839C192.466 172.989 193.721 172.088 194.976 171.187" stroke="#C5C6D1" stroke-width="0.5" stroke-miterlimit="22.926"/>
<path d="M59.5037 63.7014C63.0445 63.1368 66.5846 62.5729 70.8257 62.1045C75.0668 61.6361 80.0083 61.2645 86.0659 60.9455C92.1229 60.6271 99.2967 60.3607 105.408 60.1489C111.517 59.9365 116.566 59.7767 124.005 59.8033C131.443 59.83 141.273 60.0424 149.27 60.414C157.267 60.7863 163.43 61.3177 168.505 61.8219C173.579 62.3273 177.564 62.8055 180.619 63.257C183.674 63.7092 185.8 64.1341 187.588 64.5109C189.375 64.889 190.825 65.2191 191.56 65.6465C192.296 66.0734 192.317 66.599 192.338 67.1239" stroke="#C5C6D1" stroke-width="0.5" stroke-miterlimit="22.926"/>
<path d="M117.948 83.0502H156.522C160.775 83.0502 164.253 86.5292 164.253 90.7814C164.253 95.0335 160.775 98.5126 156.522 98.5126H117.948C113.695 98.5126 110.216 95.0342 110.216 90.7814C110.216 86.5292 113.696 83.0502 117.948 83.0502Z" stroke="#C5C6D1" stroke-width="0.5" stroke-miterlimit="22.926"/>
<path d="M118.265 85.84H131.416C133.959 85.84 136.039 87.9196 136.039 90.4624C136.039 93.0053 133.959 95.0843 131.416 95.0843H118.265C115.724 95.0843 113.644 93.0046 113.644 90.4624C113.643 87.9196 115.724 85.84 118.265 85.84Z" stroke="#C5C6D1" stroke-width="0.5" stroke-miterlimit="22.926"/>
<path d="M143.571 86.079H156.722C159.265 86.079 161.344 88.1586 161.344 90.7014C161.344 93.2443 159.265 95.3239 156.722 95.3239H143.571C141.028 95.3239 138.949 93.2436 138.949 90.7014C138.949 88.1586 141.028 86.079 143.571 86.079Z" stroke="#C5C6D1" stroke-width="0.5" stroke-miterlimit="22.926"/>
<path d="M32.8493 85.1831C32.7804 85.7048 32.8999 86.3064 32.8999 86.8476C32.8999 90.413 38.048 93.0637 44.3915 93.0637C50.7343 93.0637 55.8765 90.1733 55.8765 86.6079" stroke="#C5C6D1" stroke-width="0.5" stroke-miterlimit="22.926"/>
<path d="M24.4541 119.327C23.4614 121.086 22.2881 122.103 21.0297 122.103C17.4642 122.103 14.5738 113.93 14.5738 103.847C14.5738 93.7648 17.4642 85.5912 21.0297 85.5912C22.383 85.5912 23.6388 86.7684 24.6763 88.7798" stroke="#C5C6D1" stroke-width="0.5" stroke-miterlimit="22.926"/>
<path d="M21.8041 119.51C18.2386 119.51 15.3482 112.588 15.3482 104.05C15.3482 95.511 18.2386 88.5894 21.8041 88.5894" stroke="#C5C6D1" stroke-width="0.5" stroke-miterlimit="22.926"/>
<path d="M31.2238 45.309C34.58 43.9382 39.5695 43.0845 45.1354 43.1157C50.4374 43.1449 55.2067 43.97 58.5344 45.2648" stroke="#C5C6D1" stroke-width="0.5" stroke-miterlimit="22.926"/>
<path d="M30.0297 41.5987C33.3729 40.0687 38.6483 39.0974 44.578 39.1306C50.9357 39.1657 56.5288 40.3455 59.7876 42.1074" stroke="#C5C6D1" stroke-width="0.5" stroke-miterlimit="22.926"/>
<path d="M29.1091 34.1774C32.4017 32.4778 38.2202 31.5098 44.7963 31.8087C51.1722 32.0984 56.7315 33.5108 59.9117 35.4118" stroke="#C5C6D1" stroke-width="0.5" stroke-miterlimit="22.926"/>
<path d="M27.2575 30.3617C29.6906 27.8442 36.698 26.2558 44.8755 26.628C51.2515 26.9178 56.8108 28.3302 59.991 30.2312" stroke="#C5C6D1" stroke-width="0.5" stroke-miterlimit="22.926"/>
<path d="M21.6046 119.471C33.3541 118.781 45.1029 118.093 56.8524 117.403" stroke="#C5C6D1" stroke-width="0.5" stroke-miterlimit="22.926"/>
<path d="M21.8041 88.5894C25.2792 88.7622 28.7544 88.9344 30.5852 88.9415C32.4153 88.948 32.6018 88.7888 32.7486 88.6466C32.8954 88.5043 33.0033 88.3795 33.1105 88.2542" stroke="#C5C6D1" stroke-width="0.5" stroke-miterlimit="22.926"/>
<path d="M32.9058 87.0347C32.4945 73.5655 32.0833 60.0957 31.8644 53.2546C31.6454 46.4134 31.6188 46.2003 31.3427 45.3642C31.0659 44.5274 30.5397 43.0663 30.2765 42.336C30.0134 41.6058 30.0134 41.6058 29.9777 40.717C29.9413 39.8283 29.8692 38.0507 29.7951 37.1405C29.7204 36.2316 29.6437 36.1901 29.508 35.8522C29.3715 35.5137 29.1753 34.8796 29.0532 34.4028C28.9304 33.9266 28.8817 33.6076 28.7992 33.0541C28.716 32.5012 28.6004 31.7131 28.5023 31.3188C28.4042 30.925 28.3242 30.925 27.7532 30.686C27.1821 30.4462 26.1192 29.9681 24.8835 29.3704C23.6485 28.7726 22.2406 28.0554 20.992 27.2453C19.7433 26.4351 18.6538 25.5314 17.4317 24.2964C16.2097 23.0607 14.8551 21.493 13.7922 20.1118C12.7293 18.7299 11.9588 17.5345 11.4144 16.4852C10.8699 15.436 10.5509 14.5323 10.3918 13.895C10.2319 13.257 10.2319 12.8854 10.2852 12.4871C10.3385 12.0889 10.4444 11.6633 10.6575 11.2651C10.8699 10.8662 11.1883 10.4939 11.7197 10.0027C12.2512 9.51158 12.995 8.90023 13.659 8.43571C14.3236 7.97054 14.9077 7.65154 15.838 7.22665C16.7677 6.80176 18.0431 6.27032 19.4249 5.7915C20.8055 5.31399 22.2939 4.8891 24.2462 4.42393C26.1991 3.95876 28.6166 3.45396 31.1406 3.05506C33.6646 2.6568 36.2945 2.36509 39.7619 2.05909C43.2286 1.75309 47.5327 1.43475 52.009 1.23595C56.4859 1.0365 61.1351 0.956583 65.6646 1.02285C70.1948 1.08977 74.6049 1.30221 79.4931 1.62056C84.3813 1.9402 89.7483 2.3651 94.7963 2.90953C99.8437 3.45396 104.573 4.11793 108.836 4.8891C113.1 5.65897 116.899 6.53604 119.928 7.51836C122.957 8.50197 125.214 9.59084 126.769 10.5874C128.323 11.5834 129.173 12.4871 129.678 13.1244C130.183 13.7624 130.342 14.1341 130.423 14.5323C130.503 14.9312 130.503 15.3561 130.423 15.9005C130.343 16.4456 130.184 17.1096 129.625 18.318C129.068 19.5271 128.111 21.2805 126.929 22.9678C125.747 24.6543 124.339 26.2753 122.705 27.6435C121.071 29.0111 119.211 30.1272 117.192 31.0576C115.174 31.9873 112.995 32.7312 110.178 33.4484C107.362 34.1657 103.909 34.8569 99.7774 35.3214C95.6461 35.7866 90.8371 36.025 86.0152 36.1582C81.1933 36.2914 76.3584 36.318 72.125 36.2531C67.8917 36.1888 64.2607 36.0328 62.2941 36.0861C60.3281 36.1394 60.028 36.4005 59.8506 36.6474C59.6739 36.8943 59.6207 37.1269 59.6161 38.0884C59.6122 39.0506 59.6577 40.7424 59.5914 41.8221C59.5252 42.9019 59.3471 43.369 59.1347 43.8342C58.9222 44.2987 58.6754 44.7613 58.4759 45.2388C58.2765 45.717 58.1251 46.2114 58.0497 46.5648C57.9737 46.9182 57.9737 47.1307 57.9744 49.6027C57.975 52.0741 57.9763 56.8064 57.977 61.5373" stroke="#C5C6D1" stroke-width="0.5" stroke-miterlimit="22.926"/>
<path d="M24.0974 87.7805C24.1247 85.5132 24.1527 83.2458 24.1533 82.1114C24.1533 80.9777 24.1273 80.9777 23.9617 80.8316C23.7953 80.6854 23.4893 80.393 23.2444 80.2468C22.9982 80.1013 22.8117 80.1013 21.4773 80.1806C20.1422 80.2605 17.6578 80.4197 16.2629 80.5392C14.8681 80.6588 14.5627 80.7387 14.2977 80.8179C14.0313 80.8978 13.8059 80.9778 13.5668 81.0973C13.3277 81.2168 13.075 81.3767 12.8229 81.5949C12.5702 81.8145 12.3181 82.0932 12.0257 82.5714C11.7334 83.0502 11.4014 83.7278 11.096 84.3314C10.79 84.9363 10.5113 85.4677 10.3723 85.7464C10.2326 86.0258 10.2326 86.0524 9.82721 86.0855C9.42246 86.118 8.61166 86.1583 8.127 86.1849C7.64168 86.2116 7.48251 86.2246 6.97121 86.643C6.45992 87.062 5.59584 87.8851 5.09818 88.3035C4.59988 88.7219 4.46734 88.7356 4.16849 88.7622C3.86964 88.7888 3.40447 88.8285 3.13875 88.9019C2.87303 88.9747 2.80676 89.0806 2.71386 89.2469C2.62095 89.4132 2.50141 89.6386 2.38837 89.8842C2.27532 90.1304 2.16943 90.3955 2.08952 90.6677C2.0096 90.9406 1.95633 91.2193 1.9102 91.704C1.86343 92.1893 1.82379 92.8805 1.80365 93.6374C1.78416 94.3943 1.78416 95.2174 1.78416 95.7892C1.78416 96.3602 1.78416 96.6792 1.70425 97.4497C1.62434 98.2203 1.46517 99.4423 1.33913 100.558C1.21245 101.674 1.11954 102.683 1.06692 103.514C1.01364 104.344 1 104.994 1 105.639C1 106.282 1.01364 106.921 1.03378 107.704C1.05328 108.488 1.07991 109.418 1.16632 110.241C1.25208 111.066 1.3989 111.782 1.57172 112.487C1.74388 113.191 1.94334 113.881 2.07587 114.34C2.20906 114.798 2.27532 115.024 2.28897 115.244C2.30196 115.463 2.26233 115.675 2.24219 116.053C2.2227 116.432 2.2227 116.977 2.23569 117.594C2.24934 118.212 2.27532 118.903 2.3156 119.315C2.35523 119.727 2.40851 119.859 2.44814 119.972C2.48777 120.085 2.51441 120.178 2.67358 120.577C2.8334 120.975 3.12575 121.68 3.29207 122.045C3.45774 122.41 3.49737 122.437 3.62341 122.49C3.7501 122.543 3.96254 122.623 4.32117 122.696C4.67979 122.768 5.18459 122.835 6.20069 122.868C7.21679 122.902 8.74484 122.902 9.64789 122.902C10.551 122.902 10.8303 122.902 10.996 122.929C11.1623 122.955 11.2156 123.008 11.4345 123.394C11.6535 123.779 12.0387 124.496 12.3577 125.081C12.6767 125.665 12.9294 126.117 13.1815 126.463C13.4336 126.808 13.6863 127.047 13.9722 127.2C14.2574 127.353 14.5764 127.419 15.9576 127.485C17.3395 127.552 19.7836 127.618 21.2843 127.658C22.7851 127.698 23.3432 127.711 23.6225 127.718C23.9012 127.725 23.9012 127.725 24.074 127.532C24.2462 127.34 24.5925 126.954 24.7647 126.748C24.9375 126.543 24.9375 126.516 24.8556 125.311C24.7744 124.107 24.6107 121.724 24.447 119.342" stroke="#C5C6D1" stroke-width="0.5" stroke-miterlimit="22.926"/>
<path d="M14.2574 122.941C14.4835 122.635 14.7089 122.33 14.948 121.991C15.1871 121.653 15.4398 121.28 15.6191 120.955C15.7984 120.629 15.9043 120.35 15.9979 120.157C16.0908 119.965 16.17 119.858 16.2565 119.745C16.3429 119.632 16.4358 119.514 16.5092 119.439C16.5819 119.367 16.6352 119.341 16.6813 119.354C16.7281 119.367 16.7678 119.42 16.8282 119.553C16.8873 119.686 16.9672 119.898 17.1465 120.203C17.3258 120.509 17.6052 120.908 17.8508 121.233C18.0964 121.559 18.3088 121.811 18.5018 122.024C18.6941 122.236 18.8669 122.409 19.0462 122.562C19.2255 122.714 19.412 122.847 19.6108 122.933C19.8102 123.02 20.0227 123.059 20.2747 123.08C20.5275 123.1 20.8198 123.1 21.0589 123.1C21.2973 123.1 21.4838 123.1 21.6235 123.059C21.7625 123.019 21.8554 122.94 21.9223 122.88C21.9886 122.82 22.0282 122.781 22.088 122.734C22.1478 122.688 22.2277 122.635 22.3076 122.608C22.3868 122.581 22.4667 122.581 22.52 122.628C22.5733 122.674 22.5993 122.767 22.6331 122.94C22.6662 123.113 22.7058 123.364 22.915 124.172C23.1236 124.977 23.5023 126.338 23.8811 127.699" stroke="#C5C6D1" stroke-width="0.5" stroke-miterlimit="22.926"/>
<path d="M2.44812 119.972C2.69175 120.178 2.93538 120.384 3.11079 120.507C3.28556 120.63 3.3921 120.669 3.69096 120.703C3.98981 120.736 4.48097 120.763 5.51006 120.749C6.53981 120.736 8.10749 120.682 9.50885 120.643C10.9102 120.603 12.1459 120.576 12.7897 120.53C13.4342 120.484 13.4875 120.417 13.5869 120.111C13.6863 119.805 13.8325 119.261 14.0917 118.358C14.3509 117.455 14.7232 116.192 14.9155 115.508C15.1078 114.824 15.1214 114.718 15.1279 114.618C15.1344 114.519 15.1344 114.426 15.1988 114.217C15.2631 114.009 15.3911 113.686 15.5197 113.362" stroke="#C5C6D1" stroke-width="0.5" stroke-miterlimit="22.926"/>
<path d="M10.996 122.928C12.0829 122.932 13.1698 122.936 13.7136 122.939C14.2574 122.941 14.2574 122.941 14.0943 122.528C13.9312 122.115 13.6051 121.289 13.2789 120.463" stroke="#C5C6D1" stroke-width="0.5" stroke-miterlimit="22.926"/>
<path d="M2.289 115.243C6.53791 115.184 10.7875 115.125 15.0364 115.067" stroke="#C5C6D1" stroke-width="0.5" stroke-miterlimit="22.926"/>
<path d="M1.77051 96.62C6.21172 96.631 10.6536 96.6408 15.0955 96.6512" stroke="#C5C6D1" stroke-width="0.5" stroke-miterlimit="22.926"/>
<path d="M1.87512 92.1255C2.04469 91.8501 2.21361 91.5746 2.45074 91.344C2.68787 91.1133 2.99322 90.9269 3.31936 90.808C3.6442 90.6878 3.98983 90.6352 5.5835 90.5819C7.17781 90.5287 10.0208 90.4754 11.469 90.4494C12.9164 90.4221 12.9697 90.4221 13.0893 90.6417C13.2088 90.8613 13.3946 91.2992 13.7487 92.2789C14.1034 93.2593 14.6264 94.7808 15.15 96.3024" stroke="#C5C6D1" stroke-width="0.5" stroke-miterlimit="22.926"/>
<path d="M4.67328 88.6198C7.73522 88.3704 10.7978 88.1215 12.3616 87.9968C13.926 87.8727 13.9923 87.8727 14.4237 88.3924C14.8544 88.9128 15.6503 89.9543 16.4455 90.9951" stroke="#C5C6D1" stroke-width="0.5" stroke-miterlimit="22.926"/>
<path d="M13.9299 87.9806C13.6499 88.8674 13.3692 89.7542 13.0892 90.6417" stroke="#C5C6D1" stroke-width="0.5" stroke-miterlimit="22.926"/>
<path d="M10.1702 86.0245L21.0296 85.5924" stroke="#C5C6D1" stroke-width="0.5" stroke-miterlimit="22.926"/>
<path d="M22.991 80.1508C22.6396 82.0244 22.2881 83.8981 21.9373 85.7711" stroke="#C5C6D1" stroke-width="0.5" stroke-miterlimit="22.926"/>
<path d="M59.8032 30.1207C59.9955 30.8536 60.1878 31.5864 60.2444 32.1523C60.3009 32.7175 60.221 33.1158 60.1813 33.4354C60.1411 33.7537 60.1411 33.9928 60.093 34.5152C60.0443 35.0369 59.9475 35.8431 59.8507 36.6481" stroke="#C5C6D1" stroke-width="0.5" stroke-miterlimit="22.926"/>
<path d="M64.9155 180.859C64.9448 181.386 64.974 181.912 65.0325 182.38C65.0909 182.848 65.1787 183.258 65.2664 183.565C65.3541 183.872 65.4424 184.077 65.5295 184.237C65.6178 184.398 65.7049 184.515 65.9245 184.617C66.1441 184.72 66.4949 184.808 67.0653 184.895C67.6357 184.984 68.4251 185.071 69.0689 185.115C69.7121 185.158 70.2091 185.158 70.6483 185.158C71.0868 185.158 71.4669 185.158 71.7742 185.041C72.0815 184.924 72.3154 184.691 72.4616 184.457C72.6077 184.223 72.6662 183.988 72.6955 183.652C72.7253 183.316 72.7253 182.877 72.7253 182.439" stroke="#C5C6D1" stroke-width="0.5" stroke-miterlimit="22.926"/>
<path d="M177.587 180.328C177.599 180.937 177.61 181.545 177.647 181.915C177.682 182.285 177.74 182.416 178.046 182.555C178.354 182.694 178.91 182.841 179.502 182.914C180.094 182.987 180.723 182.987 181.404 182.994C182.083 183.002 182.815 183.016 183.45 182.921C184.086 182.826 184.628 182.622 184.899 182.475C185.169 182.329 185.169 182.241 185.14 181.62C185.11 180.999 185.052 179.843 184.993 178.688" stroke="#C5C6D1" stroke-width="0.5" stroke-miterlimit="22.926"/>
</svg>
