<svg width="235" height="69" viewBox="0 0 235 69" fill="none" xmlns="http://www.w3.org/2000/svg">
<path d="M220.437 25.0397L219.307 15.6234L222.49 10.7549H234.477L230.53 25.0397H220.437Z" stroke="#C5C6D1" stroke-width="0.5"/>
<path d="M4.85434 25.0397L0.531313 10.7549H12.5096L15.6944 15.6258L14.753 25.0397H4.85434Z" stroke="#C5C6D1" stroke-width="0.5"/>
<path d="M11.2157 57.784L14.4248 29.0414H220.579L224.322 57.5988C225.088 63.4369 220.543 68.6159 214.655 68.6159H184.7C182.554 68.6159 180.652 67.2336 179.989 65.1923C179.26 62.9449 177.166 61.423 174.803 61.423H59.0939C56.6754 61.423 54.5092 62.9192 53.6528 65.1809C52.87 67.2483 50.8899 68.6159 48.6792 68.6159H20.9055C15.0923 68.6159 10.5706 63.5613 11.2157 57.784Z" stroke="#C5C6D1" stroke-width="0.5"/>
<rect x="55.4984" y="34.0994" width="124.781" height="19.3427" rx="9.67136" stroke="#C5C6D1" stroke-width="0.5"/>
<circle cx="71.0058" cy="44.5488" r="6.55877" stroke="#C5C6D1" stroke-width="0.5"/>
<circle cx="71.0058" cy="35.9893" r="0.972682" fill="#C5C6D1"/>
<circle cx="89.6812" cy="44.5488" r="6.55877" stroke="#C5C6D1" stroke-width="0.5"/>
<circle cx="89.6813" cy="35.9893" r="0.972682" fill="#C5C6D1"/>
<circle cx="108.357" cy="44.5488" r="6.55877" stroke="#C5C6D1" stroke-width="0.5"/>
<circle cx="108.357" cy="35.9893" r="0.972682" fill="#C5C6D1"/>
<circle cx="127.032" cy="44.5488" r="6.55877" stroke="#C5C6D1" stroke-width="0.5"/>
<circle cx="127.032" cy="35.9893" r="0.972682" fill="#C5C6D1"/>
<circle cx="145.708" cy="44.5488" r="6.55877" stroke="#C5C6D1" stroke-width="0.5"/>
<circle cx="145.708" cy="35.9893" r="0.972682" fill="#C5C6D1"/>
<circle cx="164.383" cy="44.5488" r="6.55877" stroke="#C5C6D1" stroke-width="0.5"/>
<circle cx="164.383" cy="35.9893" r="0.972682" fill="#C5C6D1"/>
<rect x="12.9503" y="0.5" width="209.099" height="9.50497" stroke="#C5C6D1"/>
<rect x="222.411" y="0.25" width="12.3394" height="10.394" stroke="#C5C6D1" stroke-width="0.5"/>
<rect x="0.25" y="0.25" width="12.3394" height="10.394" stroke="#C5C6D1" stroke-width="0.5"/>
<path d="M14.6742 27.3742L16.1765 13.4785H218.824L220.326 27.3742H14.6742Z" stroke="#C5C6D1" stroke-width="0.5"/>
</svg>
