<svg width="217" height="36" viewBox="0 0 217 36" fill="none" xmlns="http://www.w3.org/2000/svg">
<path d="M205.302 0.640106C205.938 0.723341 206.575 0.79014 207.209 0.892841C209.739 1.30465 212.139 2.1021 214.173 3.88695C216.05 5.53588 217.045 7.66375 216.996 10.332C216.986 10.8723 216.982 11.4123 216.999 11.9517C217.006 12.1937 216.966 12.2823 216.717 12.2806C215.085 12.2662 213.452 12.2651 211.821 12.2809C211.554 12.2833 211.515 12.1823 211.52 11.9299C211.531 11.3905 211.549 10.8471 211.505 10.3112C211.407 9.14754 210.849 8.27189 209.991 7.6097C208.999 6.8428 207.869 6.45883 206.688 6.25645C204.571 5.89297 202.456 5.847 200.378 6.54275C199.054 6.98611 197.902 7.72952 197.113 9.02067C196.609 9.84497 196.343 10.7656 196.34 11.7547C196.331 15.8668 196.307 19.9798 196.347 24.0916C196.369 26.2258 197.392 27.7442 199.099 28.7027C200.874 29.6985 202.793 29.8798 204.747 29.764C206.03 29.6878 207.282 29.4358 208.449 28.8122C210.361 27.7905 211.389 26.1402 211.385 23.7754C211.384 23.1804 211.371 22.585 211.392 21.9892C211.401 21.7016 211.329 21.6241 211.062 21.6247C208.708 21.6378 206.355 21.6247 204.001 21.6402C203.663 21.6425 203.555 21.5616 203.561 21.17C203.585 19.7023 203.579 18.2342 203.563 16.7672C203.561 16.4689 203.645 16.4051 203.904 16.4051C208.168 16.4138 212.432 16.4142 216.696 16.4044C216.955 16.4041 217 16.4934 216.999 16.7528C216.991 19.1757 216.975 21.5986 216.999 24.0211C217.037 28.0375 215.389 30.9806 212.276 32.9954C210.466 34.167 208.477 34.7567 206.403 35.0474C206.036 35.0977 205.656 35.0528 205.302 35.2065C204.314 35.2065 203.327 35.2065 202.34 35.2065C201.835 35.0283 201.304 35.0538 200.789 34.9628C198.281 34.5232 195.937 33.6515 193.961 31.8408C191.921 29.9721 190.809 27.575 190.788 24.6534C190.755 20.1554 190.733 15.6577 190.793 11.1606C190.845 7.22843 192.726 4.4904 195.79 2.64245C197.745 1.46206 199.877 0.92843 202.087 0.721685C202.274 0.704569 202.466 0.739787 202.644 0.640106C203.53 0.640106 204.416 0.640106 205.302 0.640106Z" fill="#EBECF5"/>
<path d="M0 0.0179746C4.93107 0.0179746 9.40929 -0.0224683 14.2703 0.0179746C16.6751 0.0376863 18.71 0.100529 21.5047 1.17617C24.7625 2.17943 27.4613 5.52432 27.9727 10.2306C28.3092 12.4013 28.0941 14.2807 27.3531 16.8867C26.2113 19.751 25.0629 20.5813 22.5632 22.0977C21.5847 22.5953 21.2451 22.7911 20.155 23.0786C23.4104 27.2044 26.8074 31.6902 30.0855 35.8459C27.1398 35.8459 24.1933 35.8459 21.2479 35.8466C18.2031 31.9009 15.7642 28.3531 12.7099 24.4162C12.5749 24.2422 11.5984 22.8841 11.5984 22.8841C11.6154 18.8776 11.6154 16.9258 11.6154 18.8776C11.6154 19.1726 11.6154 17.8312 11.6154 17.8312C13.0264 17.8087 14.5727 17.8318 15.9112 17.8318C16.3818 17.8556 18.6372 17.9212 20.1244 16.207C20.6718 15.5766 20.9352 14.9002 20.9988 14.7589C21.3686 13.9412 21.3071 12.2756 21.2622 11.6642C21.2213 11.1081 21.0308 9.81602 20.337 8.79373C19.1666 7.06794 17.0078 6.89462 14.2852 6.67643C13.5993 6.62172 13.649 6.66316 8.65771 6.6601C7.84692 6.65942 7.178 6.65774 6.72888 6.65672C6.72888 6.65672 6.75033 7.49685 6.75033 7.75106C6.75305 17.1059 6.73501 26.4917 6.74998 35.8466C4.49965 35.8466 2.24999 35.8466 0 35.8466C0 24.2966 0 11.5673 0 0.0179746Z" fill="#EBECF5"/>
<path d="M158.109 0.0181254C163.04 0.0181254 167.518 -0.0226567 172.379 0.0181254C174.784 0.037157 176.819 0.100372 179.613 1.17634C182.87 2.1789 185.569 5.52405 186.081 10.2303C186.417 12.4009 186.203 14.281 185.46 16.8863C184.319 19.7512 183.172 20.5808 180.672 22.0968C179.693 22.5947 179.354 22.7898 178.264 23.0787C181.519 27.2044 184.916 31.6895 188.195 35.8445C187.998 35.8445 187.186 35.8445 187.058 35.8445C184.787 35.8445 181.627 35.8343 179.355 35.8462C179.103 35.8472 179.355 35.8462 179.355 35.8462C176.311 31.9005 173.873 28.3528 170.819 24.4156C170.684 24.2423 169.707 22.8839 169.707 22.8839C169.724 18.8778 169.724 16.9257 169.724 18.8778C169.724 19.1724 169.724 17.8304 169.724 17.8304C170.243 17.8521 170.995 17.8664 171.9 17.8225C175.327 17.658 177.059 17.5741 178.234 16.2066C179.63 14.5807 179.409 12.1005 179.371 11.6634C179.315 11.0402 179.212 9.85917 178.446 8.7934C177.584 7.59509 176.081 6.85965 173.722 6.68361C173.693 6.68157 173.26 6.67954 172.395 6.67614C169.934 6.6656 167.949 6.66219 166.766 6.65981C166.527 6.65947 165.08 6.65711 164.838 6.65643C164.838 6.65643 164.86 7.49721 164.86 7.75108C164.862 17.1055 164.844 26.4911 164.858 35.8462C162.609 35.8462 160.359 35.8462 158.109 35.8462C158.109 24.296 158.109 11.5666 158.109 0.0181254Z" fill="#EBECF5"/>
<path d="M73.7272 24.4957C73.7121 23.1964 73.6805 22.1602 73.6805 17.9228C73.6805 15.2663 73.6805 15.5644 73.6805 13.8836C73.6805 7.52178 73.7232 0.687381 73.7221 0.361351C73.7221 0.337553 73.7221 0.328018 73.7221 0.328018C73.7221 0.30558 73.7832 0.169268 73.7279 0.0808762C73.6725 -0.00717576 73.5359 0.000972866 73.5003 0.00199277C71.6419 0.0132118 69.3495 -0.00413597 67.4908 0.00096357C67.4002 0.00096357 67.332 0.0339658 67.2854 0.086321C67.2246 0.154655 67.2146 0.249485 67.2146 0.294021C67.2095 7.80054 67.2149 25.3212 67.2149 25.3212C67.2169 25.4045 67.2193 25.5418 67.2293 25.723C67.2364 25.858 67.2736 26.303 67.3159 26.5968C67.4898 27.822 67.9902 29.0612 67.9902 29.0612C68.011 29.1125 68.3923 30.0451 68.9565 30.914C70.9582 33.9965 74.9781 35.833 77.1637 35.8402C77.2634 35.8402 77.501 35.8378 78.1639 35.8354C79.5279 35.8324 80.4838 35.8388 80.8842 35.8415C82.8325 35.8504 83.8683 35.8551 84.6409 35.7895C87.6126 35.5356 91.0767 33.85 92.9921 30.8603C93.5275 30.024 93.8433 29.2438 93.9416 28.9854C94.4058 27.7598 94.6844 26.2374 94.6988 23.9321C94.7129 21.7525 94.7445 19.5737 94.7361 17.3934C94.7314 16.2542 94.7042 1.20277 94.6988 0.365766C94.6988 0.33109 94.6971 0.242027 94.6468 0.162814C94.582 0.0611633 94.4531 -0.00140692 94.2393 0.00199277C92.4075 0.0251107 90.3289 -0.00242682 88.4967 0.00199277C88.4443 0.00199277 88.253 -0.0119592 88.1647 0.115869C88.1114 0.192702 88.1181 0.287921 88.1181 0.314439C88.1443 1.73075 88.1443 3.13344 88.1513 4.56369C88.1527 4.8411 88.1463 4.5909 88.1443 14.7692C88.1439 17.1239 88.1439 18.3019 88.1443 18.3926C88.153 19.9317 88.1694 20.7265 88.1443 22.0561C88.1181 23.4697 88.1845 23.8726 88.056 24.5627C88.0426 24.6331 87.9566 26.5233 87.0612 27.3712C85.8687 28.4975 83.232 29.1 80.9748 29.1C77.5205 29.1 75.8077 28.3364 74.8948 27.3712C74.236 26.6743 73.9668 25.8849 73.9668 25.8849C73.9286 25.7747 73.7376 25.3953 73.7272 24.4957Z" fill="#EBECF5"/>
<path d="M142.146 0.0103787C146.033 0.0103787 149.922 0.0168025 153.808 2.56633e-05C154.161 -0.00175911 154.274 0.0885601 154.268 0.581157C154.244 2.5569 154.253 4.53407 154.265 6.51089C154.267 6.88069 154.226 7.04132 153.891 7.04025C146.033 7.02704 138.176 7.02702 130.318 7.0413C129.98 7.04165 129.945 6.87783 129.948 6.51089C129.96 4.51623 129.963 2.52154 129.944 0.526882C129.941 0.0913976 130.043 3.54238e-05 130.359 0.00110629C134.288 0.0153845 138.216 0.0103787 142.146 0.0103787Z" fill="#0095EB"/>
<path d="M142.202 15.01C146.089 15.01 149.976 15.0159 153.864 15C154.216 14.9994 154.331 15.0811 154.324 15.5286C154.299 17.325 154.307 19.1223 154.32 20.9196C154.322 21.2565 154.282 21.4012 153.948 21.4002C146.089 21.3879 138.231 21.3879 130.374 21.4012C130.036 21.4012 130.001 21.2529 130.003 20.9196C130.014 19.1064 130.019 17.2928 130 15.4799C129.995 15.0837 130.098 15.001 130.414 15.0019C134.344 15.0143 138.274 15.01 142.202 15.01Z" fill="#0095EB"/>
<path d="M142.146 28.8153C146.033 28.8153 149.922 28.8218 153.808 28.8053C154.161 28.8036 154.274 28.8932 154.268 29.3865C154.244 31.3625 154.253 33.3402 154.265 35.3168C154.267 35.6867 154.226 35.8466 153.891 35.8466C146.033 35.833 138.176 35.833 130.318 35.8466C129.98 35.8477 129.945 35.6842 129.948 35.3168C129.96 33.322 129.963 31.3271 129.944 29.3322C129.941 28.8971 130.043 28.8053 130.359 28.8068C134.288 28.8207 138.216 28.8153 142.146 28.8153Z" fill="#0095EB"/>
<path d="M120.631 27.0726C120.188 28.8188 118.976 29.666 117.369 30.0346C116.801 30.1648 116.224 30.2185 115.64 30.2171C114.077 30.2124 112.514 30.2151 110.952 30.2151C110.952 30.2158 110.952 30.2158 110.952 30.2171C109.21 30.2171 107.467 30.2103 105.725 30.2229C105.443 30.2256 105.356 30.1648 105.357 29.854C105.37 26.9859 105.366 24.1188 105.36 21.25C105.359 20.9954 105.388 20.8744 105.686 20.8761C108.935 20.8985 112.185 20.8907 115.436 20.922C116.487 20.9322 117.526 21.1056 118.515 21.5139C119.933 22.0966 120.671 23.1934 120.755 24.7628C120.795 25.5359 120.823 26.3131 120.631 27.0726ZM105.021 14.7264C105.035 11.8005 105.029 8.87429 105.028 5.94838C105.028 5.73283 104.99 5.54038 105.283 5.54276C108.749 5.56588 112.215 5.5533 115.68 5.59512C116.637 5.60668 117.562 5.9086 118.4 6.50527C119.486 7.27874 120.032 8.44079 120.054 9.96359C120.061 10.41 120.072 10.8598 120.038 11.3021C119.939 12.5665 119.387 13.477 118.487 14.0849C117.369 14.8403 116.139 15.0521 114.891 15.0851C113.343 15.1266 111.793 15.0957 110.244 15.0957C110.244 15.098 110.244 15.1008 110.244 15.1031C108.62 15.1031 106.994 15.098 105.37 15.1086C105.128 15.1106 105.019 15.0834 105.021 14.7264ZM126.741 24.9722C126.751 22.9272 126.08 21.197 124.815 19.7433C124.01 18.8188 123.044 18.1769 121.91 17.7203C123.821 16.6919 125.08 15.1235 125.657 12.9007C126 11.5839 125.898 10.2305 125.839 8.89569C125.746 6.70211 125.042 4.77474 123.583 3.24889C122.673 2.29829 121.603 1.64415 120.44 1.17123C118.204 0.261095 115.876 0.0173482 113.518 0.0129284C108.903 0.00442876 104.287 0.0153123 99.6715 1.29456e-05C99.3044 -0.00134699 99.2181 0.104031 99.2184 0.509293C99.2292 12.1228 99.2268 23.7353 99.2268 35.3482C99.2268 35.4084 99.2335 35.4692 99.2251 35.528C99.1892 35.7902 99.296 35.8466 99.517 35.8466C104.973 35.8361 110.43 35.8619 115.885 35.8147C117.947 35.7963 119.974 35.4186 121.887 34.4972C124.126 33.4195 125.776 31.7189 126.467 29.0177C126.808 27.6897 126.734 26.3277 126.741 24.9722Z" fill="#EBECF5"/>
<path d="M53.5925 21.4359C50.6995 21.4359 47.8051 21.4352 44.9117 21.4376C44.7212 21.4376 44.5448 21.4889 44.6806 21.1361C46.1918 17.1979 47.6909 13.254 49.1943 9.31145C49.2156 9.25435 49.243 9.19995 49.2984 9.07385C49.7071 10.1507 50.0888 11.1582 50.4722 12.165C51.5986 15.1184 52.7254 18.0715 53.8519 21.0253C54.0083 21.4352 54.0077 21.4359 53.5925 21.4359ZM52.3252 0.309725C52.3167 0.286271 52.2752 0.154738 52.1617 0.0741804C52.0847 0.0194556 51.9901 0.0038186 51.8661 0.00483832C50.2026 0.0136759 48.5401 0.0214725 46.8765 5.83901e-05C46.6019 -0.00368057 46.3523 0.172416 46.2405 0.450799C41.8007 11.5018 37.3509 22.546 32.9034 33.5926C32.5859 34.3819 32.3393 35.0049 32.0059 35.8397C35.787 35.8527 38.5544 35.8418 38.8688 35.8465C38.9607 35.8479 39.2076 35.8282 39.3461 35.6909C39.3461 35.6909 39.4488 35.562 39.5076 35.4505C39.8747 34.7541 41.3903 30.4121 42.3729 27.6025C42.4361 27.4223 42.5925 27.302 42.7671 27.3027C47.4115 27.3135 51.0707 27.3159 55.7198 27.302C56.0647 27.301 56.1819 27.5827 56.3109 27.9203C57.3168 30.5539 58.1079 32.7119 59.1327 35.336C59.1956 35.4951 59.4992 35.8408 59.7644 35.8397C61.8812 35.8282 64.398 35.8105 66.5723 35.8105C58.3619 15.3703 52.4174 0.562954 52.3252 0.309725Z" fill="#EBECF5"/>
</svg>
