<svg width="203" height="183" viewBox="0 0 203 183" fill="none" xmlns="http://www.w3.org/2000/svg">
<path d="M30.7209 147.764L30.7179 147.768C29.3637 149.393 28.0102 151.018 27.5752 152.149C27.3862 152.641 27.3811 153.029 27.551 153.373C27.7378 153.751 28.1325 154.11 28.7214 154.509C29.393 154.965 30.3049 155.463 31.435 155.932C32.3996 156.331 33.5209 156.709 34.7836 157.019C36.1649 157.359 37.7168 157.619 39.8782 157.812C42.0542 158.006 44.8498 158.131 48.7103 158.199C54.218 158.296 61.8827 158.278 69.7063 158.26C73.1735 158.252 76.6898 158.244 79.1456 158.244L82.7227 158.247C91.9276 158.257 99.9241 158.264 105.107 157.697C110.844 157.07 113.107 155.732 115.078 154.568L115.385 154.386C117.277 153.269 118.932 152.293 120.566 150.916C121.425 150.194 122.287 149.352 123.114 148.432C123.93 147.526 124.704 146.549 125.399 145.54C126.098 144.525 126.719 143.475 127.273 142.379C127.828 141.28 128.314 140.138 128.744 138.942C129.171 137.749 129.543 136.5 129.848 135.249C130.157 133.983 130.397 132.717 130.556 131.511C130.791 129.735 130.853 128.071 131.054 122.658C131.125 120.733 131.214 118.338 131.332 115.339C131.495 111.236 131.714 105.956 131.948 100.323C132.376 90.0461 132.852 78.5934 133.118 70.9859C133.322 65.1112 133.403 61.4953 133.403 59.0842C133.403 56.7046 133.324 55.5504 133.211 54.5587C133.099 53.5699 132.953 52.7416 132.732 51.9769C132.51 51.2145 132.212 50.5062 131.79 49.7519C131.359 48.9799 130.802 48.1633 130.178 47.3825C129.566 46.6186 128.889 45.8877 128.203 45.2673C127.513 44.6433 126.808 44.1292 126.09 43.6751C125.371 43.2195 124.634 42.8233 123.886 42.438C123.144 42.0557 122.39 41.6844 121.471 41.3592C120.552 41.0347 119.465 40.7542 118.05 40.5521C116.619 40.3477 114.857 40.2225 112.642 40.1375C110.406 40.0518 107.721 40.0057 104.456 39.9603C101.036 39.9127 96.9798 39.8643 92.7223 39.8233C88.8222 39.7852 84.7515 39.753 80.8389 39.731C76.7433 39.7083 72.8183 39.6973 69.0545 39.7142C65.295 39.731 61.6923 39.7772 58.2353 39.8687C51.5345 40.046 45.3691 40.3983 41.5605 40.6151L41.2434 40.6334C39.3662 40.7403 38.1182 40.8099 37.1902 40.8516C36.2769 40.8926 35.7013 40.9051 35.1681 40.8985C34.6188 40.8912 34.1149 40.8633 33.5656 40.7176C33.0133 40.5704 32.4245 40.3074 31.7126 39.8328C31.1112 39.4307 30.4199 38.8778 29.7534 38.3021C28.8869 37.5536 28.0593 36.7626 27.5312 36.2206C26.5161 35.1776 26.5095 34.9821 26.4158 31.925L26.4143 31.8693C26.3689 30.3899 26.3 28.2095 26.2195 25.8138C26.1397 23.4408 26.0481 20.8642 25.9565 18.5761C25.7749 14.0571 25.5911 10.7122 25.4988 9.03061V9.01451C25.3963 7.1432 25.3963 7.14246 26.9101 6.06509C27.5928 5.5795 28.6167 4.85076 29.7614 4.12274C30.9208 3.38594 32.2201 2.63741 33.4564 2.11301C34.7074 1.58128 35.8822 1.28099 38.4829 1.09129C41.031 0.905995 44.9985 0.825436 51.8597 0.733885C59.0483 0.637939 69.4243 0.528811 81.4161 0.427738C92.2455 0.336187 104.393 0.249762 116.704 0.184578C127.976 0.12452 139.385 0.0820396 149.783 0.0534757C163.678 0.0146579 175.389 0 182.691 0C189.398 0 192.799 0.011722 194.676 0.136232C196.648 0.266601 196.997 0.527342 197.595 1.02392C198.078 1.42308 198.764 2.0156 199.47 2.63375C200.301 3.36177 201.134 4.10589 201.682 4.60466C202.219 5.09391 202.515 5.37882 202.695 5.65787C202.898 5.97134 202.941 6.23135 202.968 6.66054C202.992 7.04213 203.003 7.5907 202.999 8.25793C202.995 8.87315 202.979 9.58066 202.946 10.338C202.91 11.1451 202.859 12.002 202.774 13.1219C202.692 14.2051 202.571 15.6172 202.395 17.5647C202.222 19.4828 201.997 21.8881 201.656 25.211C201.312 28.5779 200.848 32.8925 200.198 38.6061C199.632 43.5821 198.933 49.5475 198.231 55.4669C197.293 63.3864 196.341 71.2811 195.688 76.6489C194.891 83.2032 194.523 86.097 194.34 87.5361C194.283 87.9873 194.249 88.2525 194.201 88.6648C194.145 89.1372 194.116 89.4404 194.124 90.8261C194.133 92.2368 194.179 94.7606 194.27 99.6707C194.515 112.687 194.754 125.705 195.005 138.721C195.184 148.291 195.187 148.435 195.827 150.154C196.027 150.694 196.35 151.544 196.697 152.458C197.33 154.13 198.053 156.035 198.484 157.254C199.125 159.068 199.16 159.459 199.398 162.132L199.441 162.608C199.71 165.62 200.261 171.447 200.812 177.277L200.814 177.3L200.088 177.366L200.086 177.345C199.54 171.563 198.993 165.785 198.714 162.671L198.672 162.195C198.442 159.61 198.408 159.232 197.795 157.497C197.357 156.26 196.641 154.372 196.013 152.716C195.694 151.877 195.4 151.101 195.142 150.408C194.46 148.572 194.457 148.428 194.275 138.733C194.024 125.717 193.785 112.7 193.54 99.6824C193.448 94.7753 193.402 92.2514 193.394 90.8291C193.385 89.384 193.415 89.0691 193.473 88.5791L193.615 87.4446C193.781 86.1431 194.113 83.5306 194.96 76.5632C195.613 71.1954 196.564 63.3007 197.503 55.3812C198.215 49.3813 198.915 43.3975 199.47 38.5262C200.124 32.7739 200.587 28.4695 200.928 25.137C201.275 21.7599 201.497 19.3803 201.667 17.4995C201.834 15.6487 201.954 14.2439 202.043 13.0677C202.13 11.9266 202.181 11.0784 202.215 10.3065C202.248 9.5455 202.265 8.84898 202.268 8.25426C202.272 7.61633 202.261 7.08387 202.237 6.70595C202.219 6.40273 202.192 6.22696 202.081 6.05484C201.947 5.84757 201.681 5.59342 201.188 5.14518C200.622 4.62884 199.79 3.88617 198.987 3.18232C198.307 2.58687 197.631 2.00388 197.127 1.58567C196.65 1.18871 196.368 0.979975 194.628 0.864987C192.791 0.743407 189.394 0.731683 182.689 0.731683C174.828 0.731683 162.922 0.746332 149.781 0.78222C139.386 0.810784 127.979 0.853264 116.705 0.913322C104.4 0.978506 92.2521 1.0642 81.4197 1.15648C69.4339 1.25755 59.0585 1.36668 51.8663 1.46263C45.0402 1.55345 41.0889 1.63401 38.5328 1.82004C36.0301 2.00241 34.9154 2.28513 33.7406 2.7839C32.5512 3.28853 31.2863 4.01801 30.1518 4.73943C29.0026 5.47037 28 6.18374 27.332 6.65908C26.1455 7.50355 26.1462 7.50355 26.2261 8.97349L26.2268 8.9896C26.3184 10.6602 26.5007 13.9854 26.6846 18.5461C26.7754 20.8122 26.8677 23.3976 26.9475 25.7904C27.0273 28.1612 27.0962 30.3533 27.1423 31.8481L27.1438 31.9038C27.2295 34.6906 27.2353 34.8693 28.0534 35.7094C28.5705 36.2411 29.3813 37.0153 30.2302 37.7484C30.8761 38.3072 31.5426 38.8404 32.1146 39.222C32.7555 39.6483 33.2733 39.8819 33.7501 40.0086C34.2291 40.1361 34.6803 40.1602 35.1747 40.1668C35.6866 40.1734 36.2498 40.161 37.1573 40.1199C38.0494 40.0797 39.3054 40.0094 41.2024 39.9017L41.5195 39.8834C45.3207 39.6673 51.4744 39.3158 58.2177 39.1371C61.6725 39.0455 65.2811 38.9994 69.0508 38.9825C72.8169 38.9657 76.7433 38.9767 80.8411 38.9994C84.7581 39.0213 88.8295 39.0543 92.7274 39.0916C96.9922 39.1327 101.048 39.181 104.464 39.2286C107.745 39.2747 110.439 39.3202 112.667 39.4058C114.914 39.4923 116.701 39.6197 118.152 39.827C119.621 40.0364 120.755 40.3287 121.713 40.6678C122.67 41.0062 123.451 41.3907 124.219 41.7862C124.981 42.1787 125.733 42.5838 126.478 43.0547C127.225 43.5278 127.962 44.0662 128.69 44.7239C129.406 45.3699 130.11 46.1301 130.745 46.924C131.397 47.7392 131.979 48.591 132.427 49.3945C132.875 50.1964 133.195 50.953 133.431 51.7711C133.667 52.5841 133.819 53.4505 133.936 54.4759C134.051 55.4983 134.133 56.6783 134.133 59.082C134.133 61.4543 134.054 65.0717 133.846 71.0064C133.579 78.6506 133.103 90.0871 132.676 100.349C132.442 105.982 132.223 111.263 132.06 115.366C131.94 118.409 131.852 120.778 131.782 122.682C131.58 128.12 131.518 129.793 131.279 131.603C131.115 132.838 130.871 134.129 130.556 135.419C130.246 136.692 129.866 137.967 129.429 139.186C128.988 140.416 128.491 141.586 127.924 142.707C127.356 143.831 126.719 144.91 125.999 145.955C125.283 146.993 124.489 147.996 123.657 148.922C122.816 149.858 121.927 150.723 121.035 151.473C119.344 152.897 117.671 153.885 115.757 155.015L115.45 155.197C113.415 156.4 111.081 157.779 105.184 158.424C99.9724 158.994 91.9532 158.986 82.7212 158.977L79.1441 158.976C75.4323 158.976 72.5656 158.983 69.7048 158.99C61.8768 159.008 54.2063 159.027 48.6971 158.929C44.8212 158.86 42.0088 158.734 39.8137 158.539C37.6041 158.342 36.0191 158.076 34.6085 157.73C33.3055 157.409 32.1491 157.02 31.1537 156.607C29.9804 156.12 29.0239 155.597 28.3112 155.113C27.6191 154.643 27.1431 154.201 26.8948 153.697C26.6304 153.161 26.6252 152.587 26.8933 151.889C27.3723 150.643 28.7631 148.974 30.1533 147.304L30.1562 147.301L30.7209 147.764Z" fill="#C5C6D1"/>
<path d="M28.0175 144.677L28.0095 144.693C26.2839 148.055 24.5576 151.416 23.3103 154.095C22.6936 155.421 22.2037 156.559 21.7554 157.666C21.2977 158.795 20.889 159.873 20.4364 161.073C19.9786 162.285 19.4754 163.624 19.0514 164.935C18.628 166.245 18.2779 167.541 18.1212 168.683C17.9689 169.796 17.9996 170.763 18.3006 171.654C18.6009 172.545 19.1751 173.376 20.1097 174.224C21.0113 175.042 22.2469 175.874 23.604 176.646C25.1428 177.52 26.8347 178.313 28.3749 178.915C29.8171 179.479 31.1237 179.873 32.8507 180.165C34.5938 180.46 36.7676 180.654 39.9316 180.813C43.1176 180.973 47.2916 181.1 52.5957 181.208C57.9137 181.316 64.367 181.408 72.0991 181.499C80.5679 181.6 90.5697 181.7 101.32 181.778C110.221 181.842 119.64 181.89 129.131 181.912C142.988 181.942 157.004 181.912 168.154 181.889C174.242 181.876 179.543 181.865 182.642 181.865C186.586 181.865 189.563 181.879 191.572 181.888C194.636 181.903 195.271 181.905 195.818 181.823C196.245 181.759 196.627 181.643 196.965 181.5C197.302 181.359 197.604 181.185 197.866 181.011C198.122 180.84 198.331 180.674 198.512 180.48C198.695 180.285 198.861 180.051 199.03 179.743C199.383 179.103 199.744 178.157 199.924 177.684L200.107 177.202L200.791 177.462L200.608 177.943C200.422 178.432 200.05 179.408 199.672 180.094C199.475 180.451 199.274 180.732 199.045 180.977C198.815 181.224 198.566 181.424 198.273 181.619C197.985 181.811 197.646 182.005 197.25 182.172C196.856 182.338 196.414 182.473 195.925 182.547C195.337 182.634 194.691 182.632 191.57 182.618C189.81 182.609 187.194 182.597 182.644 182.597C178.14 182.597 173.507 182.607 168.155 182.618C157.005 182.642 142.989 182.671 129.133 182.641C119.638 182.621 110.22 182.572 101.319 182.507C90.5573 182.429 80.5547 182.329 72.091 182.229C64.3516 182.137 57.8954 182.046 52.5825 181.937C47.2565 181.829 43.0751 181.702 39.8979 181.542C36.7002 181.381 34.5008 181.186 32.7313 180.886C30.945 180.584 29.5959 180.177 28.1091 179.596C26.5417 178.983 24.8162 178.176 23.2437 177.282C21.8462 176.488 20.5667 175.623 19.6204 174.765C18.587 173.828 17.9476 172.896 17.6071 171.886C17.2672 170.879 17.2291 169.807 17.3969 168.586C17.5609 167.395 17.9205 166.058 18.3556 164.712C18.7892 163.369 19.2938 162.029 19.7516 160.816C20.2137 159.591 20.6297 158.494 21.0765 157.391C21.532 156.267 22.0264 155.116 22.6453 153.786C23.8655 151.165 25.6123 147.764 27.3591 144.362L27.3671 144.346L28.0175 144.677Z" fill="#C5C6D1"/>
<path d="M18.2832 171.651C18.5835 172.071 18.8838 172.491 19.3613 172.903C19.8484 173.32 20.5258 173.741 21.5878 174.168C22.6117 174.579 23.9945 174.996 25.5546 175.393C27.3153 175.841 29.2847 176.26 31.2154 176.615C33.042 176.952 34.8437 177.235 37.3749 177.455C39.9171 177.678 43.1727 177.839 47.8865 177.929C54.1288 178.049 63.1023 178.05 75.3767 178.05C81.1379 178.05 87.6739 178.05 96.2658 178.066C106.886 178.087 119.165 178.136 131.072 178.196C145.553 178.268 159.488 178.358 169.234 178.432C180.351 178.518 186.012 178.587 189.376 178.627C191.393 178.651 192.584 178.666 193.621 178.668C195 178.671 196.12 178.653 197.014 178.608C197.884 178.562 198.526 178.491 198.972 178.386C199.717 178.213 199.823 177.945 199.93 177.679L200.268 177.814H200.635V177.88L200.608 177.949C200.431 178.393 200.254 178.84 199.139 179.1C198.654 179.213 197.97 179.29 197.051 179.337C196.156 179.383 195.024 179.401 193.621 179.398C192.574 179.396 191.382 179.381 189.368 179.357C186 179.316 180.331 179.248 169.231 179.162C159.485 179.087 145.55 178.997 131.069 178.925C119.159 178.865 106.882 178.817 96.2651 178.796C89.1768 178.782 81.8417 178.782 75.376 178.782C63.1821 178.782 54.2672 178.782 47.874 178.658C43.1134 178.567 39.8446 178.405 37.3112 178.184C34.7675 177.962 32.9416 177.676 31.0835 177.333C29.1207 176.971 27.1322 176.549 25.3744 176.101C23.7916 175.698 22.3796 175.271 21.3161 174.844C20.1655 174.382 19.4236 173.919 18.8852 173.457C18.3411 172.987 18.0151 172.53 17.6892 172.073L18.2832 171.651Z" fill="#C5C6D1"/>
<path d="M22.4836 155.855V155.929L22.455 155.998C22.2734 156.431 22.091 156.865 22.6022 157.697C22.9215 158.218 23.4862 158.881 24.2977 159.55C24.9576 160.094 25.7809 160.641 26.7682 161.118C27.8836 161.658 29.2107 162.109 30.6602 162.516C32.1257 162.927 33.7092 163.292 35.3264 163.656C36.9421 164.02 38.5922 164.384 40.7513 164.698C42.9119 165.011 45.5786 165.273 49.2238 165.433C55.2186 165.695 63.8442 165.681 72.3958 165.668L78.0471 165.66C79.7514 165.66 82.3727 165.666 84.9347 165.672C92.3708 165.687 98.8937 165.7 103.44 165.525C106.371 165.411 108.47 165.218 110.189 164.868C111.892 164.521 113.225 164.017 114.636 163.278C116.061 162.531 117.568 161.545 119.059 160.456C120.547 159.37 122.03 158.172 123.404 157.005C124.773 155.841 126.026 154.714 127.189 153.572C128.356 152.428 129.434 151.27 130.455 150.047C131.473 148.826 132.435 147.534 133.297 146.15C134.156 144.771 134.914 143.303 135.521 141.726C136.13 140.147 136.594 138.45 136.962 136.542C137.333 134.619 137.607 132.491 137.833 130.06C138.061 127.621 138.244 124.868 138.409 121.316C138.576 117.757 138.725 113.41 138.884 107.79C139.146 98.5692 139.439 85.9425 139.662 76.3171L139.83 69.1117C140.035 60.3865 140.105 57.44 139.801 54.8802C139.643 53.5487 139.384 52.3212 139.036 51.1464C138.686 49.9709 138.247 48.8423 137.727 47.7122C137.234 46.6392 136.671 45.5677 136.089 44.5599C135.442 43.4385 134.769 42.3883 134.144 41.4984C133.562 40.6708 133.027 39.9896 132.363 39.37C131.699 38.7497 130.898 38.1835 129.784 37.5815C128.616 36.9516 127.108 36.2836 125.483 35.6845C123.963 35.1242 122.343 34.6247 120.812 34.2746C119.231 33.9128 117.737 33.7099 114.945 33.5964C112.154 33.4836 108.021 33.4602 101.163 33.4602C88.0525 33.4602 66.2582 33.5386 52.9877 33.5854L48.9777 33.6001C37.0797 33.6418 35.8193 33.6462 33.9568 33.8059C32.0276 33.9714 29.5052 34.2959 26.9828 34.6211L26.9637 34.6233L26.87 33.8996L26.889 33.8974C29.4495 33.5679 32.0071 33.2383 33.8967 33.0764C35.757 32.9175 37.0234 32.9123 48.9777 32.8706L52.9877 32.8559C66.5658 32.8076 88.8684 32.7278 101.163 32.7278C107.993 32.7278 112.122 32.7512 114.974 32.8662C117.824 32.9819 119.352 33.1907 120.974 33.5613C122.54 33.9187 124.189 34.4277 125.734 34.9968C127.39 35.6069 128.931 36.2902 130.129 36.9369C131.304 37.5705 132.152 38.1718 132.861 38.8331C133.57 39.4952 134.134 40.2108 134.741 41.0765C135.371 41.9737 136.056 43.0423 136.721 44.1951C137.314 45.2234 137.889 46.3154 138.39 47.4053C138.924 48.5632 139.376 49.7248 139.736 50.9399C140.097 52.1564 140.365 53.4242 140.527 54.7938C140.836 57.391 140.766 60.3543 140.559 69.1285L140.391 76.331C140.168 85.9688 139.876 98.6146 139.613 107.809C139.453 113.45 139.304 117.802 139.139 121.347C138.973 124.902 138.789 127.666 138.56 130.124C138.33 132.591 138.053 134.744 137.68 136.677C137.304 138.625 136.83 140.362 136.202 141.987C135.576 143.614 134.798 145.122 133.917 146.535C133.041 147.943 132.057 149.261 131.015 150.512C129.975 151.759 128.88 152.936 127.701 154.092C126.519 155.252 125.253 156.391 123.875 157.561C122.503 158.729 121.01 159.934 119.488 161.044C117.97 162.153 116.432 163.159 114.974 163.923C113.501 164.694 112.111 165.22 110.335 165.583C108.575 165.941 106.439 166.138 103.465 166.253C98.9186 166.429 92.3847 166.416 84.9347 166.401C83.0494 166.396 81.0588 166.392 78.0471 166.392C75.1614 166.392 73.835 166.395 72.3958 166.397C63.8296 166.411 55.1878 166.424 49.1923 166.162C45.5134 166.001 42.8248 165.737 40.6481 165.421C38.4691 165.104 36.8007 164.736 35.166 164.367C33.5334 164 31.9346 163.631 30.4632 163.219C28.9764 162.802 27.609 162.336 26.4503 161.775C25.4095 161.272 24.5372 160.692 23.8341 160.112C22.9523 159.386 22.3341 158.656 21.9789 158.076C21.2722 156.924 21.5263 156.318 21.7804 155.713L22.1174 155.854H22.4836V155.855Z" fill="#C5C6D1"/>
<path d="M126.579 64.5274C126.648 69.2984 126.69 75.1232 126.567 80.6163C126.388 88.5856 125.862 95.8277 125.454 101.442L125.289 103.711C124.949 108.407 124.702 111.831 124.414 114.793C124.253 116.446 124.081 117.941 123.867 119.289C123.333 122.665 122.534 125.281 120.45 128.025C118.985 129.957 117.465 131.28 115.254 132.287C114.484 132.637 113.773 132.891 113.266 133.052C112.341 133.343 111.095 133.378 110.792 133.378V132.645C111.039 132.645 112.23 132.611 113.045 132.354C114.254 131.972 115.506 131.434 116.574 130.748C118.491 129.516 120.192 127.43 121.255 125.43C122.31 123.446 122.797 121.382 123.146 119.178C123.356 117.849 123.528 116.367 123.686 114.725C123.968 111.83 124.217 108.385 124.559 103.66L124.724 101.392C125.132 95.7698 125.658 88.5183 125.837 80.6038C125.958 75.1796 125.917 69.4295 125.851 64.693C126.142 64.6864 126.383 64.627 126.579 64.5274ZM91.6875 41.6997L91.6985 41.7012C99.4818 41.8843 107.266 42.0674 111.282 42.1135C112.445 42.1267 113.292 42.1289 113.929 42.1296C115.554 42.1326 115.861 42.1333 116.463 42.3113C117.585 42.6408 118.832 43.2722 119.811 43.9116C120.977 44.6733 122.044 45.6305 123.027 46.6142C123.747 47.3341 124.442 48.0878 125.071 48.8898C125.64 49.6141 126.012 50.2315 126.195 51.15C126.362 51.9813 126.381 53.0843 126.446 56.8496L126.537 61.9113C126.329 61.7743 126.082 61.6981 125.804 61.7121L125.717 56.8613C125.652 53.1597 125.634 52.0765 125.477 51.2935C125.314 50.4806 124.999 49.9818 124.496 49.3417C123.883 48.5624 123.213 47.8322 122.512 47.1313C121.09 45.7089 119.654 44.5085 117.826 43.6347C117.221 43.3447 116.667 43.1323 116.258 43.0115C115.752 42.8628 115.462 42.862 113.929 42.8591C113.289 42.8576 112.437 42.8554 111.277 42.843C107.239 42.7968 99.465 42.6137 91.6897 42.4314H91.6809L91.6875 41.6997Z" fill="#C5C6D1"/>
<path d="M22.3279 156.138L27.4467 152.301L27.0091 151.717L21.8903 155.554L22.3279 156.138Z" fill="#C5C6D1"/>
<path d="M26.1866 16.7041H26.1954C29.1558 16.1555 32.1184 15.6069 36.6704 15.2414C38.9342 15.0591 41.609 14.9221 45.1319 14.8196C48.6328 14.717 52.9731 14.6482 58.587 14.6028C64.1936 14.5566 71.0731 14.5339 78.9201 14.5222C87.7633 14.5098 96.0944 14.509 105.053 14.509H192.484C197.702 14.509 197.889 14.509 198.742 15.0012L202.59 15.3418L202.418 16.1167C202.243 16.1262 198.519 15.7138 198.379 15.634C197.699 15.2414 197.519 15.2414 192.484 15.2414H105.053C95.0603 15.2414 85.7667 15.2414 78.9201 15.2517C71.0775 15.2634 64.2009 15.2861 58.5928 15.3315C52.9921 15.3777 48.657 15.4458 45.1517 15.5491C41.6698 15.6509 39.0053 15.7886 36.7275 15.9709C32.2027 16.3342 29.2657 16.8776 26.3317 17.4204L26.3265 17.4211L26.1866 16.7041Z" fill="#C5C6D1"/>
<path d="M26.3661 22.488L26.3815 22.4828C28.266 21.9313 30.1512 21.3784 32.8032 21.0568C34.1223 20.8964 35.634 20.7932 40.2343 20.7243C44.8074 20.6562 52.4545 20.621 66.0524 20.5991C79.583 20.5764 99.0072 20.5647 118.296 20.5529C137.771 20.542 157.107 20.5295 170.1 20.5068C182.861 20.4841 189.504 20.4504 193.089 20.4321C196.793 20.4138 197.253 20.4108 197.798 20.4541C198.878 20.539 200.297 20.8012 201.717 21.0634L201.731 21.0656L201.672 21.3886L201.616 21.787L201.6 21.7841C200.201 21.5256 198.802 21.267 197.741 21.1835C197.199 21.1411 196.747 21.1433 193.093 21.1616C189.509 21.1791 182.866 21.2136 170.101 21.2363C157.108 21.259 137.771 21.2707 118.297 21.2824C99.0079 21.2934 79.5837 21.3051 66.0532 21.3286C52.4611 21.3513 44.8177 21.3857 40.2438 21.4538C35.6963 21.5219 34.1992 21.6245 32.8904 21.7834C30.2881 22.0991 28.4366 22.6418 26.5858 23.1838L26.4994 22.8842L26.3661 22.488Z" fill="#C5C6D1"/>
<path d="M195.992 0.434326L196.004 0.457762C196.862 2.18845 197.72 3.91621 198.237 4.91302L198.446 5.31364C198.831 6.04459 198.984 6.33536 199.072 6.90078C199.121 7.22157 199.147 7.62073 198.995 9.53159C198.848 11.3861 198.527 14.7507 197.883 21.0473C197.189 27.847 196.121 38.0267 195.064 47.8952C194.163 56.3121 193.269 64.5092 192.619 70.2132C191.512 79.9235 191.099 82.5191 190.905 83.7342C190.855 84.0557 190.82 84.2762 190.788 84.5435C190.721 85.0994 190.687 85.7637 190.687 87.6819C190.687 89.7114 190.722 92.8842 190.789 98.4117C190.879 105.765 191.029 117.271 191.159 127.356L191.353 142.383C191.476 152.016 191.484 152.637 191.692 153.387C191.801 153.778 191.967 154.221 192.174 154.702C192.389 155.201 192.636 155.719 192.902 156.251C193.086 156.618 193.276 156.988 193.466 157.359C193.862 158.128 194.264 158.912 194.602 159.65C194.858 160.207 195.079 160.743 195.266 161.263C195.456 161.793 195.61 162.298 195.725 162.784C195.842 163.275 195.924 163.759 195.984 164.299C196.042 164.824 196.077 165.407 196.1 166.107C196.117 166.628 196.128 167.229 196.141 167.895C196.159 168.944 196.182 170.156 196.24 171.532C196.333 173.726 196.522 176.35 196.711 178.973L196.393 178.995L195.983 179.04L195.981 179.025C195.794 176.418 195.605 173.812 195.51 171.561C195.452 170.199 195.43 168.97 195.411 167.907C195.398 167.255 195.388 166.665 195.37 166.13C195.348 165.459 195.313 164.895 195.257 164.379C195.203 163.877 195.123 163.423 195.012 162.953C194.899 162.479 194.754 161.999 194.579 161.51C194.4 161.012 194.186 160.494 193.938 159.953C193.601 159.219 193.205 158.447 192.816 157.69C192.622 157.311 192.429 156.935 192.25 156.577C191.967 156.011 191.711 155.476 191.502 154.99C191.286 154.487 191.109 154.015 190.989 153.581C190.757 152.743 190.748 152.116 190.624 142.391L190.43 127.364C190.3 117.279 190.15 105.773 190.06 98.4198C189.991 92.7333 189.956 89.5195 189.956 87.6812C189.956 85.7322 189.991 85.0452 190.062 84.4571C190.09 84.222 190.129 83.9774 190.186 83.6192C190.377 82.4166 190.785 79.8495 191.893 70.1319C192.547 64.3957 193.44 56.2059 194.338 47.8168C195.399 37.9103 196.466 27.7334 197.157 20.9718C197.795 14.7258 198.117 11.3612 198.266 9.47373C198.412 7.64271 198.391 7.28602 198.349 7.0121C198.28 6.56386 198.145 6.30533 197.802 5.65348L197.59 5.24919C197.066 4.24066 196.209 2.51217 195.35 0.781488L195.338 0.75879L195.992 0.434326Z" fill="#C5C6D1"/>
<path d="M119.382 160.305C138.307 160.239 157.231 160.17 176.156 160.109C186.31 160.076 187.872 160.071 189.416 159.97C190.221 159.917 191.023 159.837 191.722 159.758C192.45 159.676 193.032 159.597 193.42 159.546C194.14 159.449 194.14 159.449 194.718 159.087L197.944 157.065L198.33 157.683L195.107 159.705C194.395 160.152 194.394 160.152 193.514 160.27C193.1 160.325 192.48 160.407 191.801 160.485C191.094 160.565 190.281 160.647 189.461 160.7C187.919 160.801 186.35 160.807 176.155 160.839C157.23 160.901 138.305 160.969 119.38 161.036V160.305H119.382Z" fill="#C5C6D1"/>
<path d="M126.259 82.0862C127.219 82.3755 128.178 82.6648 129.107 83.2434C129.555 83.5232 129.991 83.8689 130.396 84.249C130.828 84.654 131.227 85.1023 131.571 85.5534C131.859 85.9343 132.105 86.31 132.309 86.6535C132.582 87.1142 132.787 87.5324 132.918 87.829L132.953 87.9103C133.076 88.193 133.113 88.2772 133.99 88.3747C135.133 88.5006 137.424 88.6178 138.579 88.6764L138.592 88.6772C139.746 88.7357 139.752 88.7357 146.989 88.7702C154.248 88.8046 168.767 88.8734 177.2 88.9079C185.089 88.9401 187.653 88.9423 189.381 88.9437L193.776 88.9511V89.6806L189.381 89.6732C187.652 89.6718 185.087 89.6688 177.197 89.6373C168.763 89.6029 154.245 89.5341 146.986 89.4996C139.709 89.4652 139.709 89.4652 138.554 89.4066L138.54 89.4059C137.375 89.3466 135.065 89.2286 133.91 89.1012C132.61 88.9577 132.534 88.7833 132.282 88.1996L132.249 88.1213C132.13 87.8495 131.938 87.4628 131.68 87.0256C131.484 86.6938 131.252 86.34 130.991 85.9965C130.67 85.5754 130.299 85.1587 129.896 84.7807C129.524 84.4328 129.128 84.1172 128.721 83.8645C127.875 83.3371 126.963 83.0618 126.051 82.7871L126.259 82.0862Z" fill="#C5C6D1"/>
<path d="M194.637 84.052C194.968 84.3874 195.299 84.7229 195.592 85.0437C195.895 85.3784 196.169 85.7094 196.378 86.0317C196.596 86.3657 196.744 86.6879 196.834 87.0095C196.926 87.3339 196.958 87.6569 196.945 87.9916C196.933 88.3161 196.877 88.6501 196.798 88.9745C196.72 89.2931 196.618 89.6044 196.51 89.8915C196.4 90.1852 196.282 90.4562 196.139 90.703C195.988 90.9623 195.807 91.1988 195.575 91.409C195.135 91.8104 194.532 92.099 193.93 92.3875L193.828 92.1759L193.607 91.7335L193.615 91.7291C194.166 91.4654 194.718 91.2003 195.083 90.8678C195.255 90.7111 195.392 90.5331 195.507 90.3353C195.629 90.1251 195.731 89.8915 195.826 89.6359C195.924 89.3744 196.018 89.0902 196.087 88.8017C196.157 88.5197 196.205 88.2355 196.215 87.9653C196.225 87.7053 196.199 87.4548 196.13 87.2058C196.059 86.9538 195.941 86.6982 195.765 86.4279C195.581 86.146 195.332 85.8449 195.05 85.5344C194.755 85.2107 194.435 84.8862 194.116 84.5625L194.637 84.052Z" fill="#C5C6D1"/>
<path d="M163.974 105.306C159.427 107.841 154.863 110.357 150.346 112.947C145.445 115.757 144.408 116.548 143.872 116.958C143.27 117.413 142.848 117.678 142.068 117.706C141.412 117.73 140.663 117.596 140.096 117.254C139.493 116.891 139.09 116.297 138.704 115.725L139.31 115.316C139.625 115.781 139.985 116.333 140.475 116.627C141.027 116.961 142.03 117.098 142.641 116.865C142.934 116.753 143.181 116.564 143.429 116.377C143.98 115.956 145.045 115.142 149.983 112.311C154.436 109.759 158.937 107.278 163.421 104.778C163.582 104.977 163.768 105.155 163.974 105.306ZM139.895 66.2376L139.896 66.2288C139.922 64.9654 139.95 63.7028 140.546 62.8576C141.154 61.9948 142.29 61.6527 143.294 61.5612C143.806 61.5143 144.277 61.5275 145.42 62.057C146.497 62.5565 148.215 63.5358 151.25 65.421C153.989 67.1224 157.835 69.584 161.79 72.1438C166.527 75.2111 171.393 78.4037 174.696 80.6009C177.746 82.6297 179.491 83.8301 180.554 84.6548C181.656 85.5095 182.044 85.9761 182.363 86.5232C182.987 87.5903 183.329 88.9548 183.281 90.1896C183.238 91.2729 182.891 92.2645 182.393 93.2167C181.899 94.1622 181.381 94.7166 180.565 95.3992C180.064 95.8182 179.407 96.3192 178.126 97.1431C176.851 97.962 174.962 99.0994 171.998 100.792L170.746 101.505C170.71 101.256 170.647 101.004 170.561 100.769L171.635 100.157C174.6 98.4629 176.476 97.3343 177.73 96.5279C178.977 95.7266 179.613 95.2432 180.096 94.8382C180.83 94.2237 181.302 93.7286 181.747 92.8783C182.508 91.4208 182.771 90.0959 182.365 88.4728C182.225 87.9133 182.01 87.3684 181.731 86.8916C181.457 86.4206 181.111 86.0105 180.108 85.2319C179.065 84.4234 177.332 83.2317 174.293 81.2095C170.962 78.9933 166.095 75.8 161.393 72.7553C157.462 70.2102 153.626 67.7552 150.865 66.0406C147.858 64.1722 146.165 63.2062 145.115 62.7199C144.131 62.2636 143.757 62.2497 143.36 62.2863C142.591 62.3566 141.614 62.6107 141.144 63.2772C140.628 64.0096 140.652 65.3741 140.626 66.242L139.895 66.2376Z" fill="#C5C6D1"/>
<path d="M37.12 39.8622C37.1661 42.0535 37.2115 44.2449 37.2745 46.1748C37.3368 48.0871 37.4166 49.7263 37.5309 50.8183C37.725 52.6845 38.0523 52.705 40.6919 52.8654L42.0447 52.9489C45.2146 53.1452 50.1415 53.4506 55.0574 53.6491C57.771 53.7589 60.4817 53.8373 63.1344 53.8885C65.9784 53.9435 68.8179 53.9676 71.5681 53.9676C74.2788 53.9676 76.8246 53.9435 79.0746 53.8929C81.225 53.8446 83.16 53.7714 84.7764 53.671C86.4331 53.5685 87.7339 53.4381 88.7431 53.3107C89.7539 53.1832 90.4819 53.058 90.9821 52.9672C91.3637 52.8976 91.571 52.8566 91.6413 52.7043C91.7614 52.445 91.7797 51.8964 91.7797 50.808C91.7782 49.6047 91.7555 47.9121 91.7219 45.9756C91.6874 43.9974 91.642 41.7269 91.5959 39.4557L92.3254 39.4418C92.3715 41.7049 92.4169 43.9695 92.4513 45.9639C92.4872 48.0007 92.5107 49.7204 92.5107 50.808C92.5092 52.0085 92.4821 52.6288 92.3049 53.0104C92.0785 53.4989 91.7358 53.5729 91.1103 53.6857C90.6042 53.778 89.8667 53.9047 88.8347 54.035C87.8013 54.1654 86.4807 54.298 84.8189 54.4012C83.2134 54.5008 81.2674 54.5741 79.0892 54.6232C76.7514 54.6759 74.2048 54.7001 71.5681 54.7001C68.9058 54.7001 66.0714 54.6744 63.1227 54.618C60.4494 54.566 57.7315 54.4877 55.0289 54.3785C50.0719 54.1786 45.1611 53.8739 42.0022 53.6784L40.6495 53.5948C37.4591 53.4008 37.0636 53.3766 36.8043 50.893C36.6893 49.7885 36.608 48.1311 36.545 46.1983C36.4828 44.2837 36.4366 42.0799 36.3905 39.8768L37.12 39.8622Z" fill="#C5C6D1"/>
<path d="M55.4016 53.9471L55.4031 53.9537C55.8096 56.0689 56.2153 58.1834 56.4555 59.2688C56.5661 59.7676 56.6372 60.0437 56.7566 60.177C56.8628 60.2957 57.0788 60.3543 57.489 60.4304C58.0134 60.5278 58.7985 60.6392 59.7506 60.7388C60.5592 60.823 61.4879 60.8992 62.4774 60.9512C63.568 61.0083 64.723 61.0376 65.8904 61.0515C66.9495 61.064 68.2041 61.0647 69.4163 61.0647H75.9625C78.0873 61.0647 80.1431 61.0647 81.4498 61.0435C82.128 61.0325 82.6612 61.0149 83.1204 60.9746C83.551 60.9365 83.8953 60.8779 84.2117 60.7827C84.4863 60.7007 84.7449 60.5908 84.9756 60.4736C85.2832 60.3176 85.5425 60.1485 85.7248 60.0152C85.8391 59.9317 85.9101 59.8701 85.9453 59.7698C86.0002 59.613 86.0244 59.3479 86.0361 58.8675C86.0617 57.8304 86.0207 55.8814 85.9804 53.934L86.7099 53.9193C86.7509 55.8756 86.7912 57.8326 86.7656 58.8843C86.7524 59.4475 86.7172 59.7749 86.6345 60.01C86.5319 60.3022 86.3855 60.4363 86.1562 60.604C85.9482 60.7563 85.6531 60.949 85.3037 61.1262C85.0364 61.2617 84.7368 61.3892 84.4197 61.4836C84.0505 61.5942 83.6609 61.6616 83.1826 61.7041C82.7329 61.7436 82.1778 61.7612 81.46 61.7729C79.9754 61.7971 78.0016 61.7971 75.9611 61.7971H69.4148C68.3155 61.7971 67.178 61.7971 65.8802 61.7817C64.6908 61.7671 63.5218 61.7385 62.4386 61.6814C61.4359 61.6286 60.4948 61.5517 59.6752 61.4661C58.7026 61.3642 57.8977 61.25 57.3557 61.1496C56.7807 61.0427 56.4592 60.9402 56.2117 60.6641C55.9773 60.4026 55.8791 60.0488 55.7414 59.427C55.4866 58.2727 55.0852 56.1824 54.6838 54.0914L54.6824 54.0826L55.4016 53.9471Z" fill="#C5C6D1"/>
<path d="M27.1035 5.99621C28.9997 5.90466 30.8967 5.81384 33.2733 5.73327C35.6288 5.65344 38.4427 5.58459 42.1714 5.53918C45.892 5.49377 50.5238 5.47034 56.0403 5.45936C62.2555 5.4469 68.3235 5.44617 75.2067 5.44617C89.2521 5.44617 106.622 5.44617 128.763 5.47693C139.315 5.49158 150.657 5.51356 160.883 5.55604C171.111 5.59852 180.225 5.66077 186.315 5.75598C195.32 5.8966 197.74 6.10827 198.649 6.18737C198.952 6.21374 199.075 6.22472 199.212 6.213C199.806 6.161 200.959 5.73547 202.11 5.30994L202.362 5.99694C201.163 6.44005 199.965 6.88316 199.275 6.94322C199.076 6.9608 198.933 6.94834 198.586 6.91758C197.674 6.83848 195.246 6.62608 186.304 6.48619C180.212 6.39098 171.102 6.32799 160.88 6.28624C150.654 6.24376 139.315 6.22179 128.764 6.20714C108.702 6.17858 90.183 6.17858 75.2074 6.17858C67.5787 6.17858 60.853 6.17858 56.041 6.18884C50.5311 6.20056 45.9023 6.22326 42.1809 6.26866C38.4683 6.31407 35.6573 6.38292 33.2968 6.46275C30.9589 6.54185 29.0488 6.63414 27.1379 6.72569L27.1035 5.99621Z" fill="#C5C6D1"/>
<path d="M189.34 31.0344H151.065C150.283 31.0344 149.571 31.3552 149.056 31.8708C148.539 32.3872 148.218 33.0991 148.218 33.8813V38.5797C148.218 39.3634 148.539 40.0753 149.053 40.5894C149.57 41.1058 150.282 41.4258 151.065 41.4258H189.34C190.122 41.4258 190.834 41.105 191.35 40.5894C191.866 40.0738 192.187 39.3619 192.187 38.5797V33.8813C192.187 33.0983 191.866 32.3857 191.351 31.8701C190.835 31.3545 190.123 31.0344 189.34 31.0344ZM151.065 30.302H189.34C190.323 30.302 191.218 30.7048 191.866 31.353C192.516 32.0027 192.919 32.8977 192.919 33.8813V38.5797C192.919 39.5641 192.516 40.4591 191.868 41.1072C191.219 41.7554 190.325 42.1583 189.34 42.1583H151.065C150.082 42.1583 149.188 41.7562 148.539 41.1072C147.889 40.4569 147.486 39.5619 147.486 38.5797V33.8813C147.486 32.8969 147.889 32.0019 148.538 31.353C149.186 30.7048 150.08 30.302 151.065 30.302Z" fill="#C5C6D1"/>
<path d="M183.888 120.022H148.31C147.463 120.022 146.693 120.369 146.136 120.925C145.577 121.484 145.232 122.253 145.232 123.101V152.122C145.232 152.968 145.578 153.739 146.136 154.297C146.693 154.855 147.463 155.201 148.31 155.201H183.888C184.735 155.201 185.506 154.855 186.064 154.297C186.622 153.739 186.967 152.97 186.967 152.122V123.101C186.967 122.255 186.621 121.485 186.064 120.927C185.505 120.369 184.735 120.022 183.888 120.022ZM148.309 119.29H183.888C184.936 119.29 185.889 119.719 186.58 120.409C187.271 121.099 187.699 122.053 187.699 123.101V152.122C187.699 153.17 187.271 154.122 186.58 154.813C185.889 155.504 184.936 155.934 183.888 155.934H148.309C147.261 155.934 146.308 155.504 145.617 154.814C144.927 154.125 144.498 153.17 144.498 152.122V123.101C144.498 122.055 144.927 121.102 145.617 120.41C146.311 119.719 147.264 119.29 148.309 119.29Z" fill="#C5C6D1"/>
<path d="M182.105 121.499H149.744C148.983 121.499 148.291 121.811 147.789 122.312C147.287 122.813 146.976 123.504 146.976 124.266V150.663C146.976 151.424 147.288 152.116 147.788 152.617C148.291 153.118 148.983 153.43 149.744 153.43H182.105C182.867 153.43 183.558 153.118 184.059 152.618C184.561 152.116 184.872 151.424 184.872 150.663V124.266C184.872 123.506 184.56 122.813 184.059 122.312C183.558 121.81 182.867 121.499 182.105 121.499ZM149.744 120.766H182.105C183.067 120.766 183.942 121.16 184.576 121.795C185.21 122.428 185.604 123.303 185.604 124.266V150.663C185.604 151.624 185.21 152.499 184.577 153.133C183.941 153.768 183.066 154.162 182.105 154.162H149.744C148.782 154.162 147.906 153.768 147.271 153.134C146.638 152.499 146.244 151.624 146.244 150.663V124.266C146.244 123.304 146.638 122.429 147.272 121.795C147.906 121.16 148.782 120.766 149.744 120.766Z" fill="#C5C6D1"/>
<path d="M175.8 133.33C173.798 131.412 171.029 130.225 167.97 130.225C164.911 130.225 162.142 131.412 160.14 133.33C158.141 135.245 156.904 137.891 156.904 140.811C156.904 143.732 158.14 146.377 160.14 148.292C162.142 150.211 164.911 151.396 167.97 151.396C171.029 151.396 173.798 150.211 175.8 148.292C177.799 146.377 179.036 143.732 179.036 140.811C179.036 137.891 177.799 135.245 175.8 133.33ZM167.969 129.493C171.223 129.493 174.171 130.759 176.306 132.804C178.445 134.853 179.769 137.684 179.769 140.812C179.769 143.94 178.445 146.771 176.306 148.82C174.171 150.865 171.223 152.131 167.969 152.131C164.715 152.131 161.767 150.865 159.632 148.82C157.494 146.771 156.17 143.94 156.17 140.812C156.17 137.684 157.494 134.853 159.632 132.804C161.767 130.759 164.715 129.493 167.969 129.493Z" fill="#C5C6D1"/>
<path d="M166.25 125.786C174.052 125.786 180.237 132.584 179.053 140.363C179.058 139.725 179.029 139.067 179.02 138.381C179.008 137.512 178.715 136.812 178.26 136.292C177.179 130.557 172.056 126.517 166.25 126.517C159.611 126.517 154.037 131.765 154.037 138.477C154.037 143.188 156.84 147.375 161.085 149.317C161.368 149.837 161.793 150.281 162.328 150.575C157.033 148.925 153.305 144.08 153.305 138.477C153.305 131.366 159.209 125.786 166.25 125.786Z" fill="#C5C6D1"/>
<path d="M148.303 91.4128C151.141 91.4128 153.739 93.0556 154.899 95.6425C154.494 95.0778 154.751 95.176 154.103 94.9636C152.73 93.7478 150.229 92.1445 148.303 92.1445C144.78 92.1445 141.831 94.9321 141.831 98.4901C141.831 102.048 144.78 104.836 148.303 104.836C149.151 104.836 150.433 104.486 151.175 104.196C151.711 104.294 151.824 104.461 152.439 104.286C151.267 105.094 149.841 105.568 148.303 105.568C144.38 105.568 141.099 102.449 141.099 98.4901C141.099 94.5314 144.378 91.4128 148.303 91.4128Z" fill="#C5C6D1"/>
<path d="M166.658 97.7467C169.135 97.7467 171.206 99.7184 171.206 102.217C171.206 104.716 169.135 106.688 166.658 106.688C165.166 106.688 163.77 105.972 162.914 104.754C163.259 104.805 163.51 104.953 163.857 104.976C164.788 105.447 165.602 105.956 166.658 105.956C168.734 105.956 170.474 104.316 170.474 102.217C170.474 99.5821 168.36 98.2037 165.396 98.6315C165 98.5143 164.559 98.5399 164.15 98.4886C164.87 98.0199 165.732 97.7467 166.658 97.7467Z" fill="#C5C6D1"/>
<path d="M153.279 93.3756L153.29 93.3844C154.155 94.0758 155.019 94.7687 155.825 95.3714C156.219 95.6659 156.595 95.9369 156.987 96.1829C157.372 96.4254 157.772 96.6436 158.214 96.8348C158.633 97.0135 159.088 97.1724 159.539 97.3057C160.068 97.4617 160.593 97.5848 161.044 97.669C161.455 97.7452 161.807 97.7898 162.143 97.8177C162.498 97.847 162.806 97.8587 163.136 97.869L165.417 97.9356L165.397 98.6651L163.114 98.5984C162.75 98.586 162.414 98.5743 162.083 98.5472C161.734 98.5179 161.359 98.471 160.911 98.3868C160.438 98.2989 159.889 98.17 159.333 98.0059C158.851 97.8638 158.365 97.6946 157.926 97.5049C157.442 97.2947 157.01 97.0596 156.598 96.8004C156.19 96.544 155.798 96.262 155.388 95.9552C154.593 95.3597 153.714 94.6566 152.835 93.9535L152.822 93.9447L153.279 93.3756Z" fill="#C5C6D1"/>
<path d="M151.146 104.203L151.175 104.196C152.16 103.969 153.144 103.741 154.049 103.553C154.492 103.462 154.914 103.38 155.327 103.316C155.739 103.252 156.129 103.208 156.507 103.19C156.89 103.172 157.259 103.18 157.625 103.205C157.997 103.231 158.359 103.271 158.732 103.317C159.099 103.362 159.487 103.414 159.878 103.48C160.266 103.546 160.641 103.623 160.972 103.717C161.57 103.888 162.026 104.111 162.496 104.341L162.676 104.428C163.193 104.679 163.741 104.925 164.289 105.172L164.318 105.184L164.017 105.851L163.99 105.838C163.429 105.585 162.867 105.333 162.358 105.087L162.176 104.999C161.734 104.784 161.306 104.575 160.773 104.422C160.463 104.334 160.117 104.261 159.758 104.201C159.402 104.142 159.017 104.091 158.642 104.044C158.272 103.998 157.918 103.959 157.577 103.936C157.231 103.912 156.89 103.904 156.541 103.92C156.186 103.936 155.822 103.978 155.439 104.037C155.058 104.097 154.645 104.177 154.197 104.269C153.338 104.447 152.338 104.678 151.339 104.909L151.309 104.916L151.146 104.203Z" fill="#C5C6D1"/>
<path d="M3.26512 64.756L3.26878 64.7926C5.09907 81.9017 6.92863 99.0056 8.25283 108.69C8.9142 113.525 9.44886 116.51 10.0568 118.695C10.6588 120.861 11.3348 122.248 12.2811 123.892C13.253 125.581 14.5105 127.545 15.9409 129.606C17.3171 131.59 18.8567 133.664 20.457 135.668C22.0822 137.703 23.7689 139.663 25.3802 141.456C26.9967 143.255 28.5318 144.882 29.8538 146.249C31.1751 147.616 32.2839 148.726 33.3584 149.658C34.427 150.587 35.4641 151.344 36.6462 152.011C37.8114 152.668 39.1298 153.244 40.5645 153.736C42.0418 154.242 43.6377 154.658 45.3128 154.979C46.9775 155.298 48.7163 155.526 50.5129 155.69C52.3168 155.855 54.1881 155.958 56.1063 156.026C58.0281 156.095 59.9917 156.129 62.0198 156.117C64.0441 156.106 66.144 156.049 68.3426 155.934C70.5926 155.817 72.9363 155.641 75.2207 155.409C77.3916 155.19 79.5097 154.922 81.4418 154.611C83.2955 154.313 84.9881 153.972 86.5013 153.614C88.1968 153.213 89.655 152.791 90.8569 152.382C91.9775 152.001 92.8725 151.633 93.8173 151.054C94.768 150.473 95.7809 149.673 97.1359 148.431C98.6044 147.086 100.473 145.22 102.383 143.145C104.015 141.371 105.671 139.451 107.119 137.582C108.691 135.553 110.023 133.585 111.188 131.665C112.352 129.747 113.354 127.866 114.268 126.016C115.18 124.169 116.001 122.354 116.725 120.662C117.445 118.977 118.074 117.4 118.602 116.022C119.127 114.653 119.549 113.491 119.882 112.422C120.215 111.357 120.463 110.376 120.643 109.36C120.952 107.622 121.064 105.774 121.373 100.698L121.554 97.7291C121.784 93.9974 122.105 88.9885 122.47 83.3424C122.836 77.6779 123.248 71.3601 123.66 65.0438L124.39 65.09C123.977 71.407 123.566 77.724 123.199 83.3885C122.832 89.072 122.512 94.0883 122.284 97.7723L122.103 100.741C121.792 105.854 121.679 107.716 121.364 109.486C121.179 110.532 120.922 111.542 120.58 112.639C120.239 113.733 119.813 114.907 119.285 116.283C118.761 117.652 118.13 119.233 117.397 120.948C116.668 122.654 115.841 124.48 114.922 126.339C114.005 128.197 112.993 130.094 111.811 132.042C110.631 133.99 109.283 135.982 107.697 138.028C106.232 139.918 104.563 141.855 102.921 143.639C101.009 145.718 99.1214 147.6 97.6302 148.967C96.2401 150.243 95.1921 151.069 94.1974 151.677C93.1962 152.289 92.2595 152.676 91.092 153.073C89.8682 153.489 88.3858 153.918 86.6675 154.325C85.1544 154.683 83.4464 155.026 81.5561 155.33C79.6078 155.644 77.4751 155.914 75.2918 156.134C72.992 156.367 70.6366 156.545 68.3793 156.662C66.1835 156.777 64.0712 156.834 62.022 156.845C59.9771 156.857 58.004 156.823 56.0799 156.754C54.1537 156.685 52.2699 156.582 50.447 156.415C48.6159 156.247 46.8523 156.017 45.1751 155.696C43.4627 155.368 41.8331 154.944 40.3265 154.428C38.861 153.925 37.5023 153.33 36.288 152.644C35.0561 151.949 33.9816 151.166 32.8801 150.209C31.783 149.256 30.6609 148.134 29.3272 146.754C27.9942 145.375 26.451 143.741 24.8361 141.944C23.2174 140.141 21.5212 138.171 19.8842 136.121C18.281 134.113 16.7312 132.024 15.3396 130.02C13.9019 127.948 12.6334 125.966 11.6483 124.254C10.672 122.558 9.97473 121.127 9.35291 118.888C8.73623 116.67 8.19497 113.656 7.52921 108.786C6.20135 99.076 4.37179 81.9749 2.54223 64.8688L2.53857 64.8322L3.26512 64.756Z" fill="#C5C6D1"/>
<path d="M3.98291 60.448L4.01733 60.4465C12.6063 60.0356 21.1953 59.624 29.3726 59.3955C36.7136 59.1897 43.7139 59.1318 48.238 59.0945L49.667 59.0828C54.027 59.0447 55.0582 59.0139 56.0814 58.9832H56.0887L56.1085 59.7126H56.1019C55.0817 59.7434 54.0534 59.7734 49.6728 59.8122L48.2439 59.8239C43.7271 59.8613 36.7399 59.9192 29.3931 60.125C21.2509 60.3528 12.6517 60.7644 4.05175 61.176L4.01733 61.1775L3.98291 60.448Z" fill="#C5C6D1"/>
<path d="M86.3562 59.2972L86.5386 59.3024C91.8098 59.4547 97.0758 59.6078 101.869 59.7294L104.474 59.7938C108.309 59.8876 111.786 59.9733 114.68 60.1036C116.425 60.182 117.955 60.2765 119.259 60.3812C120.652 60.4925 121.817 60.617 122.742 60.7489C123.644 60.877 124.316 61.0133 124.85 61.1546C125.389 61.2975 125.791 61.4476 126.151 61.6043C126.515 61.7618 126.837 61.9259 127.091 62.0972C127.379 62.2906 127.595 62.5023 127.709 62.7344C127.83 62.9791 127.837 63.2288 127.772 63.4632C127.702 63.7115 127.549 63.9385 127.371 64.1165C127.194 64.2938 126.998 64.4168 126.798 64.5427C126.684 64.6153 126.568 64.6878 126.462 64.7691C126.386 64.8277 126.309 64.8951 126.232 64.9624C125.994 65.1712 125.75 65.385 125.413 65.489C125.185 65.5594 124.963 65.5652 124.506 65.5777C124.094 65.5886 123.47 65.6055 122.405 65.686C121.494 65.7556 120.364 65.8626 119.025 65.9893C117.06 66.1753 114.658 66.4031 112.083 66.6016C109.865 66.7715 107.453 66.9268 104.811 67.0732C102.2 67.2183 99.3587 67.356 96.2555 67.4936C93.1735 67.6306 89.833 67.7683 86.4324 67.8796C83.0472 67.9909 79.6122 68.0774 76.3303 68.1118C73.0542 68.1462 69.9393 68.1286 66.8192 68.0832C63.6911 68.0371 60.5688 67.9624 57.2766 67.8826L49.7079 67.6972C45.3501 67.5903 40.8985 67.4797 36.6549 67.3794L35.8192 67.3596C29.3777 67.2073 23.4254 67.0666 18.1242 66.7158C15.7248 66.5569 13.4485 66.3548 11.4065 66.1431C8.73252 65.8662 6.47011 65.5733 4.85514 65.3396C3.41962 65.1316 2.48433 64.9697 1.8508 64.8115C1.166 64.6409 0.804918 64.4666 0.550039 64.2469C0.270991 64.0052 0.131833 63.721 0.0629862 63.4317C-1.075e-06 63.1666 0 62.9154 0 62.689C0 62.15 1.22234e-06 61.7296 0.811511 61.3311C1.14256 61.1686 1.61863 61.0177 2.08957 60.8902C2.53634 60.7694 3.00434 60.6632 3.31562 60.5929L3.92132 60.4552L4.08172 61.1678L3.47602 61.3055C3.18232 61.3722 2.73994 61.4725 2.27853 61.597C1.84128 61.7149 1.40769 61.8511 1.1323 61.9859C0.73314 62.1822 0.73241 62.4034 0.73241 62.6883C0.73241 62.8736 0.732408 63.0809 0.77562 63.2618C0.812241 63.4185 0.88475 63.5701 1.0283 63.6939C1.19602 63.8396 1.46921 63.9634 2.02511 64.1018C2.63301 64.2527 3.54559 64.4109 4.95768 64.6153C6.57337 64.8489 8.8292 65.1411 11.4798 65.4158C13.5064 65.626 15.771 65.8274 18.1689 65.9856C23.4862 66.3364 29.4165 66.4771 35.8353 66.6294L36.671 66.6492C40.9139 66.7495 45.3662 66.8594 49.724 66.967L57.2928 67.1531C60.5915 67.2329 63.7182 67.3076 66.8273 67.353C69.9437 67.3984 73.0549 67.4153 76.3244 67.3816C79.588 67.3472 83.0201 67.2615 86.4097 67.1494C89.7839 67.0388 93.1274 66.9011 96.224 66.7634C99.3008 66.6265 102.136 66.4895 104.771 66.343C107.377 66.198 109.783 66.0435 112.028 65.8714C114.691 65.6663 117.038 65.4436 118.955 65.262C120.348 65.1302 121.522 65.0188 122.351 64.9558C123.395 64.8767 124.054 64.8592 124.488 64.8474C124.874 64.8372 125.063 64.8321 125.199 64.7903C125.386 64.7317 125.571 64.5706 125.752 64.4124C125.839 64.3362 125.926 64.26 126.016 64.1905C126.15 64.0879 126.281 64.0059 126.409 63.9253C126.573 63.8235 126.731 63.7247 126.856 63.5994C126.954 63.502 127.035 63.3856 127.068 63.2691C127.087 63.1981 127.086 63.1256 127.054 63.0589C127.001 62.9483 126.87 62.8297 126.685 62.7052C126.466 62.5579 126.184 62.4144 125.862 62.2745C125.536 62.1339 125.168 61.9962 124.663 61.8622C124.156 61.7274 123.512 61.5977 122.638 61.4732C121.736 61.3451 120.587 61.222 119.201 61.1114C117.874 61.0045 116.353 60.9107 114.648 60.8338C111.737 60.702 108.276 60.617 104.456 60.524L101.852 60.4596C97.0348 60.3373 91.779 60.1849 86.5174 60.0326L86.335 60.0275L86.3562 59.2972Z" fill="#C5C6D1"/>
<path d="M2.29541 60.9072C2.89379 61.1365 3.49289 61.365 4.21359 61.5803C4.93867 61.7978 5.79559 62.0066 6.91325 62.1955C8.0353 62.3852 9.42981 62.5573 11.2352 62.7134C13.0552 62.8701 15.2657 63.0093 18.0012 63.1316C22.5561 63.3344 28.5677 63.4948 35.2604 63.6721L42.8379 63.8764C50.373 64.083 58.3101 64.3012 65.4115 64.3613C72.5489 64.4213 78.8586 64.3225 84.4154 64.236L91.0569 64.1393C95.2821 64.0815 99.0379 64.0302 102.546 63.927C104.867 63.8581 107.087 63.7666 109.147 63.6669C111.186 63.5673 113.077 63.4582 114.756 63.3549C116.312 63.259 117.698 63.1667 118.899 63.0803C120.202 62.9873 121.279 62.9016 122.116 62.8283C122.908 62.7588 123.452 62.7016 123.86 62.6482C124.28 62.5925 124.585 62.5368 124.883 62.4709C125.481 62.3376 126.07 62.156 126.658 61.9743L126.872 62.6723C126.275 62.8569 125.676 63.0422 125.041 63.1836C124.722 63.2546 124.398 63.3139 123.955 63.3725C123.499 63.4326 122.945 63.4912 122.179 63.5585C121.373 63.6296 120.298 63.7145 118.951 63.8105C117.783 63.894 116.4 63.9863 114.799 64.0851C113.138 64.1877 111.252 64.2961 109.183 64.3972C107.135 64.4968 104.914 64.5883 102.566 64.6572C99.068 64.7597 95.3019 64.8117 91.0657 64.8696L84.4242 64.9662C78.8659 65.0534 72.5533 65.1515 65.4064 65.0915C58.2845 65.0307 50.3503 64.8132 42.8196 64.6066L35.2436 64.4023C28.5318 64.2236 22.5026 64.0632 17.9697 63.8618C15.1895 63.738 12.9703 63.5988 11.1729 63.4436C9.36023 63.2876 7.94595 63.1118 6.79387 62.917C5.63739 62.7214 4.75264 62.5061 4.00485 62.282C3.25194 62.0564 2.6433 61.8242 2.0354 61.5913L2.29541 60.9072Z" fill="#C5C6D1"/>
<path d="M74.2896 61.4255L74.3595 64.7214L75.0888 64.706L75.0189 61.41L74.2896 61.4255Z" fill="#C5C6D1"/>
<path d="M82.9447 61.3687L83.0187 64.6213L82.2892 64.6352L82.2152 61.3826L82.9447 61.3687Z" fill="#C5C6D1"/>
<path d="M62.6643 61.3862L62.6679 61.3987C62.7419 61.7063 62.8166 62.0139 62.917 62.2021C62.9529 62.2681 62.9924 62.3186 63.0415 62.3545C63.1008 62.3977 63.1836 62.4329 63.2971 62.4643C63.4443 62.5032 63.6252 62.5339 63.8156 62.5581C64.0214 62.5852 64.236 62.6057 64.4353 62.624L64.9956 62.6694C65.175 62.6826 65.3295 62.6914 65.4533 62.6951C65.5793 62.698 65.695 62.6973 65.8063 62.6892C65.9059 62.6819 65.9975 62.6687 66.0846 62.6475C66.174 62.6255 66.2604 62.5955 66.3381 62.5625C66.4179 62.5288 66.4904 62.4907 66.5453 62.4541C66.5717 62.4365 66.5885 62.4233 66.5959 62.4116C66.609 62.3926 66.6208 62.3545 66.6354 62.2951C66.6794 62.1135 66.7174 61.8147 66.7555 61.5152V61.5063L67.4821 61.5957L67.4813 61.6038C67.4389 61.9282 67.3971 62.2512 67.3451 62.4665C67.3114 62.6057 67.2704 62.7112 67.2082 62.8078C67.1408 62.9133 67.0602 62.9888 66.9503 63.062C66.8625 63.1213 66.7482 63.1814 66.6215 63.2348C66.5072 63.2832 66.382 63.3264 66.2597 63.3564C66.1257 63.3886 65.9953 63.4084 65.8583 63.4187C65.7324 63.4275 65.5932 63.4289 65.4335 63.4245C65.2731 63.4201 65.1113 63.4114 64.9443 63.3989L64.3701 63.3506C64.1606 63.3315 63.9343 63.3095 63.7226 63.2817C63.4956 63.2524 63.281 63.2158 63.1096 63.1696C62.9045 63.1125 62.7441 63.0415 62.6108 62.9433C62.4673 62.8379 62.3618 62.7097 62.2747 62.5478C62.1304 62.279 62.0454 61.9238 61.959 61.5701L62.2344 61.5034L62.6643 61.3862Z" fill="#C5C6D1"/>
<path d="M159.053 140.665C158.932 140.548 158.764 140.476 158.578 140.476C158.392 140.476 158.224 140.548 158.103 140.665C157.987 140.777 157.915 140.933 157.915 141.105C157.915 141.277 157.987 141.434 158.103 141.546C158.224 141.663 158.392 141.735 158.578 141.735C158.765 141.735 158.932 141.663 159.053 141.546C159.169 141.434 159.242 141.278 159.242 141.105C159.242 140.933 159.17 140.777 159.053 140.665ZM158.578 139.743C158.96 139.743 159.307 139.894 159.56 140.137C159.816 140.385 159.974 140.728 159.974 141.105C159.974 141.482 159.816 141.824 159.56 142.071C159.307 142.315 158.961 142.466 158.578 142.466C158.196 142.466 157.848 142.315 157.596 142.071C157.34 141.824 157.182 141.481 157.182 141.105C157.182 140.727 157.341 140.385 157.596 140.137C157.848 139.894 158.195 139.743 158.578 139.743Z" fill="#C5C6D1"/>
<path d="M180.645 137.516C180.535 137.519 180.429 137.546 180.329 137.596C180.229 137.645 180.155 137.714 180.103 137.798C180.053 137.884 180.028 137.974 180.031 138.069C180.034 138.206 180.093 138.322 180.206 138.416C180.318 138.51 180.469 138.554 180.657 138.549C180.838 138.543 180.979 138.491 181.081 138.392C181.183 138.293 181.231 138.17 181.227 138.021C181.222 137.877 181.167 137.754 181.059 137.656C180.953 137.558 180.815 137.511 180.645 137.516ZM181.815 138.801L181.78 138.482C181.905 138.45 181.996 138.406 182.051 138.352C182.142 138.262 182.184 138.153 182.18 138.025C182.177 137.921 182.146 137.831 182.086 137.754C182.01 137.655 181.9 137.579 181.756 137.524C181.613 137.47 181.41 137.445 181.148 137.45C181.268 137.524 181.359 137.617 181.419 137.727C181.479 137.837 181.512 137.954 181.515 138.077C181.522 138.293 181.447 138.478 181.294 138.634C181.14 138.789 180.939 138.871 180.688 138.878C180.523 138.883 180.369 138.852 180.226 138.786C180.083 138.718 179.971 138.624 179.893 138.502C179.815 138.38 179.772 138.241 179.768 138.083C179.76 137.816 179.852 137.593 180.045 137.418C180.237 137.243 180.559 137.15 181.011 137.136C181.518 137.12 181.889 137.204 182.125 137.385C182.33 137.542 182.437 137.76 182.445 138.037C182.451 138.244 182.399 138.415 182.287 138.55C182.175 138.685 182.019 138.768 181.815 138.801ZM177.804 130.238L178.011 130.505C177.887 130.616 177.815 130.733 177.796 130.854C177.777 130.975 177.803 131.09 177.874 131.199C177.96 131.33 178.081 131.407 178.237 131.432C178.393 131.456 178.552 131.416 178.712 131.31C178.866 131.209 178.959 131.087 178.992 130.944C179.025 130.8 178.995 130.658 178.904 130.518C178.846 130.431 178.775 130.366 178.69 130.322C178.605 130.28 178.518 130.259 178.428 130.261L178.298 129.983L179.563 129.454L180.278 130.54L180.02 130.709L179.448 129.837L178.78 130.109C178.958 130.179 179.095 130.287 179.189 130.43C179.314 130.621 179.354 130.826 179.308 131.044C179.262 131.262 179.134 131.44 178.926 131.577C178.728 131.708 178.518 131.763 178.299 131.742C178.029 131.719 177.814 131.585 177.655 131.342C177.524 131.144 177.473 130.945 177.502 130.745C177.53 130.546 177.631 130.377 177.804 130.238ZM173.019 125.885L173.546 124.83L172.283 125.518L173.019 125.885ZM172.607 126.711L172.887 126.151L171.867 125.643L172 125.377L173.83 124.391L174.066 124.508L173.308 126.029L173.626 126.188L173.493 126.453L173.175 126.294L172.896 126.855L172.607 126.711ZM164.685 124.51L165.005 124.457C165.048 124.638 165.113 124.769 165.204 124.846C165.295 124.924 165.404 124.961 165.533 124.958C165.686 124.953 165.813 124.897 165.914 124.79C166.015 124.682 166.063 124.551 166.058 124.395C166.053 124.248 166.002 124.127 165.902 124.034C165.803 123.94 165.678 123.896 165.53 123.9C165.468 123.902 165.393 123.916 165.303 123.943L165.331 123.66C165.352 123.661 165.37 123.662 165.382 123.662C165.52 123.658 165.642 123.618 165.751 123.544C165.858 123.469 165.911 123.358 165.906 123.21C165.903 123.092 165.86 122.996 165.777 122.92C165.695 122.845 165.591 122.81 165.465 122.813C165.339 122.817 165.235 122.859 165.154 122.941C165.073 123.024 165.022 123.144 165.003 123.303L164.68 123.253C164.713 123.037 164.797 122.867 164.934 122.744C165.07 122.621 165.242 122.556 165.449 122.55C165.592 122.546 165.725 122.573 165.847 122.631C165.969 122.688 166.064 122.769 166.13 122.873C166.198 122.977 166.233 123.089 166.236 123.208C166.239 123.32 166.212 123.424 166.155 123.519C166.096 123.613 166.008 123.689 165.891 123.748C166.047 123.779 166.169 123.85 166.259 123.96C166.347 124.069 166.394 124.211 166.398 124.379C166.405 124.608 166.327 124.805 166.166 124.97C166.002 125.134 165.794 125.219 165.539 125.227C165.309 125.233 165.116 125.169 164.961 125.036C164.804 124.903 164.712 124.728 164.685 124.51ZM159.387 126.615L159.552 126.874L158.086 127.803C158.042 127.739 158.013 127.669 157.998 127.594C157.973 127.471 157.971 127.334 157.993 127.184C158.014 127.036 158.062 126.849 158.136 126.625C158.25 126.275 158.315 126.016 158.327 125.846C158.34 125.677 158.313 125.54 158.247 125.437C158.179 125.329 158.083 125.263 157.959 125.238C157.834 125.213 157.71 125.24 157.585 125.318C157.454 125.402 157.374 125.508 157.344 125.636C157.315 125.764 157.344 125.897 157.431 126.037L157.135 126.185C157.022 125.965 156.994 125.761 157.049 125.572C157.105 125.383 157.238 125.222 157.449 125.089C157.662 124.954 157.867 124.907 158.066 124.946C158.265 124.986 158.42 125.093 158.53 125.267C158.587 125.356 158.624 125.454 158.641 125.563C158.659 125.671 158.656 125.8 158.632 125.948C158.608 126.096 158.551 126.315 158.46 126.604C158.384 126.845 158.337 127.003 158.322 127.082C158.307 127.16 158.3 127.233 158.301 127.302L159.387 126.615ZM154.274 132.216L154.126 132.502L152.304 131.559C152.335 131.662 152.353 131.787 152.361 131.932C152.369 132.078 152.366 132.204 152.352 132.31L152.076 132.168C152.084 131.969 152.065 131.782 152.02 131.606C151.974 131.431 151.916 131.292 151.841 131.191L151.936 131.006L154.274 132.216ZM151.375 138.896C151.806 138.909 152.094 138.868 152.239 138.771C152.384 138.674 152.458 138.552 152.464 138.405C152.468 138.257 152.4 138.13 152.261 138.025C152.122 137.92 151.837 137.861 151.407 137.849C150.975 137.836 150.688 137.878 150.542 137.974C150.397 138.07 150.322 138.194 150.318 138.345C150.313 138.492 150.373 138.612 150.495 138.704C150.651 138.819 150.945 138.883 151.375 138.896ZM151.364 139.225C151.054 139.216 150.805 139.178 150.617 139.108C150.43 139.038 150.286 138.94 150.189 138.811C150.09 138.682 150.044 138.523 150.05 138.333C150.055 138.193 150.086 138.071 150.146 137.965C150.206 137.861 150.291 137.776 150.4 137.711C150.507 137.645 150.639 137.596 150.794 137.561C150.948 137.525 151.155 137.513 151.415 137.519C151.722 137.529 151.97 137.568 152.157 137.637C152.346 137.705 152.489 137.804 152.587 137.932C152.686 138.061 152.732 138.221 152.727 138.411C152.719 138.664 152.623 138.859 152.439 138.998C152.214 139.165 151.856 139.241 151.364 139.225ZM153.716 146.516L153.372 145.933C153.258 145.739 153.141 145.623 153.021 145.585C152.901 145.546 152.776 145.566 152.645 145.643C152.551 145.698 152.484 145.769 152.446 145.857C152.406 145.944 152.4 146.034 152.424 146.124C152.44 146.182 152.489 146.28 152.568 146.414L152.909 146.992L153.716 146.516ZM155.079 146.116L152.821 147.449L152.317 146.596C152.229 146.447 152.169 146.327 152.136 146.239C152.089 146.118 152.07 146.004 152.077 145.899C152.084 145.793 152.122 145.689 152.187 145.589C152.253 145.488 152.342 145.404 152.453 145.339C152.645 145.226 152.843 145.191 153.048 145.235C153.253 145.279 153.45 145.461 153.639 145.779L153.981 146.359L154.903 145.815L155.079 146.116Z" fill="#C5C6D1"/>
</svg>
