<svg width="194" height="288" viewBox="0 0 194 288" fill="none" xmlns="http://www.w3.org/2000/svg">
<path d="M59.9615 216.534L60.5509 216.839C82.0208 175.349 107.756 125.721 129.265 84.2517L129.559 84.4032L60.8447 216.992L69.5765 221.518L138.295 88.9199L138.588 89.0714C117.094 130.554 91.3552 180.184 69.8689 221.67L71.055 222.284C69.4566 225.37 66.0931 231.942 64.2668 235.477C64.1838 235.406 64.0916 235.35 63.9954 235.307C65.8185 231.762 69.1372 225.264 70.6098 222.425C62.1612 218.051 75.9728 225.272 60.3751 217.177L60.3981 217.132L60.1018 216.979C59.1903 218.738 58.3387 220.377 57.5484 221.896C57.466 221.823 57.3751 221.763 57.2783 221.719C58.0989 220.131 58.992 218.404 59.9615 216.534Z" stroke="#C5C6D1"/>
<path d="M137.236 73.7912C138.453 74.1106 139.904 73.7174 141.341 72.7716C143.071 71.6342 144.775 69.7032 146.044 67.2492C146.276 66.8007 146.485 66.3509 146.672 65.9024C146.775 65.9676 146.897 66.0229 147.034 66.0539C146.843 66.5123 146.63 66.9713 146.393 67.429C145.093 69.9429 143.34 71.926 141.557 73.099C139.974 74.1396 138.362 74.5472 137.004 74.133C137.097 74.0427 137.187 73.9104 137.236 73.7912ZM135.935 62.0219C135.993 61.9099 136.268 61.41 136.327 61.3C136.439 61.3718 136.561 61.4245 136.69 61.4561C135.496 63.6434 134.41 66.7204 134.497 69.2329C134.523 69.989 134.638 70.6858 134.84 71.297C134.76 71.3655 134.687 71.4478 134.622 71.5466C134.596 71.5868 134.572 71.6217 134.55 71.6527C134.285 70.9493 134.136 70.1352 134.105 69.2461C134.031 67.1136 134.635 64.5364 135.935 62.0219Z" fill="#C5C6D1"/>
<path d="M132.397 75.8052L135.658 69.4971L138.602 71.0198L135.342 77.3279C135.117 77.7612 134.748 78.0701 134.334 78.2183C133.919 78.3665 133.459 78.3533 133.055 78.1439C132.649 77.9338 132.372 77.5663 132.254 77.1428C132.135 76.7187 132.172 76.2392 132.397 75.8052ZM135.797 69.993L132.709 75.9665C132.532 76.3084 132.502 76.6864 132.596 77.0203C132.691 77.3542 132.908 77.644 133.227 77.8087C133.545 77.9733 133.908 77.9839 134.235 77.8673C134.561 77.7507 134.853 77.5077 135.029 77.1665L138.117 71.193L135.797 69.993Z" fill="#C5C6D1"/>
<path d="M134.618 70.3969L131.767 75.9127C131.203 77.004 131.634 78.3594 132.725 78.9239C133.816 79.4883 135.172 79.0562 135.735 77.9649L137.82 73.9343C137.948 73.9981 138.066 74.0502 138.183 74.0864L136.084 78.1447C135.42 79.4284 133.828 79.9361 132.544 79.2716C131.261 78.6084 130.753 77.0159 131.417 75.7316L134.381 69.9998C134.439 70.1282 134.516 70.2487 134.603 70.3706L134.618 70.3969Z" fill="#C5C6D1"/>
<path d="M134.18 79.4677C135.216 79.8437 136.406 79.3985 136.925 78.3935L138.857 74.6592C138.979 74.7119 139.107 74.752 139.239 74.7751L137.276 78.5746C136.494 80.0854 134.497 80.4575 133.225 79.3564C133.534 79.4933 133.85 79.5744 134.18 79.4677Z" fill="#C5C6D1"/>
<path d="M128.886 83.8349L131.719 78.3573C131.804 78.4567 131.908 78.5457 132.022 78.6273L129.326 83.8415L138.527 88.5986L141.881 82.1094L136.384 79.2675C136.501 79.1911 136.604 79.0969 136.69 78.9843L142.51 81.9928L138.795 89.1795L128.796 84.0101L128.886 83.8349Z" fill="#C5C6D1"/>
<path d="M146.819 73.7437L142.364 82.359L137.198 79.6883C137.369 79.6725 137.546 79.6185 137.724 79.5177L142.195 81.8294L146.38 73.7378L146.723 73.6594L146.909 73.5692L146.819 73.7437Z" fill="#C5C6D1"/>
<path d="M148.799 72.7533L143.529 82.9465L142.016 82.1786L146.398 73.7017L146.775 73.5851C146.818 73.5891 146.86 73.5911 146.899 73.5897L142.545 82.01L143.36 82.4177L148.281 72.8995C148.423 72.8277 148.549 72.7283 148.704 72.6236C148.738 72.5998 148.775 72.5715 148.814 72.5399L148.889 72.5794L148.799 72.7533Z" fill="#C5C6D1"/>
<path d="M143.618 82.772L139.993 89.7842L138.803 89.1829L138.983 88.8338L139.825 89.2546L143.179 82.7654L142.338 82.3452L142.519 81.9968L143.708 82.5975L143.618 82.772Z" fill="#C5C6D1"/>
<path d="M152.808 68.7608C151.864 70.0674 150.59 71.3471 149.047 72.4588C146.751 74.1152 144.291 75.0913 142.171 75.3323C140.154 75.5602 138.437 75.1249 137.433 73.9782C137.619 74.0316 137.821 74.0428 138.011 74.0032C138.952 74.8337 140.421 75.1367 142.127 74.9437C143.381 74.8008 144.952 74.3714 146.345 73.7082C147.236 73.2834 147.943 72.7736 148.818 72.1433C150.31 71.0672 151.544 69.8343 152.459 68.5757C152.572 68.635 152.69 68.6995 152.808 68.7608Z" fill="#C5C6D1"/>
<path d="M54.3475 228.855L57.3165 223.055L60.0899 224.504L57.1209 230.304C56.9167 230.703 56.5756 230.984 56.1896 231.115C55.8037 231.246 55.3729 231.228 54.9916 231.029C54.6103 230.83 54.3475 230.487 54.2303 230.092C54.1143 229.698 54.144 229.254 54.3475 228.855ZM57.4535 223.516L54.6419 229.009C54.4812 229.323 54.4581 229.672 54.5503 229.983C54.6419 230.294 54.8493 230.565 55.1497 230.722C55.4507 230.878 55.7898 230.893 56.0935 230.789C56.3977 230.686 56.6671 230.464 56.8278 230.149L59.64 224.657L57.4535 223.516Z" fill="#C5C6D1"/>
<path d="M57.279 221.641L53.4446 229.045C52.8802 230.136 53.3116 231.492 54.4029 232.056C55.4942 232.619 56.8503 232.189 57.414 231.097L61.1095 223.951C61.2379 224.015 61.3558 224.067 61.4723 224.103L57.7631 231.278C57.0999 232.561 55.5067 233.068 54.2231 232.405C52.9388 231.741 52.4317 230.148 53.0955 228.865L56.9563 221.487L57.279 221.641Z" fill="#C5C6D1"/>
<path d="M55.8939 232.591C56.9312 232.967 58.1213 232.522 58.6403 231.517L62.2837 224.468C62.4055 224.521 62.5339 224.561 62.667 224.585L58.99 231.697C58.2082 233.208 56.2113 233.581 54.9396 232.48C55.2478 232.617 55.5639 232.698 55.8939 232.591Z" fill="#C5C6D1"/>
<path d="M57.0044 221.948L62.3171 224.698L62.4969 224.35L57.1842 221.601L57.0044 221.948Z" fill="#C5C6D1"/>
<path d="M58.2478 232.194L64.5401 235.389L64.3478 235.74L58.0699 232.543L58.2478 232.194Z" fill="#C5C6D1"/>
<path d="M53.2798 231.384L51.7031 234.387L61.8865 239.503L64.0941 235.387L64.4392 235.57L62.0511 240.024C58.4242 238.203 54.7979 236.381 51.1716 234.559L52.9327 231.203L53.2798 231.384Z" fill="#C5C6D1"/>
<path d="M51.495 234.32L50.7185 233.919L46.859 241.347L58.2878 247.095L61.9964 239.923L61.9536 239.445L62.3435 239.409L62.3968 240.003L58.459 247.619C54.4159 245.586 50.3714 243.552 46.3289 241.518C47.7376 238.809 49.1444 236.099 50.5525 233.389L51.6761 233.97L51.495 234.32Z" fill="#C5C6D1"/>
<path d="M46.6945 241.6C45.9319 242.056 45.1692 242.513 44.5455 243.077C44.234 243.358 43.9554 243.667 43.7005 243.985C43.443 244.305 43.2079 244.635 42.9892 244.953C42.7706 245.27 42.5684 245.573 42.3583 245.943C42.1488 246.31 41.9308 246.746 41.6799 247.328C41.3928 247.993 41.0661 248.845 40.8474 249.675C40.6848 250.292 40.582 250.897 40.6005 251.403C40.6209 251.974 40.7974 252.419 41.0411 252.771C41.288 253.128 41.6055 253.395 41.8992 253.604C42.193 253.812 42.461 253.959 42.7179 254.054C42.9675 254.147 43.2072 254.19 43.4489 254.192C43.6926 254.194 43.9416 254.154 44.1964 254.076C44.4559 253.996 44.722 253.876 44.994 253.72C45.2917 253.549 45.594 253.338 45.9174 253.111C46.2157 252.903 46.5325 252.681 46.8756 252.468C47.2445 252.239 47.6429 252.02 48.0737 251.804C48.5017 251.589 48.968 251.374 49.4738 251.153C49.9797 250.932 50.5204 250.707 51.0611 250.508C51.6071 250.306 52.1583 250.13 52.6793 250.004C53.1765 249.887 53.6455 249.817 54.0795 249.786C54.5629 249.751 55.0074 249.765 55.4033 249.811C55.7807 249.856 56.1132 249.933 56.4057 250.022C56.6981 250.112 56.949 250.216 57.1611 250.319C57.3811 250.426 57.5635 250.532 57.7044 250.658C57.8592 250.799 57.9626 250.961 58.0048 251.168C58.0449 251.361 58.0285 251.586 57.9633 251.848C57.9014 252.091 57.796 252.372 57.6511 252.694C57.4937 253.045 57.2889 253.443 57.0307 253.857C56.8193 254.198 56.5697 254.551 56.2759 254.902C55.9539 255.286 55.5824 255.664 55.2136 255.988C54.8362 256.32 54.4601 256.6 54.1414 256.779C53.4736 257.156 53.0474 257.115 52.622 257.073L52.4455 256.879L52.4685 256.666L52.6602 256.683C53.025 256.718 53.3886 256.753 53.9491 256.438C54.2468 256.27 54.5998 256.008 54.9548 255.695C55.3111 255.381 55.668 255.019 55.9763 254.65C56.2542 254.318 56.4933 253.979 56.6987 253.649C56.949 253.248 57.1459 252.865 57.2961 252.531C57.4311 252.232 57.5286 251.973 57.5852 251.75C57.6359 251.545 57.6498 251.379 57.6228 251.247C57.5984 251.128 57.5372 251.033 57.443 250.948C57.3336 250.849 57.1815 250.761 56.9918 250.67C56.7949 250.574 56.5631 250.477 56.2917 250.394C56.021 250.311 55.7108 250.24 55.3585 250.198C54.9877 250.155 54.5688 250.142 54.1098 250.174C53.6948 250.205 53.2477 250.27 52.7741 250.383C52.2709 250.504 51.7348 250.676 51.2007 250.874C50.6613 251.073 50.1285 251.294 49.6332 251.51C49.1406 251.726 48.6815 251.937 48.2528 252.153C47.8273 252.366 47.4388 252.58 47.0844 252.799C46.7452 253.009 46.4364 253.225 46.1446 253.429C45.8094 253.664 45.4965 253.882 45.1923 254.057C44.8959 254.228 44.6028 254.358 44.315 254.448C44.0219 254.538 43.7328 254.584 43.4469 254.581C43.1591 254.579 42.8766 254.529 42.5835 254.42C42.2964 254.314 41.9987 254.151 41.6753 253.922C41.3519 253.693 41.0002 253.396 40.721 252.991C40.4384 252.583 40.2336 252.07 40.2106 251.414C40.1908 250.869 40.2995 250.224 40.4714 249.572C40.6966 248.716 41.0305 247.846 41.3223 247.169C41.5778 246.577 41.8024 246.129 42.0198 245.747C42.2364 245.367 42.4452 245.054 42.6691 244.73C42.8924 244.406 43.1321 244.069 43.3976 243.738C43.665 243.405 43.9587 243.08 44.2854 242.785C44.938 242.195 45.7172 241.728 46.4963 241.262L46.6945 241.6Z" fill="#C5C6D1"/>
<path d="M57.618 251.179L57.9006 249.263C57.9796 248.727 58.0771 248.05 58.1746 247.368L58.1798 247.329L58.5678 247.384L58.5618 247.423C58.4788 248.008 58.3939 248.597 58.2878 249.32C58.1943 249.959 58.1001 250.598 58.0053 251.237L57.618 251.179Z" fill="#C5C6D1"/>
<path d="M42.374 249.53C41.9011 249.68 41.4855 250.01 41.2399 250.486C40.9942 250.963 40.9639 251.493 41.1147 251.966C41.2649 252.439 41.5962 252.855 42.0717 253.101C42.5479 253.347 43.0787 253.376 43.5509 253.226C44.0245 253.075 44.44 252.745 44.6864 252.269C44.9327 251.792 44.9617 251.262 44.8108 250.789C44.6607 250.316 44.3294 249.9 43.8539 249.655C43.3777 249.41 42.8469 249.379 42.374 249.53ZM40.8902 250.307C41.1859 249.735 41.6858 249.337 42.2548 249.155C42.8238 248.975 43.4614 249.011 44.0337 249.306C44.606 249.601 45.0038 250.102 45.1849 250.671C45.366 251.239 45.3298 251.877 45.0341 252.449C44.7384 253.021 44.2385 253.419 43.6701 253.6C43.1018 253.781 42.4629 253.746 41.8912 253.45C41.3189 253.154 40.9211 252.654 40.74 252.085C40.5589 251.517 40.5951 250.878 40.8902 250.307Z" fill="#C5C6D1"/>
<path d="M44.1154 282.663L1.99557 248.501L0.505149 251.099L42.4353 285.332L55.7075 287.411L57.0194 284.943L44.1549 282.696L44.1154 282.663ZM2.06275 248.052L44.3215 282.327L57.6187 284.65L55.9215 287.84C51.3699 287.129 46.8189 286.415 42.2686 285.701C28.1771 274.202 14.0863 262.699 0 251.193L1.88427 247.907L2.06275 248.052Z" fill="#C5C6D1"/>
<path d="M44.0732 282.404C44.4157 281.876 44.7588 281.348 45.1 280.852C45.4445 280.352 45.785 279.891 46.1156 279.506C46.4554 279.111 46.788 278.791 47.1529 278.53C47.5197 278.267 47.9169 278.065 48.3805 277.908C48.8356 277.754 49.3553 277.645 49.9427 277.558C50.5197 277.474 51.1684 277.412 51.8889 277.352C52.6002 277.294 53.3411 277.24 54.0241 277.195C54.7999 277.143 55.5422 277.101 56.1158 277.074C56.6618 277.047 57.0438 277.035 57.3244 277.037C57.6148 277.039 57.8078 277.055 57.9665 277.084C58.1424 277.116 58.2761 277.166 58.3926 277.255C58.5079 277.345 58.5968 277.465 58.6785 277.64C58.7516 277.793 58.8227 277.992 58.8872 278.215C58.9531 278.442 59.0117 278.698 59.0611 278.955C59.1085 279.21 59.1454 279.464 59.1599 279.737C59.1757 280.011 59.1704 280.305 59.1336 280.639C59.0967 280.981 59.0282 281.361 58.9301 281.748C58.8379 282.11 58.72 282.483 58.5757 282.842C58.2794 283.579 57.8816 284.241 57.6827 284.571L57.4864 284.898L57.1505 284.696L57.3461 284.369C57.5411 284.046 57.929 283.4 58.2128 282.696C58.3485 282.357 58.4611 282.001 58.55 281.652C58.6449 281.279 58.7101 280.917 58.7443 280.597C58.7773 280.288 58.7825 280.015 58.768 279.759C58.7536 279.501 58.72 279.264 58.6745 279.028C58.6297 278.787 58.5724 278.544 58.5092 278.325C58.4499 278.122 58.386 277.942 58.3235 277.809C58.2675 277.689 58.2148 277.614 58.1529 277.566C58.0917 277.52 58.0093 277.491 57.8941 277.47C57.763 277.446 57.5905 277.433 57.3204 277.431C57.0399 277.429 56.6638 277.441 56.133 277.466C55.5771 277.493 54.8375 277.535 54.0485 277.587C53.3122 277.635 52.566 277.689 51.9185 277.742C51.2105 277.801 50.5724 277.863 49.9981 277.946C49.4343 278.029 48.937 278.133 48.505 278.28C48.0802 278.424 47.7173 278.609 47.3808 278.85C47.0429 279.092 46.7307 279.392 46.4119 279.763C46.0853 280.143 45.7533 280.593 45.4207 281.076C45.0849 281.564 44.743 282.092 44.4012 282.618L44.0732 282.404Z" fill="#C5C6D1"/>
<path d="M58.1495 277.562C57.0852 276.597 56.0203 275.632 55.4453 275.128C55.1759 274.893 55.0218 274.765 54.8493 274.707C54.6708 274.646 54.4356 274.645 54.0003 274.663C53.5426 274.682 52.878 274.721 52.1957 274.764C51.5338 274.806 50.8225 274.855 50.2805 274.892C49.751 274.929 49.3927 274.954 49.0911 274.989C48.7914 275.023 48.5398 275.068 48.2151 275.145C47.8568 275.229 47.411 275.352 46.9539 275.506C46.5831 275.631 46.2057 275.777 45.8606 275.938C45.478 276.117 45.1361 276.317 44.82 276.54C44.5006 276.766 44.2068 277.015 43.9236 277.29C43.674 277.535 43.4264 277.805 43.1933 278.077C42.8995 278.42 42.6354 278.759 42.4201 279.049C42.0308 279.574 41.797 279.941 41.5639 280.307L41.5625 280.311L41.4802 280.258L41.2286 280.105L41.2319 280.102C41.4723 279.724 41.7121 279.346 42.1059 278.816C42.3279 278.517 42.5985 278.169 42.8949 277.822C43.1287 277.548 43.3836 277.271 43.6503 277.012C43.9506 276.719 44.2602 276.457 44.5934 276.222C44.93 275.985 45.2909 275.773 45.6933 275.584C46.0516 275.416 46.4441 275.265 46.8288 275.135C47.2983 274.977 47.7567 274.849 48.1269 274.764C48.4647 274.684 48.7295 274.637 49.0469 274.6C49.3624 274.564 49.7214 274.538 50.2522 274.502C50.7718 274.466 51.464 274.418 52.1714 274.374C52.8576 274.33 53.5255 274.291 53.9845 274.272C54.4673 274.253 54.7347 274.256 54.9724 274.336C55.2168 274.417 55.3952 274.565 55.7015 274.834C56.2797 275.341 57.3454 276.306 58.4103 277.273L58.1495 277.562Z" fill="#C5C6D1"/>
<path d="M1.79468 248.073C2.25109 247.568 2.70816 247.064 3.12967 246.615C3.55974 246.158 3.97005 245.741 4.34282 245.403C4.71757 245.063 5.05016 244.809 5.39264 244.621C5.74038 244.429 6.09603 244.306 6.51359 244.231C7.08986 244.127 7.77481 244.114 8.49928 244.102C8.8029 244.097 9.11376 244.091 9.40947 244.08C9.78422 244.066 10.1827 244.039 10.5857 244.012C11.2483 243.968 11.926 243.923 12.6485 243.926C13.2294 243.927 13.8307 243.962 14.6078 244.196C15.3771 244.428 16.3156 244.855 17.5716 245.645C20.0631 247.211 24.1583 250.467 27.9216 253.465L27.8135 253.525L27.6193 253.623L27.4638 253.615C23.7091 250.625 19.8365 247.532 17.3628 245.977C16.1371 245.207 15.2302 244.791 14.4932 244.57C13.7642 244.35 13.1965 244.318 12.6465 244.316C11.955 244.313 11.2753 244.358 10.6108 244.402C10.2189 244.429 9.83098 244.454 9.42462 244.47C9.1052 244.483 8.80224 244.488 8.50587 244.493C7.79589 244.506 7.12543 244.518 6.5834 244.615C6.20865 244.683 5.89054 244.793 5.58166 244.963C5.2675 245.136 4.95862 245.373 4.60561 245.692C4.2493 246.015 3.84492 246.427 3.41551 246.883C2.97819 247.348 2.53166 247.842 2.08512 248.335L1.79468 248.073Z" fill="#C5C6D1"/>
<path d="M6.51562 251.956C6.69477 251.643 6.87391 251.331 7.08137 251.024C7.2941 250.709 7.53712 250.396 7.84337 250.083C8.13514 249.786 8.48486 249.491 8.85565 249.217C9.25279 248.923 9.6743 248.654 10.076 248.432C10.4673 248.217 10.8413 248.045 11.2082 247.911C11.5783 247.777 11.9412 247.68 12.3107 247.614C12.6769 247.548 13.0477 247.515 13.4942 247.496C13.9361 247.479 14.4485 247.477 15.1038 247.476C15.7578 247.475 16.5541 247.477 17.4228 247.478L20.1705 247.484L20.1698 247.876L17.4221 247.87C16.5541 247.868 15.7572 247.868 15.1032 247.868C14.4505 247.869 13.9407 247.87 13.51 247.888C13.0832 247.905 12.7282 247.938 12.3792 248C12.0328 248.062 11.6909 248.153 11.3432 248.28C10.9928 248.407 10.6372 248.57 10.2657 248.776C9.87715 248.99 9.47079 249.25 9.09011 249.531C8.73578 249.792 8.40319 250.073 8.12394 250.359C7.83811 250.65 7.60891 250.945 7.4087 251.242C7.20321 251.547 7.03 251.848 6.85613 252.151L6.51562 251.956Z" fill="#C5C6D1"/>
<path d="M13.6007 247.844L46.8344 275.46L47.0856 275.158L13.852 247.541L13.6007 247.844Z" fill="#C5C6D1"/>
<path d="M22.6442 254.966L22.6468 254.966C24.5917 254.3 26.5365 253.634 28.5472 253.263C29.4344 253.1 30.3327 252.994 31.1863 252.929C32.2651 252.847 33.2721 252.83 34.0914 252.841C34.8251 252.851 35.4079 252.883 35.9045 252.933C36.4051 252.982 36.816 253.048 37.204 253.121C37.6268 253.202 38.0068 253.29 38.3282 253.364C38.616 253.43 38.8577 253.486 39.0145 253.513C39.2549 253.553 39.293 253.511 39.4241 253.337L40.3303 252.135L40.6438 252.371L39.7488 253.559C39.4933 253.898 39.4327 253.98 38.9499 253.899C38.7648 253.868 38.5251 253.812 38.2393 253.747C37.9106 253.671 37.5234 253.582 37.1289 253.507C36.7482 253.434 36.3471 253.37 35.865 253.323C35.3783 253.275 34.8066 253.243 34.0855 253.233C33.278 253.222 32.2835 253.239 31.2159 253.321C30.3768 253.385 29.4917 253.488 28.6177 253.649C26.6366 254.014 24.7049 254.676 22.7733 255.337L22.7719 255.338L22.6442 254.966Z" fill="#C5C6D1"/>
<path d="M36.0731 266.161C37.5115 265.401 38.9486 264.641 40.5431 264.064C41.2906 263.794 42.0658 263.566 42.8324 263.376C43.7064 263.161 44.5685 262.994 45.3608 262.873C46.1004 262.76 46.7847 262.685 47.4084 262.648C48.0452 262.609 48.6163 262.609 49.1135 262.648C49.5844 262.683 49.9921 262.752 50.3398 262.812C50.6942 262.872 50.9807 262.921 51.1901 262.906C51.3594 262.894 51.4832 262.835 51.5932 262.719C51.7222 262.584 51.8447 262.371 51.9982 262.075C52.1517 261.776 52.3275 261.415 52.4948 261.056C52.6871 260.643 52.8781 260.219 53.0217 259.883C53.1514 259.579 53.2383 259.358 53.291 259.188C53.3391 259.036 53.3556 258.933 53.351 258.851C53.3431 258.736 53.2831 258.63 53.1909 258.47C53.1567 258.411 53.1198 258.346 53.0724 258.257C52.8998 257.935 52.6812 257.449 52.4632 256.964L52.4612 256.959L52.8175 256.796L52.8201 256.802C53.0375 257.285 53.2535 257.767 53.4175 258.074C53.4544 258.142 53.4945 258.213 53.5301 258.275C53.65 258.483 53.7277 258.62 53.7415 258.828C53.7501 258.96 53.7277 259.107 53.6658 259.306C53.6098 259.487 53.5183 259.72 53.3819 260.038C53.2416 260.364 53.05 260.793 52.8491 261.222C52.6713 261.602 52.4935 261.973 52.3459 262.256C52.178 262.58 52.039 262.819 51.8757 262.989C51.6946 263.179 51.4937 263.277 51.2178 263.297C50.9642 263.315 50.656 263.263 50.2733 263.198C49.9394 263.141 49.5455 263.074 49.0845 263.039C48.6024 263.002 48.0499 263.002 47.4327 263.039C46.8249 263.076 46.1518 263.149 45.4187 263.261C44.6317 263.383 43.7814 263.546 42.9252 263.757C42.1679 263.944 41.4052 264.168 40.6755 264.431C39.1179 264.996 37.6867 265.752 36.2562 266.507L36.0731 266.161Z" fill="#C5C6D1"/>
<path d="M44.3735 266.028L54.979 274.35L54.738 274.659L43.7656 266.024L44.3735 266.028Z" fill="#C5C6D1"/>
<path d="M37.9778 267.737L37.9804 267.734C39.05 267.222 40.1196 266.707 41.0548 266.386C41.5237 266.226 41.9591 266.115 42.3891 266.031C42.8185 265.947 43.2381 265.892 43.68 265.843V265.842C44.1074 265.795 44.5731 265.751 45.044 265.715C45.5063 265.68 45.9601 265.653 46.3711 265.636C46.7847 265.62 47.1574 265.614 47.5032 265.618C47.8503 265.621 48.1723 265.633 48.4839 265.655C48.796 265.675 49.095 265.704 49.3723 265.736C49.6581 265.77 49.913 265.805 50.133 265.837C50.3615 265.871 50.5604 265.903 50.7481 265.943C50.9372 265.985 51.117 266.034 51.3093 266.104C51.6801 266.238 52.0765 266.444 52.4724 266.649L52.473 266.647L52.4737 266.648L52.2932 266.997L52.2926 266.996V266.996C51.9079 266.796 51.5227 266.598 51.1756 266.471C51.0083 266.41 50.8436 266.365 50.6658 266.326C50.4873 266.288 50.2963 266.257 50.0757 266.224C49.8472 266.191 49.5916 266.156 49.3269 266.125C49.0535 266.093 48.7605 266.065 48.4582 266.045C48.1546 266.025 47.8404 266.012 47.4999 266.009C47.1574 266.005 46.7912 266.012 46.3869 266.028C45.9772 266.043 45.528 266.07 45.0736 266.105C44.6336 266.139 44.1733 266.182 43.7241 266.232C43.2868 266.28 42.8758 266.334 42.4635 266.415C42.0532 266.495 41.635 266.602 41.1812 266.757C40.2704 267.069 39.21 267.579 38.1497 268.088L38.0963 267.978L37.9778 267.737Z" fill="#C5C6D1"/>
<path d="M52.2511 267.535V267.531C52.205 266.937 52.1589 266.342 51.9574 265.625C51.8553 265.262 51.7143 264.868 51.5536 264.458C51.3883 264.037 51.2066 263.607 51.0248 263.178L51.385 263.026C51.5701 263.464 51.7552 263.901 51.9178 264.315C52.0838 264.739 52.23 265.146 52.3347 265.519C52.5455 266.271 52.5942 266.884 52.6417 267.498V267.502L52.4994 267.513L52.2511 267.535Z" fill="#C5C6D1"/>
<path d="M55.1101 274.662C55.3867 273.953 55.662 273.243 55.7707 272.571C55.8214 272.259 55.8359 271.953 55.8253 271.668C55.8128 271.345 55.7674 271.047 55.7015 270.792C55.6423 270.558 55.5672 270.364 55.4592 270.177C55.3498 269.987 55.2056 269.801 55.0107 269.589C54.8065 269.367 54.5483 269.116 54.2789 268.879C54.0188 268.649 53.7521 268.433 53.5196 268.269C53.2864 268.106 53.0875 267.995 52.9057 267.911C52.7273 267.828 52.5567 267.769 52.3848 267.711C52.2168 267.654 52.0496 267.599 51.8803 267.568C51.7137 267.538 51.5345 267.526 51.3297 267.555C51.1275 267.582 50.901 267.648 50.6586 267.74C50.3879 267.843 50.0961 267.982 49.7978 268.142C49.2268 268.451 48.6334 268.842 48.0393 269.232H48.0387L47.8226 268.906V268.905C48.4233 268.51 49.0233 268.116 49.6121 267.797C49.921 267.631 50.2272 267.484 50.519 267.373C50.7896 267.27 51.0452 267.197 51.2764 267.166C51.5253 267.131 51.7446 267.144 51.9508 267.182C52.1536 267.22 52.3328 267.278 52.5112 267.337C52.6871 267.397 52.8649 267.459 53.0697 267.553C53.2713 267.647 53.4906 267.769 53.7435 267.947C53.9905 268.121 54.2691 268.345 54.5371 268.582C54.8137 268.827 55.0824 269.089 55.2971 269.321C55.5132 269.556 55.6739 269.764 55.7977 269.98C55.9241 270.199 56.0124 270.425 56.0809 270.692C56.1514 270.97 56.2021 271.296 56.2152 271.649C56.2271 271.962 56.212 272.294 56.1566 272.632C56.0414 273.345 55.7569 274.076 55.4723 274.808L55.4697 274.815L55.2688 274.729L55.1075 274.666L55.1101 274.662Z" fill="#C5C6D1"/>
<path d="M50.8167 271.324C50.9905 271.12 51.1651 270.918 51.3574 270.714C51.5464 270.516 51.74 270.33 51.9475 270.173C52.1595 270.011 52.3848 269.878 52.6153 269.778C52.8432 269.681 53.077 269.617 53.3082 269.592C53.536 269.568 53.7613 269.583 53.9714 269.627C54.1966 269.675 54.4067 269.757 54.5885 269.863C54.7676 269.966 54.9198 270.094 55.0482 270.243C55.176 270.391 55.2807 270.56 55.3656 270.75C55.4486 270.935 55.5145 271.142 55.5612 271.361C55.608 271.58 55.6363 271.813 55.6449 272.048C55.6521 272.279 55.6416 272.515 55.6152 272.75C55.5876 272.99 55.5435 273.225 55.4842 273.443C55.3702 273.868 55.203 274.228 55.0357 274.587L54.6807 274.421C54.8394 274.079 54.9981 273.739 55.1055 273.339C55.1595 273.138 55.1997 272.923 55.2254 272.703C55.2497 272.491 55.2589 272.274 55.2524 272.06C55.2445 271.844 55.2201 271.636 55.1779 271.443C55.1378 271.251 55.0798 271.072 55.0074 270.91C54.9369 270.754 54.8526 270.617 54.7505 270.498C54.6504 270.382 54.5318 270.282 54.3916 270.201C54.2447 270.115 54.0735 270.049 53.8897 270.009C53.7171 269.974 53.5327 269.962 53.3483 269.98C53.1573 270.001 52.9624 270.055 52.7694 270.137C52.5699 270.223 52.3729 270.341 52.1846 270.484C51.9949 270.628 51.8158 270.799 51.6419 270.983C51.4706 271.163 51.2928 271.37 51.1157 271.578L50.8167 271.324Z" fill="#C5C6D1"/>
<path d="M46.7392 252.989C46.6174 253.239 46.4949 253.489 46.3856 253.752C46.2828 254.001 46.1972 254.25 46.1472 254.5C46.0964 254.748 46.08 254.998 46.1044 255.286C46.1287 255.58 46.1939 255.915 46.3085 256.322C46.4185 256.714 46.5726 257.171 46.7412 257.629C46.9329 258.147 47.139 258.656 47.3195 259.063C47.4907 259.447 47.6442 259.75 47.7851 260C47.9241 260.247 48.0472 260.435 48.1632 260.592C48.2666 260.734 48.368 260.858 48.4628 260.965C48.5721 261.087 48.6703 261.182 48.7539 261.253C48.8988 261.377 48.9983 261.429 49.0977 261.481L48.9179 261.829C48.7987 261.768 48.6802 261.706 48.4997 261.552C48.4049 261.471 48.2936 261.364 48.1711 261.226C48.0729 261.117 47.9636 260.983 47.8464 260.823C47.7199 260.649 47.5875 260.449 47.444 260.193C47.3024 259.941 47.1449 259.629 46.9638 259.222C46.7742 258.796 46.5641 258.278 46.3737 257.765C46.2018 257.3 46.0438 256.83 45.9311 256.428C45.81 255.995 45.7395 255.637 45.7138 255.317C45.6861 254.99 45.7052 254.704 45.7625 254.422C45.8185 254.143 45.9127 253.87 46.024 253.6C46.13 253.345 46.2578 253.081 46.3876 252.817L46.7392 252.989Z" fill="#C5C6D1"/>
<path d="M44.2873 259.658L44.2905 259.66C44.9913 260.063 45.6921 260.468 46.265 260.756C46.5476 260.899 46.8018 261.015 47.0415 261.108C47.2767 261.2 47.4953 261.268 47.7113 261.317C47.9254 261.365 48.1368 261.395 48.362 261.404C48.5853 261.415 48.8231 261.404 49.0852 261.374C49.3737 261.34 49.6898 261.281 49.9881 261.187C50.2338 261.111 50.4683 261.011 50.6672 260.883C50.8845 260.743 51.065 260.565 51.2263 260.364C51.3916 260.155 51.5352 259.925 51.6715 259.687L51.6722 259.685C51.8105 259.443 51.9442 259.191 52.0581 258.942C52.1701 258.695 52.2636 258.451 52.3249 258.218C52.3855 257.987 52.4164 257.765 52.4309 257.545C52.4461 257.319 52.4447 257.099 52.4441 256.88L52.836 256.878C52.8366 257.108 52.8373 257.337 52.8221 257.571C52.807 257.812 52.7721 258.058 52.7042 258.319C52.6364 258.575 52.5356 258.84 52.4144 259.105C52.2959 259.366 52.1569 259.628 52.0127 259.881C51.8645 260.137 51.7124 260.385 51.5339 260.608C51.3501 260.839 51.1381 261.045 50.8792 261.212C50.6468 261.361 50.3813 261.475 50.1074 261.561C49.778 261.663 49.4382 261.728 49.1313 261.763C48.8494 261.796 48.5919 261.807 48.3449 261.796C48.0979 261.785 47.8622 261.753 47.6251 261.699C47.3886 261.646 47.1515 261.572 46.8999 261.474C46.6523 261.378 46.3862 261.256 46.0885 261.105C45.5017 260.808 44.799 260.404 44.0969 259.999L44.0936 259.997L44.2873 259.658Z" fill="#C5C6D1"/>
<path d="M39.1581 253.618C39.4525 254.212 39.7469 254.804 40.1895 255.478C40.4226 255.832 40.6959 256.21 41.0048 256.589C41.286 256.934 41.5949 257.281 41.9302 257.617C42.2832 257.97 42.6698 258.317 43.0722 258.658C43.4832 259.008 43.8974 259.341 44.3123 259.676L44.066 259.98C43.6412 259.638 43.2171 259.297 42.8193 258.958C42.4129 258.614 42.0197 258.261 41.6535 257.894C41.3058 257.546 40.987 257.189 40.6999 256.837C40.3805 256.444 40.0992 256.056 39.8615 255.695C39.407 255.003 39.1067 254.399 38.8064 253.794L39.1581 253.618Z" fill="#C5C6D1"/>
<path d="M138.443 61.2606L166.823 75.8718C166.644 75.9251 166.488 76.0154 166.357 76.1326L137.652 61.3686C137.867 61.3785 138.213 61.3851 138.443 61.2606ZM137.845 36.9917L145.63 33.5781L151.537 37.8874L177.235 51.1109C177.142 51.2281 177.07 51.3605 177.023 51.5014L151.383 38.3089L145.619 34.1116L137.745 37.5627C137.827 37.4428 137.809 37.1425 137.845 36.9917Z" fill="#C5C6D1"/>
<path d="M158.787 41.8588C159.12 42.8513 159.26 44.0526 159.211 45.3961C159.105 48.2683 158.132 51.8057 156.321 55.3259C154.509 58.8468 152.196 61.6933 149.92 63.4492C148.501 64.5458 147.089 65.2195 145.814 65.3736C145.72 65.2182 145.595 65.0773 145.443 64.9613C146.712 64.9047 148.168 64.2421 149.65 63.0988C151.876 61.3812 154.143 58.5867 155.926 55.1224C157.709 51.6582 158.664 48.188 158.768 45.3797C158.822 43.9228 158.647 42.6484 158.24 41.652C158.407 41.733 158.603 41.8252 158.787 41.8588Z" fill="#C5C6D1"/>
<path d="M156.662 40.643C157.033 41.6631 157.189 42.9178 157.137 44.3292C157.031 47.2014 156.06 50.7381 154.248 54.259C152.436 57.7799 150.123 60.6257 147.848 62.3822C146.418 63.4847 144.999 64.1604 143.716 64.3099C143.609 64.169 143.467 64.0458 143.289 63.951L143.187 63.8983C144.498 63.9009 146.023 63.2311 147.578 62.0325C149.802 60.3148 152.071 57.5204 153.853 54.0561C155.636 50.5918 156.591 47.1217 156.695 44.3127C156.75 42.8085 156.563 41.4991 156.128 40.4895C156.241 40.5369 156.342 40.5712 156.427 40.5857L156.662 40.643Z" fill="#C5C6D1"/>
<path d="M177.03 51.0061C178.18 51.4994 178.587 51.7609 179.254 52.1448C180.911 53.1163 181.617 54.9083 181.411 57.7107C181.209 60.4591 180.305 63.8746 178.409 67.1406C178.391 67.1762 178.366 67.2111 178.348 67.246C176.422 70.5324 174.023 73.1319 171.702 74.6784C169.703 76.0107 167.751 76.5666 166.186 76.1207C166.299 76.0087 166.391 75.8764 166.456 75.7328C167.867 76.0654 169.63 75.5266 171.457 74.3095C176.345 71.0527 180.538 63.5459 180.968 57.6784C181.108 55.7606 180.862 53.6096 179.018 52.5209C178.478 52.2081 178.091 51.9716 176.96 51.4704C176.963 51.3189 177.084 51.1457 177.03 51.0061Z" fill="#C5C6D1"/>
<path d="M151.494 37.9783C151.998 39.1144 152.171 40.6015 152.03 42.3047C151.511 48.4837 146.988 56.3501 141.908 59.9046C140.986 60.5493 140.075 61.0295 139.209 61.3199C138.949 61.4068 135.46 61.6887 135.209 61.7414C135.079 61.5939 134.932 61.4727 134.765 61.3706C134.974 61.3416 138.421 61.0868 138.639 61.0288C139.586 60.7799 140.608 60.2714 141.653 59.5404C146.627 56.0603 151.081 48.3144 151.588 42.2658C151.743 40.4092 151.513 38.8325 150.879 37.7366C151.074 37.8545 151.284 37.9368 151.494 37.9783Z" fill="#C5C6D1"/>
<path d="M145.583 33.5043C146.387 34.7576 146.742 36.4654 146.661 38.4438C146.542 41.314 145.503 44.7671 143.588 48.2215C143.299 48.7451 142.994 49.2607 142.673 49.7672C140.295 53.5331 137.32 56.4922 134.434 58.2329C131.511 59.9973 128.665 60.5137 126.593 59.3651C126.508 59.3183 126.433 59.2735 126.367 59.232C124.546 58.0814 123.717 55.752 123.838 52.8337C123.86 52.2956 123.915 51.7364 124.002 51.1608C124.115 51.259 124.251 51.3413 124.414 51.4065C124.345 51.9024 124.301 52.3858 124.281 52.8528C124.167 55.6104 124.927 57.7969 126.603 58.856C126.677 58.9027 126.745 58.9429 126.807 58.9771C128.73 60.0434 131.417 59.5363 134.206 57.8542C137.034 56.1478 139.955 53.2387 142.296 49.5314C142.621 49.0171 142.923 48.5093 143.2 48.0087C145.08 44.6156 146.1 41.2317 146.216 38.426C146.294 36.5562 145.969 34.9499 145.23 33.7783C145.366 33.7078 145.485 33.6143 145.583 33.5043Z" fill="#C5C6D1"/>
<path d="M127.441 36.2363C126.523 37.0701 125.668 38.3056 125.092 39.746C124.856 40.3335 124.687 40.9084 124.579 41.4538C124.388 42.4246 124.395 43.3012 124.585 43.9854C124.765 44.6342 125.11 45.1038 125.605 45.3013C125.688 45.3349 125.776 45.3606 125.867 45.3784C126.641 45.5305 127.578 45.1064 128.468 44.2983C129.387 43.4645 130.242 42.2289 130.818 40.7886C131.053 40.2011 131.223 39.6255 131.331 39.0808C131.522 38.1094 131.514 37.2341 131.325 36.5491C131.145 35.9004 130.8 35.4308 130.305 35.2332C130.221 35.1997 130.134 35.174 130.043 35.1562C129.269 35.0027 128.331 35.4275 127.441 36.2363ZM124.68 39.5807C125.281 38.0778 126.178 36.7843 127.142 35.909C128.134 35.008 129.208 34.541 130.129 34.7222C130.249 34.7459 130.362 34.7795 130.47 34.8223C131.102 35.0752 131.535 35.6482 131.752 36.4319C131.959 37.1794 131.969 38.1265 131.764 39.1671C131.651 39.7401 131.474 40.3414 131.229 40.9532C130.627 42.4555 129.731 43.7497 128.766 44.6256C127.774 45.5266 126.699 45.9935 125.779 45.8118C125.659 45.7881 125.546 45.7551 125.439 45.7123C124.807 45.4594 124.374 44.8864 124.156 44.1027C123.949 43.3552 123.94 42.4081 124.144 41.3668C124.258 40.7938 124.435 40.1925 124.68 39.5807Z" fill="#C5C6D1"/>
<path d="M128.194 35.2904C129.478 34.1438 130.858 33.5524 132.038 33.7848C133.179 34.0094 133.838 34.9269 134.137 36.0024C134.409 36.9843 134.421 38.2298 134.151 39.5997C133.638 42.2104 132.156 45.0233 130.194 46.8055C128.893 47.9864 127.49 48.5995 126.291 48.3631C125.151 48.1385 124.491 47.2217 124.193 46.1456C123.961 45.3124 123.936 44.389 124.035 43.4769C124.104 43.7199 124.227 43.9372 124.431 44.1052C124.403 44.7664 124.453 45.4237 124.621 46.0283C124.872 46.9332 125.41 47.7394 126.378 47.9297C127.43 48.1365 128.697 47.5668 129.895 46.4781C131.787 44.7598 133.222 42.0306 133.717 39.5127C133.973 38.2126 133.964 37.0384 133.708 36.1189C133.457 35.214 132.92 34.4085 131.952 34.2175C131.139 34.0575 130.2 34.3611 129.261 35.0085C128.896 35.0033 128.518 35.1304 128.194 35.2904Z" fill="#C5C6D1"/>
<path d="M123.179 39.9429C124.328 36.9963 126.11 34.4897 128.061 32.8195C129.477 31.607 130.987 30.8311 132.419 30.6401C132.492 30.7837 132.604 30.9418 132.723 31.0524C131.311 31.1683 129.787 31.9271 128.351 33.156C125.587 35.5224 123.548 39.2481 122.766 42.8046C122.294 44.9529 122.307 46.9288 122.756 48.4883C123.209 50.0585 124.177 51.4205 125.84 51.7866C127.57 52.1667 129.593 51.3651 131.467 49.7608C134.23 47.3944 136.268 43.6687 137.051 40.1122C137.524 37.9632 137.511 35.988 137.062 34.4284C136.676 33.0921 135.97 32.0654 134.975 31.5075C135.113 31.4285 135.243 31.331 135.36 31.2197C136.372 31.8533 137.091 32.9308 137.488 34.3059C137.957 35.9347 137.973 37.9862 137.484 40.2084C136.681 43.8564 134.591 47.6704 131.757 50.098C129.779 51.7912 127.619 52.6323 125.745 52.2207C123.917 51.8182 122.83 50.3449 122.33 48.6122C121.86 46.9834 121.845 44.9319 122.333 42.7097C122.532 41.8101 122.812 40.8828 123.179 39.9429Z" fill="#C5C6D1"/>
<path d="M140.076 12.456L145.176 2.54395C146.358 0.247393 149.202 -0.664116 151.5 0.517422C153.796 1.69896 154.708 4.54348 153.526 6.84003L137.929 37.1649L137.586 37.0397C137.577 36.8342 137.67 37.0266 137.572 36.8487L137.86 36.3133L153.131 6.63718C154.201 4.55862 153.375 1.98282 151.297 0.913244C149.218 -0.156331 146.642 0.66956 145.572 2.74812L140.749 12.122C140.693 12.1471 140.639 12.1747 140.586 12.207C140.463 12.2821 140.294 12.3144 140.076 12.456Z" fill="#C5C6D1"/>
<path d="M129.419 31.9519L138.895 13.538C139.792 11.794 141.953 11.1011 143.697 11.9995C145.441 12.8971 146.133 15.0574 145.236 16.8013L136.844 33.1097C136.773 32.9787 136.67 32.8555 136.533 32.7429L144.841 16.5978C145.625 15.0718 145.02 13.1797 143.494 12.3946C141.968 11.6096 140.075 12.2161 139.29 13.7415L129.979 31.8353C129.786 31.8327 129.594 31.8729 129.419 31.9519Z" fill="#C5C6D1"/>
<path d="M132.237 28.8144L133.698 25.9745L137.415 27.8871L135.954 30.7263C135.691 31.2374 135.243 31.5944 134.733 31.7584C134.223 31.9217 133.651 31.8914 133.14 31.6286C132.629 31.3658 132.271 30.9173 132.108 30.4076C131.944 29.8978 131.974 29.3255 132.237 28.8144ZM133.89 26.5732L132.632 29.0172C132.425 29.4197 132.401 29.8701 132.53 30.2719C132.66 30.6736 132.941 31.0266 133.343 31.2328C133.744 31.4396 134.195 31.4633 134.597 31.3349C134.998 31.2064 135.351 30.9252 135.558 30.5228L136.816 28.0787L133.89 26.5732Z" fill="#C5C6D1"/>
<path d="M153.428 2.56572C154.147 2.4116 155.335 4.48621 156.61 4.91101C158.864 5.66248 161.453 5.1402 162.646 5.75402C166.586 7.78187 168.15 12.6635 166.123 16.6039L154.382 39.4206C154.274 39.3152 154.149 39.229 154.012 39.1677L165.727 16.401C167.643 12.6786 166.165 8.06507 162.442 6.14985C161.342 5.5841 158.813 6.13799 156.625 5.38191C155.358 4.94394 154.186 2.85287 153.522 2.99974C153.517 2.84628 153.485 2.70073 153.428 2.56572ZM138.642 34.7939L150.609 11.5379C150.744 11.6064 150.89 11.6532 151.04 11.6723L139.095 34.8848C138.951 34.8242 138.8 34.7926 138.642 34.7939Z" fill="#C5C6D1"/>
<path d="M158.102 31.7374C160.091 32.9294 162.082 34.1209 163.849 35.174C165.645 36.2442 167.248 37.1946 168.469 37.9052C169.701 38.6231 170.55 39.1012 171.163 39.4371C171.751 39.7592 173.548 40.6845 173.847 40.838C174.315 41.079 174.476 41.1613 174.671 40.9605C174.813 40.8143 174.986 40.5633 175.224 40.1477C175.472 39.717 175.784 39.1216 176.197 38.2997C176.614 37.4672 177.137 36.3996 177.64 35.3557C178.129 34.3388 178.6 33.3444 178.934 32.614C179.267 31.8882 179.342 31.7406 179.45 31.4364C179.547 31.1604 179.368 30.6329 179.064 30.1956C178.86 29.9031 178.551 29.6502 178.423 29.5429C178.348 29.4797 178.25 29.425 178.136 29.3776C178.014 29.3269 177.876 29.2847 177.729 29.2485C177.596 29.2149 177.479 29.1912 177.361 29.1662C177.152 29.122 176.94 29.0773 176.751 29.0186C176.587 28.9679 176.097 28.7321 175.95 28.6538C175.8 28.5734 175.495 28.3936 175.368 28.283C175.286 28.2112 175.207 28.1295 175.127 28.0465C174.991 27.9082 174.853 27.766 174.689 27.6692C174.566 27.598 174.422 27.546 174.251 27.5124C174.072 27.4775 173.748 27.4044 173.499 27.4044C173.305 27.4057 173.006 27.3576 172.813 27.3662C172.426 27.3853 172.075 27.434 171.72 27.3952C171.438 27.3642 171.198 27.2977 170.965 27.1923C170.738 27.0889 170.522 26.9506 170.284 26.7741C170.018 26.5759 169.832 26.3822 169.553 26.1471H169.552C169.358 25.9838 169.173 25.827 169.015 25.7032C168.831 25.559 168.798 25.5175 168.67 25.449C168.546 25.3831 168.43 25.3416 168.299 25.3113C168.162 25.2797 168.008 25.258 167.838 25.2442C167.659 25.2297 167.47 25.2237 167.273 25.2211L167.126 25.2205C166.74 25.2178 166.429 25.2725 165.992 25.1658C165.746 25.1059 165.503 25.0143 165.245 24.8971C164.981 24.7779 164.719 24.6435 164.424 24.4914L162.361 23.4297L162.564 23.0345L164.627 24.0962C164.929 24.251 165.195 24.388 165.427 24.4934C165.664 24.6007 165.883 24.6837 166.1 24.737C166.481 24.8299 166.767 24.7752 167.13 24.7772L167.277 24.7792C167.494 24.7818 167.695 24.7884 167.874 24.8029C168.065 24.818 168.241 24.8424 168.401 24.88C168.567 24.9182 168.716 24.9722 168.878 25.0584C169.035 25.1414 169.088 25.1961 169.289 25.3542C169.452 25.4813 169.641 25.6413 169.84 25.8079C170.112 26.0371 170.29 26.2248 170.552 26.4191C170.765 26.5785 170.958 26.7017 171.151 26.7899C171.341 26.8762 171.538 26.9302 171.77 26.9552C172.083 26.9895 172.418 26.9414 172.792 26.9236H172.793C173.008 26.9131 173.33 26.9612 173.499 26.9598C173.772 26.9592 174.124 27.0349 174.337 27.0771C174.558 27.1205 174.748 27.1884 174.914 27.2858C175.128 27.4116 175.289 27.5769 175.445 27.737C175.515 27.8101 175.586 27.8819 175.661 27.9484C175.765 28.0393 176.041 28.2 176.158 28.2626C176.276 28.3251 176.741 28.5504 176.884 28.5945C177.068 28.6518 177.262 28.6926 177.455 28.7328C177.592 28.7611 177.729 28.7901 177.838 28.8171C178.005 28.8586 178.165 28.908 178.309 28.9679C178.46 29.0311 178.597 29.1082 178.71 29.203C178.805 29.2841 179.122 29.5804 179.363 29.9374C179.73 30.4788 180.032 31.144 179.983 31.279C179.871 31.5951 179.675 32.0581 179.337 32.799C179.006 33.5222 178.533 34.5206 178.038 35.5487C177.536 36.5893 177.013 37.6595 176.591 38.4986C176.173 39.3317 175.858 39.9337 175.609 40.3671C175.351 40.8162 175.157 41.0948 174.989 41.268C174.563 41.706 174.33 41.5855 173.644 41.2331C173.367 41.0902 171.598 40.18 170.951 39.825C170.327 39.4832 169.47 39.0005 168.247 38.2878C167.012 37.5686 165.41 36.6196 163.623 35.5553C161.81 34.4739 159.842 33.2963 157.875 32.118L158.102 31.7374Z" fill="#C5C6D1"/>
<path d="M177.145 51.1161C177.91 50.987 178.674 50.8586 179.38 50.7143C180.071 50.5734 180.695 50.4193 181.181 50.2395C181.653 50.0669 181.992 49.8693 182.295 49.5934C182.604 49.3128 182.885 48.9427 183.231 48.4303C183.601 47.8777 184.042 47.1691 184.525 46.3326C184.958 45.5818 185.43 44.7191 185.922 43.7614C186.432 42.7702 186.933 41.7415 187.457 40.6667C188.048 39.4535 188.668 38.1824 189.298 36.9587C189.905 35.7785 190.575 34.539 191.181 33.418C191.765 32.3399 192.288 31.3718 192.659 30.6302C193.029 29.8906 193.249 29.3755 193.378 28.9652C193.503 28.5674 193.542 28.2724 193.554 27.9655C193.565 27.652 193.549 27.3194 193.517 26.9815C193.483 26.641 193.434 26.2965 193.381 25.9607C193.328 25.6274 193.271 25.3027 193.191 25.0063C193.114 24.7205 193.016 24.4623 192.88 24.2516C192.746 24.0428 192.569 23.8722 192.367 23.7201C192.154 23.5607 191.913 23.4217 191.663 23.2828C191.403 23.1379 191.134 22.995 190.855 22.8487C190.679 22.7565 190.331 22.5774 189.963 22.3884C189.35 22.0729 188.673 21.7245 188.043 21.5987C187.542 21.4986 187.049 21.5355 186.618 21.5678C186.505 21.5763 186.395 21.5842 186.292 21.5895C186.025 21.604 185.785 21.6013 185.559 21.5776C185.328 21.5533 185.112 21.5091 184.891 21.44C184.667 21.3702 184.445 21.2767 184.089 21.1278C183.761 20.9902 183.318 20.8044 182.683 20.5561C182.201 20.3671 181.564 20.1254 180.819 19.8422C179.577 19.3707 178.026 18.7819 176.226 18.0699C173.365 16.9378 170.003 15.5448 166.64 14.1519L166.702 14.003L166.805 13.7402L166.81 13.7422C170.203 15.1477 173.597 16.5531 176.39 17.6583C178.149 18.3551 179.72 18.9505 180.977 19.4286C181.705 19.7046 182.326 19.9403 182.845 20.1439C183.511 20.4047 183.943 20.5851 184.261 20.7195C184.604 20.8637 184.82 20.9533 185.024 21.0172C185.216 21.0771 185.404 21.116 185.604 21.1364C185.807 21.1568 186.024 21.1601 186.269 21.1469C186.371 21.1423 186.476 21.1337 186.585 21.1258C187.045 21.0916 187.571 21.0521 188.13 21.1634C188.823 21.3017 189.528 21.6646 190.167 21.9932C190.425 22.1256 190.67 22.2521 191.059 22.4569C191.346 22.6064 191.618 22.7519 191.875 22.8948C192.143 23.043 192.401 23.1925 192.632 23.3651C192.871 23.5449 193.085 23.7517 193.251 24.0105C193.416 24.2667 193.532 24.5664 193.619 24.8911C193.704 25.2052 193.764 25.5444 193.818 25.8915C193.874 26.2366 193.924 26.5896 193.957 26.9393C193.992 27.2917 194.008 27.6421 193.996 27.9826C193.983 28.329 193.94 28.6596 193.801 29.0989C193.666 29.5263 193.438 30.0625 193.054 30.8297C192.679 31.5786 192.155 32.548 191.57 33.6288C190.984 34.7135 190.335 35.9128 189.691 37.1622C189.029 38.4504 188.428 39.684 187.854 40.8623C187.312 41.974 186.794 43.0376 186.316 43.9656C185.829 44.9127 185.353 45.7834 184.908 46.5539C184.417 47.4055 183.971 48.1221 183.598 48.6773C183.235 49.2167 182.935 49.6105 182.592 49.922C182.244 50.2388 181.859 50.4634 181.333 50.657C180.825 50.8447 180.18 51.0041 179.468 51.1497C178.77 51.2919 177.994 51.423 177.219 51.5541L177.145 51.1161Z" fill="#C5C6D1"/>
<path d="M150.48 30.4286C150.208 30.4312 150.033 30.3719 149.893 30.2237C149.768 30.092 149.692 29.8971 149.647 29.6547C149.607 29.4387 149.59 29.1812 149.581 28.8947C149.573 28.6161 149.573 28.3032 149.592 27.9087C149.61 27.5235 149.645 27.0605 149.709 26.4763C149.775 25.8625 149.87 25.1274 149.987 24.3496C150.095 23.6245 150.221 22.8546 150.362 22.0979C150.487 21.4162 150.623 20.7444 150.756 20.128C150.929 19.3225 151.099 18.5947 151.227 18.0626C151.338 17.6022 151.419 17.294 151.48 17.0747C151.543 16.8521 151.585 16.7204 151.624 16.6156C151.668 16.4912 151.708 16.397 151.796 16.2982C151.877 16.206 151.991 16.1256 152.179 16.0334C152.343 15.9524 152.569 15.8596 152.799 15.7726C153.044 15.6811 153.298 15.5955 153.493 15.5401C153.699 15.4822 153.848 15.4558 153.971 15.4624C154.131 15.4716 154.24 15.5276 154.341 15.6304C154.424 15.7153 154.498 15.8326 154.562 16.0064C154.62 16.1612 154.672 16.3687 154.718 16.6519C154.788 17.0714 154.847 17.6622 154.923 18.4084L154.994 19.1085C155.048 19.6261 155.113 20.2202 155.191 20.8867C155.268 21.5334 155.355 22.2151 155.451 22.9073C155.57 23.7615 155.708 24.6579 155.825 25.4291C155.897 25.8921 155.96 26.307 156.016 26.6857C156.081 27.1355 156.119 27.4451 156.14 27.6736C156.162 27.9094 156.166 28.0517 156.163 28.1636C156.158 28.2986 156.144 28.4027 156.093 28.5153C156.046 28.6207 155.971 28.7188 155.845 28.8413C155.73 28.9539 155.567 29.0936 155.325 29.2378C155.087 29.3794 154.768 29.5289 154.334 29.6692C153.91 29.8055 153.375 29.9326 152.846 30.0426C152.328 30.1506 151.803 30.2435 151.398 30.3126C150.986 30.3811 150.696 30.4266 150.48 30.4286ZM150.216 29.9188C150.262 29.9669 150.34 29.986 150.476 29.9847C150.665 29.9833 150.937 29.9405 151.324 29.8747C151.718 29.8075 152.231 29.7166 152.758 29.6073C153.273 29.4999 153.792 29.3774 154.198 29.2464C154.594 29.1186 154.883 28.9836 155.097 28.8565C155.306 28.732 155.441 28.6174 155.535 28.5259C155.619 28.4442 155.665 28.3862 155.689 28.3329C155.71 28.2874 155.715 28.2301 155.719 28.1498C155.721 28.0464 155.718 27.9193 155.699 27.7144C155.679 27.5024 155.642 27.2007 155.576 26.7496C155.531 26.4374 155.462 25.9915 155.386 25.4963C155.268 24.731 155.132 23.8419 155.011 22.9685C154.913 22.2586 154.826 21.5756 154.751 20.9394C154.678 20.3216 154.612 19.7131 154.553 19.1532L154.483 18.4531C154.408 17.7148 154.349 17.1307 154.282 16.7236C154.239 16.4721 154.194 16.2903 154.146 16.1599C154.104 16.0486 154.065 15.9814 154.025 15.9406C154.004 15.9188 153.981 15.907 153.947 15.905C153.879 15.901 153.773 15.9215 153.614 15.9669C153.433 16.0183 153.19 16.0993 152.955 16.1875C152.734 16.2699 152.522 16.3581 152.374 16.4299C152.241 16.4958 152.169 16.5438 152.127 16.5906C152.091 16.6314 152.069 16.6874 152.041 16.7651C152.006 16.862 151.965 16.9845 151.907 17.1939C151.847 17.4066 151.768 17.7102 151.658 18.1666C151.535 18.6797 151.368 19.3949 151.19 20.2222C151.059 20.836 150.923 21.5038 150.798 22.1795C150.659 22.9336 150.534 23.6976 150.426 24.4148C150.308 25.2071 150.213 25.9349 150.15 26.5243C150.087 27.0934 150.053 27.5478 150.035 27.9292C150.018 28.3019 150.018 28.6062 150.026 28.8822C150.034 29.1502 150.049 29.3866 150.084 29.5737C150.114 29.7344 150.155 29.8549 150.216 29.9188Z" fill="#C5C6D1"/>
<path d="M155.364 4.21944L155.366 4.23722H155.364C155.636 8.15658 155.821 10.7963 155.966 13.1817C155.993 13.6243 156.016 14.0215 156.036 14.3778C156.13 15.9861 156.174 16.7652 156.311 17.2414C156.387 17.5055 156.491 17.6741 156.614 17.7946C156.741 17.9184 156.901 18.0021 157.074 18.087C157.256 18.1759 157.46 18.2675 157.696 18.3683C157.932 18.469 158.188 18.5724 158.476 18.6844C158.798 18.8102 159.159 18.9478 159.49 19.0684C159.77 19.1704 160.039 19.264 160.26 19.3338C160.465 19.399 160.609 19.4378 160.699 19.42C160.764 19.4075 160.822 19.343 160.891 19.2007L160.892 19.2001C160.988 19.0038 161.086 18.6923 161.18 18.3347C161.276 17.9672 161.366 17.5542 161.449 17.1637C161.531 16.7771 161.605 16.4076 161.672 16.023C161.738 15.6502 161.796 15.2656 161.85 14.8394C161.901 14.4258 161.945 13.9852 161.982 13.5347C162.023 13.0395 162.057 12.5225 162.085 12.0081C162.11 11.5174 162.131 11.0261 162.137 10.5539C162.145 10.087 162.139 9.64437 162.113 9.24789C162.087 8.85602 162.042 8.50498 161.981 8.19017C161.921 7.87799 161.847 7.60335 161.762 7.36033C161.678 7.11862 161.584 6.90787 161.477 6.72016C161.371 6.53509 161.25 6.36913 161.108 6.21699C160.82 5.90415 160.73 5.84224 160.349 5.57221L160.352 5.57419L160.942 5.68286L161.105 5.60053C161.503 5.88373 161.114 5.56892 161.434 5.91601C161.597 6.09383 161.738 6.28548 161.861 6.50151C161.984 6.71423 162.089 6.95002 162.18 7.21543C162.272 7.47953 162.353 7.77459 162.416 8.10718C162.48 8.43649 162.527 8.80531 162.554 9.22089C162.581 9.63251 162.588 10.087 162.581 10.5631C162.573 11.034 162.553 11.5326 162.526 12.0344C162.499 12.5521 162.464 13.0731 162.423 13.5743C162.384 14.0445 162.34 14.4917 162.29 14.8961C162.238 15.3215 162.177 15.7147 162.109 16.1033C162.043 16.4787 161.967 16.8561 161.882 17.2578C161.798 17.6556 161.705 18.0765 161.608 18.4499C161.508 18.8326 161.401 19.1711 161.289 19.3983C161.151 19.6802 160.998 19.8146 160.784 19.8567C160.596 19.8936 160.395 19.8435 160.125 19.7586C159.911 19.6901 159.635 19.5939 159.339 19.4859C158.992 19.3601 158.63 19.2225 158.314 19.0993C158.012 18.9808 157.75 18.8754 157.521 18.7779C157.291 18.6804 157.081 18.5856 156.88 18.4875C156.671 18.386 156.479 18.2833 156.305 18.1147H156.305C156.128 17.9435 155.985 17.7136 155.885 17.3665C155.734 16.8416 155.688 16.0467 155.593 14.4061C155.572 14.0498 155.549 13.6526 155.522 13.2101C155.369 10.6797 155.167 7.73573 154.901 3.89211H154.9L154.899 3.87433L155.364 4.21944Z" fill="#C5C6D1"/>
<path d="M139.347 17.6991C139.317 17.7564 139.314 17.8216 139.332 17.8789C139.351 17.9362 139.392 17.9876 139.449 18.0166L141.376 19.0078C141.434 19.0374 141.499 19.0407 141.555 19.0222C141.613 19.0038 141.664 18.9636 141.694 18.9063C141.724 18.8484 141.727 18.7838 141.708 18.7259C141.69 18.6686 141.649 18.6172 141.592 18.5882L139.665 17.597C139.607 17.5674 139.541 17.5641 139.485 17.5825C139.427 17.6003 139.377 17.6405 139.347 17.6991ZM138.951 17.4949C139.037 17.3283 139.183 17.2124 139.349 17.1597L139.35 17.1591C139.516 17.1064 139.702 17.1156 139.868 17.2012L141.795 18.1924C141.961 18.278 142.078 18.4242 142.131 18.5895L142.132 18.5902C142.185 18.7555 142.175 18.9426 142.09 19.1092C142.003 19.2758 141.858 19.3924 141.692 19.4451C141.526 19.4984 141.339 19.4885 141.172 19.4029L139.246 18.4117C139.079 18.3261 138.963 18.1799 138.909 18.0139L138.91 18.0133C138.856 17.848 138.866 17.6609 138.951 17.4949Z" fill="#C5C6D1"/>
<path d="M140.32 15.8386C140.29 15.8958 140.287 15.9611 140.305 16.0183C140.324 16.0756 140.365 16.127 140.423 16.156L142.349 17.1472C142.407 17.1768 142.471 17.1801 142.529 17.1617C142.587 17.1426 142.637 17.1024 142.667 17.0451C142.697 16.9872 142.7 16.9226 142.682 16.8647C142.663 16.8074 142.623 16.7566 142.564 16.727L140.638 15.7358C140.58 15.7062 140.515 15.7029 140.458 15.7213C140.401 15.7398 140.349 15.7799 140.32 15.8386ZM139.924 15.635C140.01 15.4684 140.156 15.3525 140.322 15.2992H140.322C140.488 15.2458 140.674 15.2557 140.841 15.3406L142.767 16.3318C142.934 16.4175 143.05 16.5637 143.103 16.729L143.104 16.7296C143.157 16.8956 143.147 17.082 143.062 17.2486C142.976 17.4153 142.83 17.5318 142.664 17.5845C142.498 17.6379 142.311 17.628 142.145 17.5424L140.218 16.5512C140.052 16.4655 139.935 16.3193 139.882 16.1534V16.1527C139.829 15.9867 139.838 15.801 139.924 15.635Z" fill="#C5C6D1"/>
<path d="M138.338 19.6592C138.308 19.7171 138.304 19.7817 138.324 19.839C138.342 19.8963 138.383 19.9476 138.44 19.9766L140.367 20.9678C140.425 20.9975 140.49 21.0008 140.547 20.9823C140.605 20.9639 140.656 20.9237 140.685 20.8657C140.715 20.8078 140.718 20.7432 140.699 20.6859C140.681 20.6286 140.641 20.5773 140.583 20.5483L138.656 19.5571C138.598 19.5275 138.533 19.5235 138.476 19.5426C138.418 19.561 138.368 19.6012 138.338 19.6592ZM137.942 19.4557C138.028 19.2897 138.174 19.1738 138.34 19.1204H138.341C138.507 19.0671 138.693 19.077 138.859 19.1619L140.786 20.1531C140.952 20.2388 141.069 20.385 141.122 20.5503L141.123 20.5509C141.176 20.7169 141.165 20.9033 141.08 21.0699C140.995 21.2365 140.849 21.3531 140.683 21.4065C140.517 21.4598 140.33 21.4499 140.164 21.3643L138.237 20.3731C138.07 20.2875 137.953 20.1413 137.9 19.9753L137.901 19.9747C137.848 19.808 137.857 19.6216 137.942 19.4557Z" fill="#C5C6D1"/>
<path d="M156.372 6.81633C156.342 6.87363 156.339 6.93883 156.357 6.99613C156.375 7.05343 156.416 7.10414 156.474 7.13378L161.057 9.49225C161.115 9.52188 161.18 9.52518 161.236 9.50739C161.294 9.48829 161.344 9.44812 161.374 9.39016C161.404 9.33221 161.408 9.26766 161.389 9.21036C161.371 9.15241 161.33 9.10169 161.272 9.07271L156.689 6.71425C156.631 6.68461 156.567 6.68066 156.51 6.6991C156.452 6.7182 156.401 6.75904 156.372 6.81633ZM155.976 6.61282C156.062 6.4462 156.208 6.32962 156.374 6.27694H156.375C156.541 6.22359 156.726 6.23347 156.892 6.31843L161.475 8.67689C161.641 8.76251 161.757 8.90872 161.81 9.07469H161.811C161.864 9.24066 161.854 9.42704 161.769 9.59367C161.683 9.7603 161.537 9.87687 161.371 9.93022L161.37 9.92956C161.204 9.98291 161.018 9.97303 160.852 9.88807L156.27 7.53026C156.103 7.44464 155.987 7.29909 155.935 7.13246H155.934C155.881 6.9665 155.891 6.77945 155.976 6.61282Z" fill="#C5C6D1"/>
<path d="M156.528 9.09316C156.499 9.15046 156.495 9.21566 156.514 9.27296C156.533 9.33091 156.573 9.38163 156.63 9.41126L161.028 11.6742C161.085 11.7039 161.15 11.7072 161.208 11.6881C161.265 11.6696 161.316 11.6294 161.345 11.5715C161.375 11.5142 161.379 11.449 161.36 11.3917C161.341 11.3344 161.3 11.283 161.243 11.254L156.846 8.99107C156.788 8.96144 156.723 8.95814 156.666 8.97658C156.609 8.99503 156.558 9.03586 156.528 9.09316ZM156.133 8.88965C156.219 8.72302 156.365 8.60645 156.531 8.55376C156.697 8.50107 156.883 8.51095 157.049 8.59591L161.447 10.8589C161.613 10.9445 161.73 11.0907 161.783 11.2567C161.836 11.4226 161.826 11.609 161.741 11.7757C161.655 11.9423 161.509 12.0589 161.343 12.1122C161.177 12.1656 160.991 12.155 160.824 12.0701L156.427 9.80709C156.26 9.72147 156.144 9.57526 156.09 9.40929C156.037 9.24266 156.047 9.05628 156.133 8.88965Z" fill="#C5C6D1"/>
<path d="M156.82 11.4398C156.79 11.4977 156.786 11.5629 156.805 11.6202C156.824 11.6775 156.865 11.7289 156.922 11.7579L160.918 13.814C160.975 13.8437 161.04 13.8463 161.098 13.8279C161.155 13.8094 161.206 13.7693 161.235 13.7113C161.265 13.654 161.269 13.5888 161.25 13.5315C161.232 13.4736 161.191 13.4228 161.133 13.3939L157.137 11.3377C157.08 11.3081 157.015 11.3041 156.958 11.3232C156.9 11.341 156.85 11.3818 156.82 11.4398ZM156.425 11.2369C156.511 11.071 156.657 10.9544 156.823 10.901H156.824C156.99 10.8477 157.176 10.8576 157.342 10.9432L161.337 12.9994C161.504 13.085 161.62 13.2305 161.673 13.3972L161.674 13.3978C161.727 13.5631 161.717 13.7502 161.632 13.9168C161.547 14.0834 161.4 14.2 161.234 14.2527C161.067 14.306 160.881 14.2961 160.714 14.2105L156.719 12.1544C156.552 12.0687 156.436 11.9225 156.383 11.7566V11.7559C156.33 11.5886 156.34 11.4022 156.425 11.2369Z" fill="#C5C6D1"/>
<path d="M156.929 13.7625C156.899 13.8198 156.895 13.885 156.914 13.9423C156.933 13.9996 156.973 14.0504 157.031 14.08L160.612 15.9228C160.669 15.9524 160.735 15.9564 160.792 15.9373C160.849 15.9188 160.9 15.8786 160.93 15.8207C160.959 15.7634 160.962 15.6982 160.944 15.6409C160.926 15.5836 160.885 15.5322 160.827 15.5026L157.246 13.6598C157.189 13.6302 157.123 13.6269 157.066 13.6453C157.009 13.6644 156.958 13.7052 156.929 13.7625ZM156.533 13.5597C156.619 13.3937 156.765 13.2771 156.931 13.2238L156.932 13.2231C157.098 13.1705 157.284 13.1797 157.45 13.2653L161.032 15.1081C161.198 15.1937 161.314 15.3399 161.368 15.5059H161.368C161.421 15.6718 161.411 15.8589 161.326 16.0255C161.241 16.1921 161.094 16.3087 160.928 16.3614C160.763 16.4147 160.576 16.4042 160.41 16.3192L156.828 14.4765C156.662 14.3908 156.545 14.2446 156.492 14.0787L156.493 14.078C156.438 13.912 156.448 13.7257 156.533 13.5597Z" fill="#C5C6D1"/>
<path d="M156.929 16.1718C156.898 16.2298 156.895 16.295 156.913 16.3523C156.932 16.4096 156.973 16.4603 157.031 16.4899L160.136 18.0877C160.193 18.1174 160.258 18.1206 160.315 18.1022C160.373 18.0838 160.424 18.0436 160.453 17.9856C160.483 17.9277 160.487 17.8631 160.468 17.8058C160.449 17.7485 160.409 17.6972 160.351 17.6682L157.247 16.0704C157.188 16.0408 157.123 16.0375 157.066 16.0559C157.009 16.0737 156.958 16.1139 156.929 16.1718ZM156.533 15.9683C156.619 15.8024 156.765 15.6858 156.931 15.6331H156.932C157.098 15.5797 157.284 15.5896 157.451 15.6752L160.555 17.273C160.721 17.3586 160.838 17.5042 160.891 17.6702H160.892C160.945 17.8361 160.935 18.0225 160.85 18.1891C160.765 18.3558 160.618 18.4723 160.452 18.5257C160.286 18.579 160.1 18.5685 159.934 18.4835L156.828 16.8858C156.662 16.8001 156.545 16.6539 156.492 16.488L156.493 16.4873C156.438 16.3207 156.448 16.1343 156.533 15.9683Z" fill="#C5C6D1"/>
<path d="M130.318 59.406L136.018 61.8165L135.849 62.2275L130.149 59.817L130.318 59.406Z" fill="#C5C6D1"/>
<path d="M157.66 72.1296C157.855 71.9478 158.051 71.7798 158.248 71.6119L158.36 71.5157C161.228 72.9884 164.097 74.4591 166.964 75.9304L166.6 76.1312C166.368 76.2584 166.137 76.3861 165.938 76.4902C165.725 76.6015 165.526 76.7003 165.357 76.7708C165.177 76.8458 165.027 76.89 164.879 76.9064C164.726 76.9229 164.584 76.9071 164.424 76.863C164.136 76.7826 163.798 76.6094 163.411 76.4098L162.224 75.7993C162.037 75.7025 161.862 75.6123 161.715 75.555C161.581 75.5016 161.461 75.47 161.363 75.4759C161.214 75.4858 161.063 75.6004 160.924 75.7058C160.883 75.7374 160.843 75.7677 160.802 75.7967H160.802C160.691 75.8757 160.585 75.9337 160.488 75.9798C160.391 76.0259 160.304 76.0595 160.228 76.0865C160.136 76.1201 160.056 76.1464 159.932 76.1444C159.824 76.1431 159.691 76.1168 159.494 76.0463C159.32 75.9844 159.088 75.8856 158.827 75.7657C158.562 75.6426 158.263 75.495 157.966 75.3409C157.673 75.1881 157.38 75.0274 157.143 74.8529C156.881 74.6606 156.68 74.4485 156.593 74.2029C156.502 73.9447 156.542 73.6733 156.656 73.4066C156.758 73.1656 156.922 72.9285 157.101 72.7131C157.274 72.505 157.462 72.3127 157.66 72.1296ZM158.422 72.0453C158.265 72.1803 158.109 72.3153 157.962 72.4529C157.781 72.6209 157.608 72.7987 157.446 72.995C157.29 73.1833 157.149 73.3849 157.065 73.5811C156.992 73.7511 156.963 73.9157 157.012 74.0547C157.066 74.2061 157.212 74.353 157.406 74.4959C157.623 74.6547 157.895 74.8042 158.172 74.9484C158.459 75.0986 158.752 75.2421 159.015 75.364C159.262 75.4779 159.481 75.5714 159.643 75.6294C159.789 75.6814 159.877 75.6999 159.94 75.7012C159.986 75.7018 160.029 75.6873 160.078 75.6696C160.144 75.6459 160.219 75.6169 160.298 75.5793C160.377 75.5418 160.461 75.495 160.546 75.4351C160.581 75.4101 160.618 75.3818 160.656 75.3528C160.845 75.2092 161.051 75.0525 161.335 75.0347C161.507 75.0228 161.687 75.0676 161.878 75.1433C162.058 75.2145 162.237 75.306 162.428 75.4041L163.614 76.0147C163.984 76.205 164.305 76.3703 164.544 76.4368C164.649 76.4658 164.74 76.4764 164.832 76.4665C164.931 76.4559 165.043 76.421 165.187 76.3618C165.34 76.2972 165.529 76.205 165.732 76.0983C165.828 76.0476 165.924 75.9962 166.02 75.9449L158.422 72.0453Z" fill="#C5C6D1"/>
<path d="M126.772 52.2922L127.679 59.4071L127.221 59.2899L126.292 52.0624L126.772 52.2922Z" fill="#C5C6D1"/>
<path d="M128.639 51.8051L128.625 59.6642L128.178 59.489L128.197 52.0474L128.639 51.8051Z" fill="#C5C6D1"/>
<path d="M129.141 51.7017L134.473 57.8175L134.039 57.9986L128.639 51.8051L129.141 51.7017Z" fill="#C5C6D1"/>
<path d="M132.05 49.3127L135.968 56.6872L135.675 57.0909L131.842 49.8673L132.05 49.3127Z" fill="#C5C6D1"/>
<path d="M133.436 48.2432L142.292 50.2137L141.931 50.5878L133.022 48.6219L133.436 48.2432Z" fill="#C5C6D1"/>
<path d="M134.574 46.795L142.59 49.3919L142.229 49.741L134.091 47.1632L134.574 46.795Z" fill="#C5C6D1"/>
<path d="M136.769 42.1196L144.277 46.6317L144.168 47.0835L136.729 42.6208L136.769 42.1196Z" fill="#C5C6D1"/>
<path d="M137.371 39.8566L144.889 45.1748L144.802 45.6562L137.357 40.39L137.371 39.8566Z" fill="#C5C6D1"/>
<path d="M137.637 38.9457L146.371 37.2623L146.499 37.7201L137.439 39.4357L137.637 38.9457Z" fill="#C5C6D1"/>
<path d="M137.657 37.074L146.301 36.1572L146.367 36.6011L137.745 37.5634L137.657 37.074Z" fill="#C5C6D1"/>
</svg>
