<svg width="37" height="34" xmlns="http://www.w3.org/2000/svg" viewBox="0 0 37 34" id="noreview">
<path d="M23.695 6.083c-7.338 0-13.306 5.855-13.306 13.051 0 7.197 5.97 13.051 13.306 13.051.689 0 1.387-.053 2.076-.16l8.094 1.955a.694.694 0 0 0 .588-.124.67.67 0 0 0 .264-.53v-6.884A12.794 12.794 0 0 0 37 19.134c0-7.197-5.968-13.051-13.305-13.051zm9.766 19.77a.658.658 0 0 0-.119.463v6.15l-7.285-1.76a.69.69 0 0 0-.36-.035 12.24 12.24 0 0 1-2.002.167c-6.579 0-11.931-5.25-11.931-11.703 0-6.453 5.352-11.703 11.93-11.703 6.58 0 11.932 5.25 11.932 11.703 0 2.417-.748 4.74-2.165 6.718z" fill="#fff"></path>
<path d="M3.358 32.94a.673.673 0 0 0 .328.494.695.695 0 0 0 .599.051l7.87-2.958c.61.142 1.235.248 1.86.318a.678.678 0 0 0 .76-.594.676.676 0 0 0-.605-.745 14.59 14.59 0 0 1-1.903-.34.705.705 0 0 0-.486.058L4.61 31.92l-1.13-8.904a.665.665 0 0 0-.096-.349 14.19 14.19 0 0 1-1.059-2.14c-2.838-7.269.88-15.449 8.29-18.235C15.695.384 21.36 1.416 25.403 4.984c.283.249.717.227.97-.05a.665.665 0 0 0-.05-.952c-4.43-3.91-10.636-5.039-16.196-2.95C2.008 4.085-2.066 13.047 1.044 21.01c.296.752.657 1.494 1.077 2.206l1.237 9.724z" fill="#fff"></path>
<path d="M17.125 20.272c.986 0 1.786-.785 1.786-1.753 0-.967-.8-1.752-1.786-1.752-.987 0-1.787.785-1.787 1.752 0 .968.8 1.753 1.787 1.753zM23.567 20.272c.987 0 1.787-.785 1.787-1.753 0-.967-.8-1.752-1.787-1.752-.987 0-1.787.785-1.787 1.752 0 .968.8 1.753 1.787 1.753zM30.01 20.272c.986 0 1.786-.785 1.786-1.753 0-.967-.8-1.752-1.787-1.752-.987 0-1.787.785-1.787 1.752 0 .968.8 1.753 1.787 1.753z" fill="#fff"></path>
</svg>
