<svg width="26" height="16" viewBox="0 0 26 16" fill="none" xmlns="http://www.w3.org/2000/svg">
<path d="M25.3062 1.04288C25.4871 0.44122 25.3062 0 24.4505 0H21.616C20.8948 0 20.5652 0.381701 20.3843 0.800925C20.3843 0.800925 18.9431 4.31904 16.9009 6.60018C16.2418 7.26396 15.9406 7.47357 15.5813 7.47357C15.4016 7.47357 15.1405 7.26396 15.1405 6.66229V1.04288C15.1405 0.320888 14.9324 0 14.3314 0H9.8774C9.42761 0 9.15618 0.333826 9.15618 0.652126C9.15618 1.33531 10.1773 1.49316 10.282 3.41848V7.59519C10.282 8.50998 10.1178 8.6769 9.75591 8.6769C8.79557 8.6769 6.4587 5.14584 5.07183 1.1037C4.80169 0.3183 4.52897 0.00129442 3.80517 0.00129442H0.971972C0.161565 0.00129442 0 0.382995 0 0.802219C0 1.55527 0.960339 5.2817 4.4734 10.2102C6.81543 13.5756 10.1126 15.4 13.1164 15.4C14.9169 15.4 15.1392 14.995 15.1392 14.2963V11.7525C15.1392 10.9425 15.3111 10.7795 15.8811 10.7795C16.2999 10.7795 17.0211 10.9917 18.7027 12.6129C20.6234 14.5357 20.9413 15.3987 22.0206 15.3987H24.8538C25.6629 15.3987 26.0675 14.9937 25.8348 14.1941C25.5802 13.3983 24.6625 12.2403 23.4449 10.8701C22.7832 10.0885 21.7944 9.24751 21.4932 8.82699C21.0732 8.28484 21.1947 8.04547 21.4932 7.56414C21.4945 7.56543 24.9468 2.69778 25.3062 1.04288Z" fill="#EBECF5"/>
</svg>
