<svg width="424" height="82" viewBox="0 0 424 82" fill="none" xmlns="http://www.w3.org/2000/svg">
<path fill-rule="evenodd" clip-rule="evenodd" d="M69.5861 11.9391L40.7626 0L11.9391 11.9391L0 40.7626L11.9391 69.5861L40.7626 81.5252L69.5861 69.5861L81.5252 40.7626L69.5861 11.9391ZM3.09451 40.7626L14.1272 14.1272L40.7626 3.09451L67.398 14.1272L78.4307 40.7626L67.8185 66.3826H43.4915L66.8553 20.5286C67.2137 19.8251 66.934 18.9643 66.2306 18.6059C65.5271 18.2475 64.6664 18.5272 64.3079 19.2306L41.275 64.4353L18.2937 19.3319C17.9352 18.6285 17.0744 18.3488 16.371 18.7072C15.6676 19.0656 15.3879 19.9264 15.7463 20.6298L39.0585 66.3826H13.7067L3.09451 40.7626ZM18.6921 69.2888L40.7626 78.4307L62.8331 69.2888H18.6921Z" fill="#3660BC"/>
<path d="M155.043 15.2741L138.697 45.6082H137.928L121.583 15.2741H116.1L135.213 50.3223H141.413L160.474 15.2741H155.043Z" fill="black"/>
<path d="M185.394 50.8347C178.118 50.8347 173.028 50.3735 170.125 49.4512C167.221 48.4947 165.376 46.7013 164.591 44.071C164.044 42.2605 163.771 38.52 163.771 32.8494C163.771 27.0764 164.027 23.3359 164.54 21.6279C165.325 18.9634 167.187 17.1529 170.125 16.1964C173.062 15.24 178.152 14.7617 185.394 14.7617C192.67 14.7617 197.743 15.24 200.613 16.1964C203.516 17.1188 205.378 18.9122 206.198 21.5766C206.744 23.3871 207.018 27.1447 207.018 32.8494C207.018 38.5883 206.761 42.3118 206.249 44.0198C205.463 46.6843 203.619 48.4947 200.715 49.4512C197.811 50.3735 192.704 50.8347 185.394 50.8347ZM185.394 46.1206C193.456 46.1206 198.204 45.5228 199.639 44.3272C201.074 43.1316 201.791 39.3057 201.791 32.8494C201.791 26.359 201.074 22.516 199.639 21.3204C198.238 20.1248 193.49 19.527 185.394 19.527C177.298 19.527 172.533 20.1248 171.098 21.3204C169.698 22.516 168.997 26.359 168.997 32.8494C168.997 39.2715 169.715 43.0975 171.15 44.3272C172.584 45.5228 177.332 46.1206 185.394 46.1206Z" fill="black"/>
<path d="M234.921 29.5701L220.164 15.2741H212.939L230.822 32.2858L212.58 50.3223H219.549L234.921 35.0015H235.587L250.959 50.3223H258.081L239.84 32.2858L257.723 15.2741H250.293L235.587 29.5701H234.921Z" fill="black"/>
<path d="M274.901 15.2741L293.04 44.071L311.179 15.2741H320.505V50.3223H315.33V19.9882H314.305L294.68 50.3223H291.401L271.776 19.9882H270.802V50.3223H265.576V15.2741H274.901Z" fill="black"/>
<path d="M355.096 15.2741L373.543 50.3223H367.65L363.5 42.5338H338.495L334.395 50.3223H328.503L346.949 15.2741H355.096ZM361.245 37.871L351.715 19.4758H350.382L340.852 37.871H361.245Z" fill="black"/>
<path d="M400.25 29.5701L385.493 15.2741H378.268L396.151 32.2858L377.909 50.3223H384.878L400.25 35.0015H400.916L416.288 50.3223H423.411L405.169 32.2858L423.052 15.2741H415.622L400.916 29.5701H400.25Z" fill="black"/>
<path d="M118.72 60.1587V67.203L118.666 69.0402L124.447 60.1587H125.63V69.9006H124.778V62.9011L124.814 61.019L119.034 69.9006H117.877V60.1587H118.72Z" fill="black"/>
<path d="M129.788 60.1587V64.4336H135.972V60.1587H136.85V69.9006H135.972V65.2044H129.788V69.9006H128.901V60.1587H129.788Z" fill="black"/>
<path d="M146.306 60.9294H143.061V69.9006H142.183V60.9294H138.858V60.1587H146.306V60.9294Z" fill="black"/>
<path d="M152.248 70.0798C150.832 70.0798 149.726 69.6437 148.932 68.7714C148.143 67.899 147.749 66.6772 147.749 65.1058C147.749 63.5524 148.131 62.3096 148.896 61.3775C149.66 60.4395 150.691 59.9705 151.988 59.9705C153.135 59.9705 154.04 60.3708 154.703 61.1714C155.366 61.972 155.698 63.0594 155.698 64.4336V65.1506H148.681C148.693 66.489 149.003 67.5107 149.613 68.2157C150.228 68.9207 151.106 69.2732 152.248 69.2732C152.803 69.2732 153.29 69.2344 153.708 69.1567C154.133 69.0791 154.667 68.9118 155.313 68.6549V69.4615C154.763 69.7004 154.255 69.8618 153.789 69.9454C153.323 70.035 152.809 70.0798 152.248 70.0798ZM151.988 60.7591C151.05 60.7591 150.297 61.0698 149.729 61.6912C149.162 62.3066 148.83 63.1969 148.734 64.3619H154.757C154.757 63.2327 154.512 62.3514 154.022 61.7181C153.532 61.0788 152.854 60.7591 151.988 60.7591Z" fill="black"/>
<path d="M162.554 70.0798C161.054 70.0798 159.961 69.5182 159.274 68.3949H159.211L159.238 69.1478C159.262 69.5899 159.274 70.0739 159.274 70.5997V74.31H158.387V60.1587H159.14L159.31 61.5478H159.364C160.033 60.4962 161.102 59.9705 162.572 59.9705C163.887 59.9705 164.887 60.4036 165.574 61.27C166.267 62.1303 166.614 63.3851 166.614 65.0341C166.614 66.6354 166.25 67.8781 165.521 68.7624C164.798 69.6407 163.809 70.0798 162.554 70.0798ZM162.536 69.2912C163.534 69.2912 164.305 68.9207 164.848 68.1799C165.398 67.439 165.673 66.4023 165.673 65.07C165.673 62.208 164.639 60.7771 162.572 60.7771C161.437 60.7771 160.603 61.0907 160.072 61.7181C159.54 62.3395 159.274 63.3552 159.274 64.7652V65.052C159.274 66.5756 159.528 67.663 160.036 68.3143C160.55 68.9655 161.383 69.2912 162.536 69.2912Z" fill="black"/>
<path d="M170.208 60.1587V64.4336H176.392V60.1587H177.27V69.9006H176.392V65.2044H170.208V69.9006H169.321V60.1587H170.208Z" fill="black"/>
<path d="M184.476 70.0798C183.06 70.0798 181.954 69.6437 181.16 68.7714C180.371 67.899 179.977 66.6772 179.977 65.1058C179.977 63.5524 180.359 62.3096 181.124 61.3775C181.889 60.4395 182.919 59.9705 184.216 59.9705C185.363 59.9705 186.268 60.3708 186.931 61.1714C187.595 61.972 187.926 63.0594 187.926 64.4336V65.1506H180.909C180.921 66.489 181.231 67.5107 181.841 68.2157C182.456 68.9207 183.335 69.2732 184.476 69.2732C185.031 69.2732 185.518 69.2344 185.937 69.1567C186.361 69.0791 186.896 68.9118 187.541 68.6549V69.4615C186.991 69.7004 186.483 69.8618 186.017 69.9454C185.551 70.035 185.037 70.0798 184.476 70.0798ZM184.216 60.7591C183.278 60.7591 182.525 61.0698 181.957 61.6912C181.39 62.3066 181.058 63.1969 180.963 64.3619H186.985C186.985 63.2327 186.74 62.3514 186.25 61.7181C185.76 61.0788 185.082 60.7591 184.216 60.7591Z" fill="black"/>
<path d="M196.799 60.9294H193.554V69.9006H192.676V60.9294H189.351V60.1587H196.799V60.9294Z" fill="black"/>
<path d="M208.109 68.9506L208.665 67.3822L211.47 60.1587H212.698V69.9006H211.855V61.2341C211.724 61.6105 211.584 61.9959 211.434 62.3903C211.291 62.7846 210.317 65.288 208.512 69.9006H207.724L205.026 63.0535C204.913 62.7786 204.805 62.4888 204.704 62.1841C204.608 61.8794 204.5 61.5508 204.381 61.1983V69.9006H203.574V60.1587H204.748L207.562 67.3284C207.784 67.908 207.966 68.4487 208.109 68.9506Z" fill="black"/>
<path d="M221.875 69.9006L221.651 68.3591H221.579C221.089 68.9865 220.585 69.4316 220.065 69.6945C219.551 69.9514 218.941 70.0798 218.236 70.0798C217.28 70.0798 216.537 69.8349 216.005 69.3449C215.473 68.855 215.207 68.1769 215.207 67.3105C215.207 66.3605 215.602 65.6226 216.39 65.0968C217.185 64.5711 218.332 64.2932 219.832 64.2634L221.687 64.2096V63.5643C221.687 62.6382 221.499 61.9392 221.122 61.4671C220.746 60.9951 220.139 60.7591 219.303 60.7591C218.401 60.7591 217.466 61.0101 216.498 61.512L216.166 60.7412C217.236 60.2393 218.293 59.9884 219.339 59.9884C220.408 59.9884 221.206 60.2662 221.732 60.8219C222.263 61.3775 222.529 62.2439 222.529 63.4209V69.9006H221.875ZM218.29 69.2732C219.33 69.2732 220.148 68.9775 220.746 68.386C221.349 67.7885 221.651 66.961 221.651 65.9034V64.9445L219.948 65.0162C218.58 65.0819 217.603 65.297 217.018 65.6615C216.438 66.02 216.148 66.5816 216.148 67.3464C216.148 67.9558 216.333 68.4308 216.704 68.7714C217.08 69.106 217.609 69.2732 218.29 69.2732Z" fill="black"/>
<path d="M231.42 60.9294H226.58V69.9006H225.693V60.1587H231.42V60.9294Z" fill="black"/>
<path d="M239.334 69.9006L239.109 68.3591H239.038C238.548 68.9865 238.043 69.4316 237.523 69.6945C237.009 69.9514 236.4 70.0798 235.695 70.0798C234.739 70.0798 233.995 69.8349 233.463 69.3449C232.932 68.855 232.666 68.1769 232.666 67.3105C232.666 66.3605 233.06 65.6226 233.849 65.0968C234.643 64.5711 235.79 64.2932 237.29 64.2634L239.145 64.2096V63.5643C239.145 62.6382 238.957 61.9392 238.581 61.4671C238.204 60.9951 237.598 60.7591 236.761 60.7591C235.859 60.7591 234.924 61.0101 233.956 61.512L233.625 60.7412C234.694 60.2393 235.752 59.9884 236.797 59.9884C237.867 59.9884 238.664 60.2662 239.19 60.8219C239.722 61.3775 239.988 62.2439 239.988 63.4209V69.9006H239.334ZM235.749 69.2732C236.788 69.2732 237.607 68.9775 238.204 68.386C238.808 67.7885 239.109 66.961 239.109 65.9034V64.9445L237.407 65.0162C236.038 65.0819 235.062 65.297 234.476 65.6615C233.896 66.02 233.607 66.5816 233.607 67.3464C233.607 67.9558 233.792 68.4308 234.162 68.7714C234.539 69.106 235.068 69.2732 235.749 69.2732Z" fill="black"/>
<path d="M244.989 64.3619C246.751 64.3619 247.633 63.7555 247.633 62.5426C247.633 61.9631 247.429 61.5209 247.023 61.2162C246.617 60.9115 246.037 60.7591 245.284 60.7591C244.806 60.7591 244.361 60.8159 243.949 60.9294C243.537 61.037 243.095 61.1953 242.623 61.4044L242.291 60.6695C243.331 60.2035 244.34 59.9705 245.32 59.9705C246.384 59.9705 247.19 60.1915 247.74 60.6337C248.29 61.0758 248.565 61.6882 248.565 62.4709C248.565 63.6002 247.985 64.3201 246.826 64.6308V64.6846C247.549 64.8638 248.075 65.1626 248.403 65.5808C248.732 65.9931 248.896 66.5218 248.896 67.1671C248.896 68.0693 248.565 68.7803 247.901 69.3001C247.244 69.8199 246.33 70.0798 245.159 70.0798C244.526 70.0798 243.946 70.0201 243.42 69.9006C242.901 69.7751 242.47 69.6108 242.13 69.4077V68.5204C242.745 68.8132 243.277 69.0133 243.725 69.1209C244.173 69.2225 244.651 69.2732 245.159 69.2732C246.043 69.2732 246.73 69.088 247.22 68.7176C247.716 68.3412 247.964 67.8064 247.964 67.1133C247.964 66.4382 247.728 65.9393 247.256 65.6167C246.784 65.294 246.076 65.1327 245.132 65.1327H243.779V64.3619H244.989Z" fill="black"/>
<path d="M252.293 60.1587V67.203L252.239 69.0402L258.02 60.1587H259.203V69.9006H258.351V62.9011L258.387 61.019L252.607 69.9006H251.45V60.1587H252.293Z" fill="black"/>
<path d="M263.361 60.1587V64.4336H269.545V60.1587H270.424V69.9006H269.545V65.2044H263.361V69.9006H262.474V60.1587H263.361Z" fill="black"/>
<path d="M277.934 64.0483C277.934 59.8181 279.126 57.4073 281.51 56.8157C282.346 56.6066 283.147 56.4304 283.912 56.287C284.682 56.1376 285.364 56.0062 285.955 55.8926L286.116 56.6634L285.041 56.8695C283.266 57.2041 282.095 57.461 281.528 57.6403C280.721 57.8733 280.088 58.4319 279.628 59.3162C279.174 60.2005 278.914 61.4104 278.848 62.9459H278.902C279.541 62.1871 280.162 61.6464 280.766 61.3237C281.369 60.9951 281.991 60.8308 282.63 60.8308C283.825 60.8308 284.739 61.2162 285.373 61.987C286.006 62.7577 286.323 63.8541 286.323 65.2761C286.323 66.7877 285.958 67.9677 285.229 68.8162C284.5 69.6586 283.476 70.0798 282.155 70.0798C280.817 70.0798 279.777 69.557 279.036 68.5115C278.301 67.4659 277.934 65.9781 277.934 64.0483ZM282.227 69.2732C283.248 69.2732 284.028 68.9327 284.566 68.2516C285.11 67.5704 285.381 66.5906 285.381 65.3119C285.381 64.0991 285.139 63.1849 284.656 62.5695C284.178 61.9481 283.473 61.6374 282.54 61.6374C281.847 61.6374 281.175 61.8555 280.524 62.2917C279.879 62.7219 279.314 63.3193 278.83 64.0841C278.83 65.1536 278.962 66.0917 279.224 66.8983C279.493 67.7049 279.882 68.3023 280.39 68.6907C280.897 69.0791 281.51 69.2732 282.227 69.2732Z" fill="black"/>
<path d="M289.889 64.2634H292.99C295.279 64.2634 296.423 65.1626 296.423 66.961C296.423 67.8871 296.103 68.61 295.464 69.1298C294.825 69.6437 293.908 69.9006 292.713 69.9006H289.002V60.1587H289.889V64.2634ZM289.889 65.1058V69.0582H292.856C293.698 69.0582 294.347 68.8819 294.801 68.5294C295.255 68.1769 295.482 67.6481 295.482 66.9431C295.482 66.2978 295.282 65.8317 294.881 65.545C294.481 65.2522 293.788 65.1058 292.802 65.1058H289.889ZM299.004 69.9006H298.126V60.1587H299.004V69.9006Z" fill="black"/>
<path d="M308.468 60.9294H305.224V69.9006H304.346V60.9294H301.021V60.1587H308.468V60.9294Z" fill="black"/>
<path d="M318.533 65.0162C318.533 66.6055 318.147 67.8483 317.377 68.7445C316.606 69.6347 315.542 70.0798 314.186 70.0798C313.332 70.0798 312.579 69.8737 311.928 69.4615C311.276 69.0492 310.777 68.4577 310.431 67.6869C310.084 66.9162 309.911 66.0259 309.911 65.0162C309.911 63.4269 310.296 62.1901 311.067 61.3058C311.838 60.4156 312.896 59.9705 314.24 59.9705C315.578 59.9705 316.627 60.4216 317.386 61.3237C318.15 62.22 318.533 63.4508 318.533 65.0162ZM310.843 65.0162C310.843 66.3545 311.136 67.4001 311.721 68.153C312.313 68.8998 313.146 69.2732 314.222 69.2732C315.297 69.2732 316.128 68.8998 316.713 68.153C317.305 67.4001 317.601 66.3545 317.601 65.0162C317.601 63.6719 317.302 62.6292 316.704 61.8884C316.113 61.1475 315.279 60.7771 314.204 60.7771C313.129 60.7771 312.298 61.1475 311.713 61.8884C311.133 62.6233 310.843 63.6659 310.843 65.0162Z" fill="black"/>
<path d="M328.705 62.5068C328.705 63.1222 328.553 63.6061 328.248 63.9586C327.943 64.3052 327.447 64.5472 326.76 64.6846V64.7473C327.543 64.8369 328.107 65.064 328.454 65.4284C328.806 65.7869 328.983 66.3038 328.983 66.9789C328.983 67.917 328.672 68.6399 328.051 69.1478C327.435 69.6497 326.533 69.9006 325.344 69.9006H321.23V60.1587H325.362C326.473 60.1587 327.307 60.3588 327.862 60.7591C328.424 61.1594 328.705 61.742 328.705 62.5068ZM328.042 66.961C328.042 65.766 327.125 65.1685 325.29 65.1685H322.118V69.0582H325.416C327.166 69.0582 328.042 68.3591 328.042 66.961ZM327.764 62.5785C327.764 62.0109 327.561 61.6076 327.154 61.3686C326.748 61.1236 326.139 61.0011 325.326 61.0011H322.118V64.3351H325.219C326.127 64.3351 326.778 64.1946 327.172 63.9138C327.567 63.633 327.764 63.1879 327.764 62.5785Z" fill="black"/>
<path d="M339.684 65.0162C339.684 66.6055 339.298 67.8483 338.527 68.7445C337.757 69.6347 336.693 70.0798 335.337 70.0798C334.483 70.0798 333.73 69.8737 333.078 69.4615C332.427 69.0492 331.928 68.4577 331.582 67.6869C331.235 66.9162 331.062 66.0259 331.062 65.0162C331.062 63.4269 331.447 62.1901 332.218 61.3058C332.989 60.4156 334.046 59.9705 335.391 59.9705C336.729 59.9705 337.778 60.4216 338.536 61.3237C339.301 62.22 339.684 63.4508 339.684 65.0162ZM331.994 65.0162C331.994 66.3545 332.287 67.4001 332.872 68.153C333.464 68.8998 334.297 69.2732 335.373 69.2732C336.448 69.2732 337.279 68.8998 337.864 68.153C338.456 67.4001 338.752 66.3545 338.752 65.0162C338.752 63.6719 338.453 62.6292 337.855 61.8884C337.264 61.1475 336.43 60.7771 335.355 60.7771C334.279 60.7771 333.449 61.1475 332.863 61.8884C332.284 62.6233 331.994 63.6659 331.994 65.0162Z" fill="black"/>
<path d="M343.224 60.1587V67.203L343.17 69.0402L348.951 60.1587H350.134V69.9006H349.282V62.9011L349.318 61.019L343.537 69.9006H342.381V60.1587H343.224ZM346.262 58.7785C345.372 58.7785 344.693 58.5813 344.227 58.187C343.761 57.7867 343.49 57.1444 343.412 56.2601H344.201C344.29 56.9173 344.493 57.3834 344.81 57.6582C345.127 57.9271 345.617 58.0615 346.28 58.0615C346.937 58.0615 347.424 57.9211 347.741 57.6403C348.063 57.3595 348.26 56.8994 348.332 56.2601H349.121C348.995 57.939 348.042 58.7785 346.262 58.7785Z" fill="black"/>
<path d="M364.357 60.9294H361.112V69.9006H360.234V60.9294H356.909V60.1587H364.357V60.9294Z" fill="black"/>
<path d="M370.299 70.0798C368.883 70.0798 367.777 69.6437 366.983 68.7714C366.194 67.899 365.8 66.6772 365.8 65.1058C365.8 63.5524 366.182 62.3096 366.947 61.3775C367.711 60.4395 368.742 59.9705 370.039 59.9705C371.186 59.9705 372.091 60.3708 372.754 61.1714C373.417 61.972 373.749 63.0594 373.749 64.4336V65.1506H366.732C366.744 66.489 367.054 67.5107 367.664 68.2157C368.279 68.9207 369.157 69.2732 370.299 69.2732C370.854 69.2732 371.341 69.2344 371.759 69.1567C372.184 69.0791 372.718 68.9118 373.364 68.6549V69.4615C372.814 69.7004 372.306 69.8618 371.84 69.9454C371.374 70.035 370.86 70.0798 370.299 70.0798ZM370.039 60.7591C369.101 60.7591 368.348 61.0698 367.78 61.6912C367.213 62.3066 366.881 63.1969 366.785 64.3619H372.808C372.808 63.2327 372.563 62.3514 372.073 61.7181C371.583 61.0788 370.905 60.7591 370.039 60.7591Z" fill="black"/>
<path d="M378.831 64.8907L375.434 60.1587H376.456L379.359 64.2634L382.236 60.1587H383.213L379.87 64.8907L383.455 69.9006H382.424L379.359 65.5539L376.276 69.9006H375.299L378.831 64.8907Z" fill="black"/>
<path d="M386.466 60.1587V64.4336H392.65V60.1587H393.529V69.9006H392.65V65.2044H386.466V69.9006H385.579V60.1587H386.466Z" fill="black"/>
<path d="M397.642 60.1587V67.203L397.589 69.0402L403.369 60.1587H404.552V69.9006H403.701V62.9011L403.737 61.019L397.956 69.9006H396.8V60.1587H397.642Z" fill="black"/>
<path d="M413.111 60.1587H414.214L409.849 64.8728L414.527 69.9006H413.335L408.729 64.9624V69.9006H407.823V60.1587H408.729V64.8907L413.111 60.1587Z" fill="black"/>
<path d="M417.09 60.1587V67.203L417.037 69.0402L422.817 60.1587H424V69.9006H423.149V62.9011L423.185 61.019L417.404 69.9006H416.248V60.1587H417.09Z" fill="black"/>
</svg>
