<svg width="25" height="17" viewBox="0 0 25 17" fill="none" xmlns="http://www.w3.org/2000/svg">
<path d="M23.9033 2.72443C23.7678 2.21625 23.5021 1.75282 23.1329 1.38052C22.7637 1.00823 22.3039 0.740117 21.7995 0.603028C19.9428 0.100098 12.5 0.100098 12.5 0.100098C12.5 0.100098 5.05716 0.100098 3.20044 0.600352C2.69581 0.736997 2.23576 1.00496 1.86649 1.37732C1.49722 1.74969 1.23174 2.21336 1.09669 2.72175C0.599975 4.59437 0.599976 8.5001 0.599976 8.5001C0.599976 8.5001 0.599975 12.4058 1.09669 14.2758C1.37029 15.3084 2.17779 16.1216 3.20044 16.3972C5.05716 16.9001 12.5 16.9001 12.5 16.9001C12.5 16.9001 19.9428 16.9001 21.7995 16.3972C22.8248 16.1216 23.6297 15.3084 23.9033 14.2758C24.4 12.4058 24.4 8.5001 24.4 8.5001C24.4 8.5001 24.4 4.59437 23.9033 2.72443ZM10.1359 12.0848V4.91538L16.2984 8.47335L10.1359 12.0848Z" fill="#EBECF5"/>
</svg>
