<svg width="21" height="21" viewBox="0 0 21 21" fill="none" xmlns="http://www.w3.org/2000/svg"><path d="M20.932 6.198a7.59 7.59 0 00-.488-2.58 5.365 5.365 0 00-3.07-3.065 7.715 7.715 0 00-2.55-.489C13.702.014 13.347 0 10.5 0S7.286 0 6.172.064a7.715 7.715 0 00-2.548.489 5.373 5.373 0 00-3.07 3.065 7.62 7.62 0 00-.489 2.544C.015 7.283 0 7.638 0 10.482c0 2.842 0 3.206.065 4.319.018.87.182 1.73.489 2.546a5.366 5.366 0 003.072 3.064 7.689 7.689 0 002.548.524c1.123.05 1.478.065 4.326.065s3.213 0 4.326-.065a7.696 7.696 0 002.55-.488 5.383 5.383 0 003.07-3.065 7.656 7.656 0 00.489-2.547c.05-1.12.065-1.475.065-4.319-.002-2.843-.002-3.204-.068-4.318zm-10.44 9.66A5.385 5.385 0 015.1 10.476a5.385 5.385 0 015.39-5.383c1.43 0 2.802.567 3.813 1.577a5.377 5.377 0 010 7.611 5.396 5.396 0 01-3.812 1.577zm5.605-9.709a1.254 1.254 0 11.48-2.414 1.257 1.257 0 01.776 1.16c0 .693-.562 1.254-1.256 1.254z" fill="#EBECF5"/><path d="M10.5 14a3.5 3.5 0 100-7 3.5 3.5 0 000 7z" fill="#EBECF5"/></svg>