<svg width="26" height="16" viewBox="0 0 26 16" fill="none" xmlns="http://www.w3.org/2000/svg"><path d="M25.306 1.043C25.487.44 25.306 0 24.451 0h-2.835c-.721 0-1.05.382-1.232.8 0 0-1.44 3.519-3.483 5.8-.66.664-.96.874-1.32.874-.18 0-.44-.21-.44-.812v-5.62C15.14.322 14.931 0 14.33 0H9.877c-.45 0-.72.334-.72.652 0 .683 1.02.841 1.125 2.766v4.177c0 .915-.164 1.082-.526 1.082-.96 0-3.297-3.531-4.684-7.573C4.802.318 4.529 0 3.805 0H.972C.162.001 0 .383 0 .802c0 .753.96 4.48 4.473 9.408 2.342 3.366 5.64 5.19 8.643 5.19 1.8 0 2.023-.405 2.023-1.104v-2.543c0-.81.172-.973.742-.973.419 0 1.14.212 2.822 1.833 1.92 1.923 2.238 2.786 3.318 2.786h2.833c.809 0 1.213-.405.98-1.205-.254-.796-1.171-1.954-2.39-3.324-.66-.781-1.65-1.622-1.95-2.043-.42-.542-.3-.782 0-1.263 0 .001 3.453-4.866 3.812-6.521z" fill="#EBECF5"/></svg>