<svg width="25" height="17" viewBox="0 0 25 17" fill="none" xmlns="http://www.w3.org/2000/svg"><path d="M23.903 2.724a3.01 3.01 0 00-.77-1.343 2.978 2.978 0 00-1.334-.778C19.943.1 12.5.1 12.5.1S5.057.1 3.2.6a2.973 2.973 0 00-1.334.777 3.018 3.018 0 00-.77 1.345C.6 4.594.6 8.5.6 8.5s0 3.906.497 5.776A2.994 2.994 0 003.2 16.397c1.857.503 9.3.503 9.3.503s7.443 0 9.3-.503a2.99 2.99 0 002.103-2.121c.497-1.87.497-5.776.497-5.776s0-3.906-.497-5.776zm-13.767 9.36V4.916l6.162 3.558-6.162 3.612z" fill="#EBECF5"/></svg>