<svg width="485" height="106" viewBox="0 0 485 106" fill="none" xmlns="http://www.w3.org/2000/svg"><path fill-rule="evenodd" clip-rule="evenodd" d="M58.504.291a52.956 52.956 0 1047.134 47.28A52.895 52.895 0 0058.504.291zm-1.716 80.69a28.247 28.247 0 1124.252-24.33A28.236 28.236 0 0156.788 80.98zm77.174-78.595a12.353 12.353 0 00-11.984 9.466 12.34 12.34 0 00-.076 5.442c1.162 5.822 6.6 9.8 12.524 9.8h34.378l-53.5 70.8a3.53 3.53 0 002.8 5.659h83.92c5.92 0 11.362-3.977 12.524-9.8a12.366 12.366 0 00-2.482-10.322 12.352 12.352 0 00-9.573-4.588h-41.887l53.459-70.745a3.565 3.565 0 00-.957-5.173 3.562 3.562 0 00-1.872-.539h-77.274zm335.339.285a12.542 12.542 0 00-9.639 12.4V56.21L393.003 3.163a3.546 3.546 0 00-5.749 2.786V90.89a12.536 12.536 0 009.639 12.4 12.34 12.34 0 0014.993-12.07V49.726l66.66 53.047a3.537 3.537 0 003.748.414 3.544 3.544 0 001.999-3.199v-85.25a12.337 12.337 0 00-4.604-9.628 12.342 12.342 0 00-10.388-2.439zM295.739 24.73c28.195 0 49.262 14.9 49.262 28.228 0 13.328-21.067 28.228-49.262 28.228s-49.262-14.9-49.262-28.228c0-13.328 21.067-28.228 49.262-28.228zm0-24.707c-40.811 0-73.894 23.7-73.894 52.935 0 29.235 33.083 52.935 73.894 52.935 40.811 0 73.893-23.7 73.893-52.935 0-29.235-33.083-52.935-73.893-52.935z" fill="#0069FF"/></svg>