<svg width="424" height="82" viewBox="0 0 424 82" fill="none" xmlns="http://www.w3.org/2000/svg"><path fill-rule="evenodd" clip-rule="evenodd" d="M69.586 11.94L40.763 0 11.939 11.94 0 40.762l11.94 28.823 28.823 11.94 28.823-11.94 11.94-28.823-11.94-28.824zM3.095 40.762l11.032-26.636L40.763 3.095l26.635 11.032 11.033 26.636-10.612 25.62H43.49l23.364-45.854a1.43 1.43 0 00-2.547-1.298L41.275 64.435 18.294 19.332a1.43 1.43 0 00-2.548 1.298L39.06 66.383H13.707L3.095 40.763zm15.597 28.526l22.07 9.142 22.071-9.142h-44.14z" fill="#3660BC"/><path d="M155.043 15.274l-16.346 30.334h-.769l-16.345-30.334H116.1l19.113 35.048h6.2l19.061-35.048h-5.431zm30.351 35.561c-7.276 0-12.366-.462-15.269-1.384-2.904-.956-4.749-2.75-5.534-5.38-.547-1.81-.82-5.551-.82-11.222 0-5.773.256-9.513.769-11.221.785-2.665 2.647-4.475 5.585-5.432 2.937-.956 8.027-1.434 15.269-1.434 7.276 0 12.349.478 15.219 1.434 2.903.923 4.765 2.716 5.585 5.38.546 1.811.82 5.569.82 11.273 0 5.74-.257 9.463-.769 11.17-.786 2.665-2.63 4.476-5.534 5.432-2.904.922-8.011 1.384-15.321 1.384zm0-4.714c8.062 0 12.81-.598 14.245-1.794 1.435-1.195 2.152-5.021 2.152-11.478 0-6.49-.717-10.333-2.152-11.529-1.401-1.195-6.149-1.793-14.245-1.793s-12.861.598-14.296 1.793c-1.4 1.196-2.101 5.039-2.101 11.53 0 6.422.718 10.247 2.153 11.477 1.434 1.196 6.182 1.794 14.244 1.794zm49.527-16.551l-14.757-14.296h-7.225l17.883 17.012-18.242 18.036h6.969l15.372-15.32h.666l15.372 15.32h7.122L239.84 32.286l17.883-17.012h-7.43L235.587 29.57h-.666zm39.98-14.296l18.139 28.797 18.139-28.797h9.326v35.048h-5.175V19.988h-1.025L294.68 50.322h-3.279l-19.625-30.334h-.974v30.334h-5.226V15.274h9.325zm80.195 0l18.447 35.048h-5.893l-4.15-7.788h-25.005l-4.1 7.788h-5.892l18.446-35.048h8.147zm6.149 22.597l-9.53-18.395h-1.333l-9.53 18.395h20.393zm39.005-8.301l-14.757-14.296h-7.225l17.883 17.012-18.242 18.036h6.969l15.372-15.32h.666l15.372 15.32h7.123l-18.242-18.036 17.883-17.012h-7.43L400.916 29.57h-.666zM118.72 60.159v7.044l-.054 1.837 5.781-8.881h1.183V69.9h-.852v-7l.036-1.882-5.78 8.882h-1.157v-9.742h.843zm11.068 0v4.275h6.184v-4.275h.878V69.9h-.878v-4.697h-6.184V69.9h-.887v-9.742h.887zm16.518.771h-3.245v8.97h-.878v-8.97h-3.325v-.771h7.448v.77zm5.942 9.15c-1.416 0-2.522-.436-3.316-1.309-.789-.872-1.183-2.094-1.183-3.665 0-1.554.382-2.796 1.147-3.728.764-.938 1.795-1.407 3.092-1.407 1.147 0 2.052.4 2.715 1.2.663.801.995 1.888.995 3.263v.717h-7.017c.012 1.338.322 2.36.932 3.065.615.705 1.493 1.057 2.635 1.057.555 0 1.042-.039 1.46-.116.425-.078.959-.245 1.605-.502v.806a6.95 6.95 0 01-1.524.484c-.466.09-.98.135-1.541.135zm-.26-9.32c-.938 0-1.691.31-2.259.931-.567.616-.899 1.506-.995 2.67h6.023c0-1.128-.245-2.01-.735-2.643-.49-.64-1.168-.959-2.034-.959zm10.566 9.32c-1.5 0-2.593-.562-3.28-1.685h-.063l.027.753c.024.442.036.926.036 1.452v3.71h-.887V60.159h.753l.17 1.389h.054c.669-1.052 1.738-1.578 3.208-1.578 1.315 0 2.315.434 3.002 1.3.693.86 1.04 2.115 1.04 3.764 0 1.601-.364 2.844-1.093 3.728-.723.879-1.712 1.318-2.967 1.318zm-.018-.789c.998 0 1.769-.37 2.312-1.111.55-.741.825-1.778.825-3.11 0-2.862-1.034-4.293-3.101-4.293-1.135 0-1.969.314-2.5.941-.532.621-.798 1.637-.798 3.047v.287c0 1.524.254 2.611.762 3.262.514.652 1.347.977 2.5.977zm7.672-9.132v4.275h6.184v-4.275h.878V69.9h-.878v-4.697h-6.184V69.9h-.887v-9.742h.887zm14.268 9.921c-1.416 0-2.522-.436-3.316-1.309-.789-.872-1.183-2.094-1.183-3.665 0-1.554.382-2.796 1.147-3.728.765-.938 1.795-1.407 3.092-1.407 1.147 0 2.052.4 2.715 1.2.664.801.995 1.888.995 3.263v.717h-7.017c.012 1.338.322 2.36.932 3.065.615.705 1.494 1.057 2.635 1.057.555 0 1.042-.039 1.461-.116.424-.078.959-.245 1.604-.502v.806a6.95 6.95 0 01-1.524.484c-.466.09-.98.135-1.541.135zm-.26-9.32c-.938 0-1.691.31-2.259.931-.567.616-.899 1.506-.994 2.67h6.022c0-1.128-.245-2.01-.735-2.643-.49-.64-1.168-.959-2.034-.959zm12.583.17h-3.245v8.97h-.878v-8.97h-3.325v-.771h7.448v.77zm11.31 8.02l.556-1.568 2.805-7.223h1.228V69.9h-.843v-8.667c-.131.377-.271.762-.421 1.156-.143.395-1.117 2.898-2.922 7.51h-.788l-2.698-6.847a13.262 13.262 0 01-.322-.869 51.367 51.367 0 00-.323-.986V69.9h-.807v-9.742h1.174l2.814 7.17c.222.579.404 1.12.547 1.622zm13.766.95l-.224-1.54h-.072c-.49.627-.994 1.072-1.514 1.335-.514.256-1.124.385-1.829.385-.956 0-1.699-.245-2.231-.735-.532-.49-.798-1.168-.798-2.034 0-.95.395-1.688 1.183-2.214.795-.526 1.942-.804 3.442-.834l1.855-.053v-.646c0-.926-.188-1.625-.565-2.097-.376-.472-.983-.708-1.819-.708-.902 0-1.837.251-2.805.753l-.332-.77c1.07-.503 2.127-.754 3.173-.754 1.069 0 1.867.278 2.393.834.531.555.797 1.422.797 2.599v6.48h-.654zm-3.585-.627c1.04 0 1.858-.295 2.456-.887.603-.597.905-1.425.905-2.483v-.959l-1.703.072c-1.368.066-2.345.281-2.93.645-.58.359-.87.92-.87 1.685 0 .61.185 1.085.556 1.425.376.335.905.502 1.586.502zm13.13-8.343h-4.84v8.97h-.887v-9.74h5.727v.77zm7.914 8.97l-.225-1.54h-.071c-.49.627-.995 1.072-1.515 1.335-.514.256-1.123.385-1.828.385-.956 0-1.7-.245-2.232-.735-.531-.49-.797-1.168-.797-2.034 0-.95.394-1.688 1.183-2.214.794-.526 1.941-.804 3.441-.834l1.855-.053v-.646c0-.926-.188-1.625-.564-2.097-.377-.472-.983-.708-1.82-.708-.902 0-1.837.251-2.805.753l-.331-.77c1.069-.503 2.127-.754 3.172-.754 1.07 0 1.867.278 2.393.834.532.555.798 1.422.798 2.599v6.48h-.654zm-3.585-.627c1.039 0 1.858-.295 2.455-.887.604-.597.905-1.425.905-2.483v-.959l-1.702.072c-1.369.066-2.345.281-2.931.645-.58.359-.869.92-.869 1.685 0 .61.185 1.085.555 1.425.377.335.906.502 1.587.502zm9.24-4.911c1.762 0 2.644-.606 2.644-1.82 0-.579-.204-1.021-.61-1.326-.406-.305-.986-.457-1.739-.457a5.01 5.01 0 00-1.335.17 8.774 8.774 0 00-1.326.475l-.332-.735c1.04-.465 2.049-.698 3.029-.698 1.064 0 1.87.22 2.42.663.55.442.825 1.054.825 1.837 0 1.13-.58 1.85-1.739 2.16v.054c.723.179 1.249.478 1.577.896.329.412.493.94.493 1.586 0 .902-.331 1.613-.995 2.133-.657.52-1.571.78-2.742.78-.633 0-1.213-.06-1.739-.18-.519-.125-.95-.29-1.29-.492v-.888c.615.293 1.147.493 1.595.6.448.102.926.153 1.434.153.884 0 1.571-.185 2.061-.555.496-.377.744-.912.744-1.605 0-.675-.236-1.174-.708-1.496-.472-.323-1.18-.484-2.124-.484h-1.353v-.771h1.21zm7.304-4.203v7.044l-.054 1.837 5.781-8.881h1.183V69.9h-.852v-7l.036-1.882-5.78 8.882h-1.157v-9.742h.843zm11.068 0v4.275h6.184v-4.275h.879V69.9h-.879v-4.697h-6.184V69.9h-.887v-9.742h.887zm14.573 3.889c0-4.23 1.192-6.64 3.576-7.232.836-.21 1.637-.386 2.402-.529.77-.15 1.452-.28 2.043-.394l.161.77-1.075.207c-1.775.334-2.946.591-3.513.77-.807.233-1.44.792-1.9 1.676-.454.884-.714 2.094-.78 3.63h.054c.639-.759 1.26-1.3 1.864-1.622a3.85 3.85 0 011.864-.493c1.195 0 2.109.385 2.743 1.156.633.77.95 1.867.95 3.29 0 1.51-.365 2.69-1.094 3.54-.729.842-1.753 1.263-3.074 1.263-1.338 0-2.378-.523-3.119-1.569-.735-1.045-1.102-2.533-1.102-4.463zm4.293 5.225c1.021 0 1.801-.34 2.339-1.021.544-.682.815-1.661.815-2.94 0-1.213-.242-2.127-.725-2.742-.478-.622-1.183-.933-2.116-.933-.693 0-1.365.218-2.016.655-.645.43-1.21 1.027-1.694 1.792 0 1.07.132 2.008.394 2.814.269.807.658 1.404 1.166 1.793.507.388 1.12.582 1.837.582zm7.662-5.01h3.101c2.289 0 3.433.9 3.433 2.698 0 .926-.32 1.649-.959 2.169-.639.514-1.556.77-2.751.77h-3.711v-9.74h.887v4.104zm0 .843v3.952h2.967c.842 0 1.491-.176 1.945-.529.454-.352.681-.88.681-1.586 0-.645-.2-1.111-.601-1.398-.4-.293-1.093-.44-2.079-.44h-2.913zm9.115 4.795h-.878v-9.742h.878V69.9zm9.464-8.971h-3.244v8.97h-.878v-8.97h-3.325v-.771h7.447v.77zm10.065 4.086c0 1.59-.386 2.832-1.156 3.728-.771.89-1.835 1.336-3.191 1.336-.854 0-1.607-.206-2.258-.618-.652-.413-1.151-1.004-1.497-1.775-.347-.77-.52-1.661-.52-2.67 0-1.59.385-2.827 1.156-3.711.771-.89 1.829-1.335 3.173-1.335 1.338 0 2.387.45 3.146 1.353.764.896 1.147 2.127 1.147 3.692zm-7.69 0c0 1.338.293 2.384.878 3.137.592.747 1.425 1.12 2.501 1.12 1.075 0 1.906-.373 2.491-1.12.592-.753.888-1.799.888-3.137 0-1.344-.299-2.387-.897-3.128-.591-.74-1.425-1.11-2.5-1.11s-1.906.37-2.491 1.11c-.58.735-.87 1.778-.87 3.128zm17.862-2.509c0 .615-.152 1.1-.457 1.452-.305.346-.801.588-1.488.726v.062c.783.09 1.347.317 1.694.681.352.359.529.876.529 1.55 0 .939-.311 1.662-.932 2.17-.616.502-1.518.753-2.707.753h-4.114v-9.742h4.132c1.111 0 1.945.2 2.5.6.562.4.843.983.843 1.748zm-.663 4.454c0-1.195-.917-1.793-2.752-1.793h-3.172v3.89h3.298c1.75 0 2.626-.699 2.626-2.097zm-.278-4.383c0-.567-.203-.97-.61-1.21-.406-.244-1.015-.367-1.828-.367h-3.208v3.334h3.101c.908 0 1.559-.14 1.953-.421.395-.281.592-.726.592-1.336zm11.92 2.438c0 1.59-.386 2.832-1.157 3.728-.77.89-1.834 1.336-3.19 1.336-.854 0-1.607-.206-2.259-.618-.651-.413-1.15-1.004-1.496-1.775-.347-.77-.52-1.661-.52-2.67 0-1.59.385-2.827 1.156-3.711.771-.89 1.828-1.335 3.173-1.335 1.338 0 2.387.45 3.145 1.353.765.896 1.148 2.127 1.148 3.692zm-7.69 0c0 1.338.293 2.384.878 3.137.592.747 1.425 1.12 2.501 1.12 1.075 0 1.906-.373 2.491-1.12.592-.753.888-1.799.888-3.137 0-1.344-.299-2.387-.897-3.128-.591-.74-1.425-1.11-2.5-1.11-1.076 0-1.906.37-2.492 1.11-.579.735-.869 1.778-.869 3.128zm11.23-4.857v7.044l-.054 1.837 5.781-8.881h1.183V69.9h-.852v-7l.036-1.882-5.781 8.882h-1.156v-9.742h.843zm3.038-1.38c-.89 0-1.569-.198-2.035-.592-.466-.4-.737-1.043-.815-1.927h.789c.089.657.292 1.123.609 1.398.317.27.807.404 1.47.404.657 0 1.144-.14 1.461-.422.322-.28.519-.74.591-1.38h.789c-.126 1.679-1.079 2.519-2.859 2.519zm18.095 2.151h-3.245v8.97h-.878v-8.97h-3.325v-.771h7.448v.77zm5.942 9.15c-1.416 0-2.522-.436-3.316-1.309-.789-.872-1.183-2.094-1.183-3.665 0-1.554.382-2.796 1.147-3.728.764-.938 1.795-1.407 3.092-1.407 1.147 0 2.052.4 2.715 1.2.663.801.995 1.888.995 3.263v.717h-7.017c.012 1.338.322 2.36.932 3.065.615.705 1.493 1.057 2.635 1.057.555 0 1.042-.039 1.46-.116.425-.078.959-.245 1.605-.502v.806a6.95 6.95 0 01-1.524.484c-.466.09-.98.135-1.541.135zm-.26-9.32c-.938 0-1.691.31-2.259.931-.567.616-.899 1.506-.995 2.67h6.023c0-1.128-.245-2.01-.735-2.643-.49-.64-1.168-.959-2.034-.959zm8.792 4.13l-3.397-4.731h1.022l2.903 4.104 2.877-4.104h.977l-3.343 4.732 3.585 5.01h-1.031l-3.065-4.347-3.083 4.347h-.977l3.532-5.01zm7.635-4.731v4.275h6.184v-4.275h.879V69.9h-.879v-4.697h-6.184V69.9h-.887v-9.742h.887zm11.176 0v7.044l-.053 1.837 5.78-8.881h1.183V69.9h-.851v-7l.036-1.882-5.781 8.882H396.8v-9.742h.842zm15.469 0h1.103l-4.365 4.714 4.678 5.028h-1.192l-4.606-4.939v4.939h-.906v-9.742h.906v4.732l4.382-4.732zm3.979 0v7.044l-.053 1.837 5.78-8.881H424V69.9h-.851v-7l.036-1.882-5.781 8.882h-1.156v-9.742h.842z" fill="#000"/></svg>